<svg width="29" height="46" viewBox="0 0 29 46" fill="none" xmlns="http://www.w3.org/2000/svg">
<path d="M5.58578 4.04036L5.62001 2.77033C5.66197 1.33418 4.5612 0.0413281 2.92335 0C1.45072 0 0.268826 1.15287 0.23199 2.62299L0.19776 3.89428C-0.0304436 12.1665 1.74774 22.8709 5.15309 29.2675L8.16394 21.298C6.81628 15.6902 5.42388 9.89296 5.58578 4.04036Z" fill="#F6A96C"/>
<path d="M16.2119 1.83573C15.9855 1.15139 15.5039 0.595979 14.8617 0.276225C13.564 -0.38179 11.89 0.18144 11.2437 1.48175L10.6752 2.61881C7.53903 8.88658 5.73991 16.1572 5.41162 23.8108L10.4239 22.5533C11.5702 16.6323 12.756 10.5085 15.4974 5.02842L16.0673 3.88741C16.3883 3.2426 16.4397 2.51217 16.2119 1.83573Z" fill="#FFBD86"/>
<path d="M25.7192 5.31443C24.8203 4.18528 23.0567 3.9878 21.9355 4.88273L20.9378 5.67372C17.469 8.425 14.1479 12.0167 10.8518 16.59L17.0255 17.2494C19.1414 14.5133 21.5734 12.0507 24.2899 9.89566L25.2862 9.10467C25.8495 8.65725 26.2049 8.0163 26.2877 7.30169C26.3693 6.58437 26.1679 5.87901 25.7192 5.31443Z" fill="#FFBD86"/>
<path d="M29.7728 31.9124C29.5303 33.7722 28.2096 35.6319 25.7029 37.5727C23.87 39.0011 22.8191 41.2023 22.8191 43.2777V44.6523C22.8191 45.4069 22.199 46 21.4714 46H6.91653C6.26965 46 5.70364 45.5417 5.59583 44.8948C4.19417 37.6714 4.22122 32.1281 4.24817 28.2198C4.27512 27.9773 4.16722 27.0069 4.32894 25.6055C4.54466 23.4492 5.32621 20.2687 8.18324 17.4386C10.7168 14.878 14.1129 13.4766 17.6978 13.4766C19.2341 13.4766 21.9294 13.9617 24.2474 15.0667C26.5385 16.1719 28.479 17.843 28.479 20.2148C28.479 21.2929 27.8052 22.2633 26.781 22.6405C25.7568 22.9909 24.6247 22.6675 23.924 21.8319C22.4415 20.0262 20.2044 18.8672 17.6978 18.8672C13.6818 18.8672 10.3666 21.778 9.74661 25.6055C9.63889 26.0366 9.61184 26.4948 9.61184 26.9531C9.61184 31.4273 13.2237 35.0391 17.6978 35.0391C21.4173 35.0391 24.3821 32.5055 25.2447 29.0823C25.4064 28.4625 25.8377 27.9504 26.4306 27.7077C27.0237 27.4652 27.6975 27.4922 28.2364 27.8156C28.479 27.9504 28.6408 28.0581 28.6677 28.1121C29.3146 28.759 30.0155 29.9449 29.7728 31.9124Z" fill="#FED2A4"/>
<path d="M29.7728 31.9124C29.5303 33.7722 28.2096 35.6319 25.7029 37.5727C23.87 39.0011 22.8191 41.2023 22.8191 43.2777V44.6523C22.8191 45.4069 22.199 46 21.4714 46H6.91653C6.26965 46 5.70364 45.5417 5.59583 44.8948C4.19417 37.6714 4.22122 32.1281 4.24817 28.2198C4.27512 27.9773 4.16722 27.0069 4.32894 25.6055H9.74652C9.6388 26.0366 9.61175 26.4948 9.61175 26.9531C9.61175 31.4273 13.2236 35.0391 17.6977 35.0391C21.4172 35.0391 24.382 32.5055 25.2446 29.0823C25.4063 28.4625 25.8376 27.9504 26.4305 27.7077C27.0236 27.4652 27.6974 27.4922 28.2363 27.8156C28.4789 27.9504 28.6407 28.0581 28.6676 28.1121C29.3146 28.759 30.0155 29.9449 29.7728 31.9124Z" fill="#FFBD86"/>
</svg>
