<svg width="28" height="28" viewBox="0 0 28 28" fill="none" xmlns="http://www.w3.org/2000/svg">
<path d="M24.2268 0H3.77318C1.68942 0 0.00012207 1.68923 0.00012207 3.77306V24.2268C0.00012207 26.3106 1.68935 27.9999 3.77318 27.9999H13.8608L13.878 17.9942H11.2785C10.9407 17.9942 10.6665 17.7211 10.6652 17.3832L10.6528 14.158C10.6515 13.8184 10.9265 13.5423 11.2661 13.5423H13.8609V10.4259C13.8609 6.80938 16.0696 4.84014 19.2958 4.84014H21.9432C22.2819 4.84014 22.5565 5.11474 22.5565 5.45352V8.17305C22.5565 8.51169 22.2821 8.78622 21.9435 8.78642L20.3189 8.78718C18.5644 8.78718 18.2246 9.6209 18.2246 10.8444V13.5424H22.0799C22.4472 13.5424 22.7322 13.8631 22.6889 14.228L22.3067 17.4532C22.2701 17.7618 22.0084 17.9944 21.6976 17.9944H18.2418L18.2246 28H24.2269C26.3107 28 27.9999 26.3108 27.9999 24.227V3.77306C27.9998 1.68923 26.3106 0 24.2268 0Z" fill="#274684"/>
</svg>
