<svg width="29" height="28" viewBox="0 0 29 28" fill="none" xmlns="http://www.w3.org/2000/svg">
<g clip-path="url(#clip0)">
<path d="M24.6095 0H4.15587C2.07211 0 0.382812 1.68923 0.382812 3.77306V24.2268C0.382812 26.3106 2.07204 27.9999 4.15587 27.9999H14.2435L14.2607 17.9942H11.6612C11.3234 17.9942 11.0492 17.7211 11.0479 17.3832L11.0355 14.158C11.0342 13.8184 11.3092 13.5423 11.6488 13.5423H14.2436V10.4259C14.2436 6.80938 16.4523 4.84014 19.6785 4.84014H22.3259C22.6646 4.84014 22.9392 5.11474 22.9392 5.45352V8.17305C22.9392 8.51169 22.6648 8.78622 22.3262 8.78642L20.7016 8.78718C18.9471 8.78718 18.6073 9.6209 18.6073 10.8444V13.5424H22.4626C22.8299 13.5424 23.1149 13.8631 23.0716 14.228L22.6894 17.4532C22.6528 17.7618 22.3911 17.9944 22.0803 17.9944H18.6245L18.6073 28H24.6096C26.6934 28 28.3826 26.3108 28.3826 24.227V3.77306C28.3825 1.68923 26.6933 0 24.6095 0Z" fill="#FFBE4D"/>
</g>
<defs>
<clipPath id="clip0">
<rect x="0.382812" width="28" height="28" fill="white"/>
</clipPath>
</defs>
</svg>
