<svg width="129" height="34" viewBox="0 0 129 34" fill="none" xmlns="http://www.w3.org/2000/svg">
<g clip-path="url(#clip0)">
<rect width="129" height="34" fill="white"/>
<path d="M10.8453 7.24283V11.2591H7.39297V18.9162C7.36095 19.8222 7.39388 20.7294 7.49148 21.6307C7.55365 21.8868 7.70555 22.1123 7.91981 22.2667C8.17082 22.4401 8.47119 22.5284 8.77647 22.5185C9.47623 22.4675 10.1632 22.3047 10.811 22.0362L11.2394 25.9415C9.9739 26.4602 8.61546 26.7158 7.24734 26.6927C6.40404 26.7055 5.56668 26.5502 4.78444 26.236C4.14613 26.0018 3.58765 25.5918 3.17392 25.0538C2.79114 24.4612 2.54805 23.79 2.46289 23.0904C2.32231 21.9137 2.26791 20.7282 2.30013 19.5436V11.2549H0V7.24283H2.32155V3.46125L7.39297 0.520508V7.24283H10.8453Z" fill="#274684"/>
<path d="M25.4161 20.1973L30.4533 21.0509C29.9133 22.7455 28.8374 24.2203 27.3864 25.255C25.8311 26.2665 23.9997 26.7734 22.1437 26.7062C18.8227 26.7062 16.3641 25.6249 14.7678 23.4624C13.5085 21.7295 12.8789 19.5428 12.8789 16.9022C12.8789 13.7467 13.7056 11.2768 15.3589 9.49276C16.1498 8.62126 17.1204 7.93049 18.2042 7.46784C19.2881 7.00518 20.4595 6.78158 21.6382 6.81237C24.4938 6.81237 26.7368 7.74709 28.3673 9.61654C29.9978 11.486 30.7788 14.3513 30.7103 18.2126H18.0574C18.0945 19.7064 18.5029 20.8688 19.2824 21.6996C19.6503 22.1028 20.1007 22.4226 20.6031 22.6376C21.1055 22.8526 21.6484 22.9577 22.1951 22.9459C22.9155 22.9694 23.6215 22.7415 24.1911 22.3014C24.8095 21.7444 25.2378 21.0087 25.4161 20.1973ZM25.7031 15.1054C25.666 13.6485 25.2876 12.5402 24.568 11.7805C24.2219 11.4164 23.804 11.1276 23.3405 10.9322C22.877 10.7368 22.378 10.639 21.8748 10.645C21.3715 10.651 20.875 10.7607 20.4163 10.9671C19.9577 11.1735 19.5468 11.4723 19.2096 11.8445C18.4515 12.7569 18.0715 13.9232 18.1474 15.1054H25.7031Z" fill="#274684"/>
<path d="M45.9044 20.197L50.9416 21.0506C50.4016 22.7452 49.3257 24.2201 47.8747 25.2547C46.3184 26.2632 44.4871 26.7671 42.632 26.6974C39.311 26.6974 36.8524 25.6161 35.2561 23.4536C33.9968 21.7207 33.3672 19.534 33.3672 16.8935C33.3672 13.7379 34.1939 11.2681 35.8472 9.48397C36.638 8.61247 37.6087 7.9217 38.6925 7.45905C39.7764 6.99639 40.9478 6.77279 42.1265 6.80358C44.9821 6.80358 47.2251 7.7383 48.8556 9.60775C50.4861 11.4772 51.2714 14.3425 51.2114 18.2038H38.5457C38.5828 19.6976 38.9912 20.86 39.7707 21.6908C40.1386 22.094 40.5889 22.4138 41.0914 22.6288C41.5938 22.8438 42.1367 22.9489 42.6834 22.9371C43.4037 22.9607 44.1097 22.7327 44.6794 22.2927C45.2962 21.7378 45.7244 21.0054 45.9044 20.197ZM46.1914 15.1051C46.1514 13.6625 45.773 12.5613 45.0563 11.8016C44.7102 11.4375 44.2923 11.1487 43.8288 10.9533C43.3653 10.7578 42.8663 10.6601 42.3631 10.6661C41.8598 10.6721 41.3633 10.7818 40.9046 10.9882C40.446 11.1946 40.0351 11.4933 39.6979 11.8656C38.9398 12.778 38.5598 13.9443 38.6356 15.1265L46.1914 15.1051Z" fill="#274684"/>
<path d="M72.687 26.2745H67.6327V16.5602C67.6327 14.5058 67.5242 13.177 67.3072 12.5737C67.1167 12.0038 66.7472 11.51 66.2535 11.1653C65.7361 10.8202 65.1239 10.6442 64.5016 10.6616C63.6607 10.6512 62.8374 10.9018 62.1458 11.3787C61.4677 11.8329 60.9635 12.5023 60.7152 13.278C60.4582 14.0662 60.3297 15.5245 60.3297 17.6528V26.2745H55.2754V7.24284H59.987V10.0385C61.6546 7.88733 63.7535 6.81176 66.2835 6.81176C67.3308 6.79307 68.3706 6.99071 69.3374 7.39223C70.1558 7.7158 70.877 8.24341 71.432 8.92449C71.911 9.55726 72.2484 10.2849 72.4214 11.0586C72.6373 12.1748 72.7306 13.3111 72.6998 14.4475L72.687 26.2745Z" fill="#274684"/>
<path d="M82.7737 7.24303V25.6857C82.7737 28.11 82.6152 29.8172 82.2983 30.8074C81.9964 31.7851 81.3438 32.6177 80.465 33.1464C79.4147 33.749 78.2153 34.0449 77.0041 34C76.4588 33.9961 75.9147 33.9505 75.3765 33.8634C74.7429 33.7637 74.1151 33.6297 73.4961 33.4622L74.3742 29.1599C74.614 29.2083 74.8396 29.2467 75.0509 29.2752C75.2439 29.3029 75.4385 29.3171 75.6335 29.3179C76.0858 29.3396 76.534 29.2235 76.9184 28.9849C77.2195 28.7985 77.45 28.5178 77.5738 28.1868C77.7284 27.2634 77.783 26.3262 77.7365 25.3912V7.24303H82.7737ZM77.7194 4.68215V0H82.7737V4.66081L77.7194 4.68215Z" fill="#274684"/>
<path d="M86.8958 16.4877C86.9021 14.7915 87.3288 13.123 88.1379 11.6306C88.9212 10.11 90.1468 8.86042 91.6545 8.04535C93.2149 7.20974 94.9632 6.78378 96.7345 6.80759C99.6243 6.80759 101.993 7.74231 103.84 9.61175C105.688 11.4812 106.612 13.8443 106.612 16.7011C106.653 18.021 106.426 19.3356 105.946 20.5662C105.465 21.7968 104.74 22.9181 103.815 23.8631C102.902 24.7965 101.805 25.531 100.593 26.0203C99.381 26.5096 98.0803 26.743 96.7731 26.7057C95.0341 26.7082 93.3188 26.3032 91.7659 25.5234C90.2209 24.7766 88.9525 23.562 88.1422 22.0534C87.2666 20.3311 86.838 18.4176 86.8958 16.4877ZM92.0743 16.7566C92.0743 18.646 92.524 20.0915 93.4235 21.093C93.8376 21.5658 94.3485 21.9448 94.9218 22.2044C95.4951 22.4641 96.1176 22.5985 96.7474 22.5985C97.3771 22.5985 97.9996 22.4641 98.5729 22.2044C99.1462 21.9448 99.6571 21.5658 100.071 21.093C100.965 20.0886 101.412 18.6303 101.412 16.7182C101.412 14.8545 100.965 13.4204 100.071 12.4159C99.6571 11.9431 99.1462 11.5642 98.5729 11.3045C97.9996 11.0449 97.3771 10.9105 96.7474 10.9105C96.1176 10.9105 95.4951 11.0449 94.9218 11.3045C94.3485 11.5642 93.8376 11.9431 93.4235 12.4159C92.524 13.4232 92.0743 14.8701 92.0743 16.7566Z" fill="#274684"/>
<path d="M110 26.2747V0H115.054V9.46247C116.613 7.69546 118.46 6.81195 120.593 6.81195C121.681 6.78561 122.762 6.99745 123.76 7.43253C124.758 7.86762 125.647 8.51537 126.366 9.33015C127.888 11.009 128.649 13.419 128.649 16.5604C128.649 19.8099 127.873 22.3124 126.319 24.068C125.631 24.8977 124.767 25.5644 123.788 26.0199C122.809 26.4754 121.741 26.7082 120.661 26.7015C119.534 26.6931 118.426 26.4134 117.432 25.8863C116.337 25.3131 115.397 24.486 114.69 23.4748V26.2704L110 26.2747ZM115.02 16.3555C115.02 18.3274 115.331 19.7857 115.954 20.7304C116.305 21.3429 116.814 21.8514 117.427 22.2039C118.04 22.5564 118.737 22.7401 119.445 22.7364C119.998 22.7351 120.544 22.6056 121.039 22.3582C121.534 22.1108 121.965 21.7523 122.297 21.3108C123.083 20.3605 123.475 18.8638 123.475 16.8207C123.475 14.6468 123.08 13.0818 122.289 12.1258C121.93 11.6661 121.468 11.2962 120.94 11.0458C120.412 10.7953 119.832 10.6712 119.248 10.6832C118.67 10.6743 118.098 10.7965 117.575 11.0406C117.052 11.2846 116.591 11.644 116.228 12.0916C115.423 13.0164 115.02 14.4377 115.02 16.3555Z" fill="#274684"/>
</g>
<defs>
<clipPath id="clip0">
<rect width="129" height="34" fill="white"/>
</clipPath>
</defs>
</svg>
