<svg width="66" height="68" viewBox="0 0 66 68" fill="none" xmlns="http://www.w3.org/2000/svg">
<path d="M65.3795 0H0V67.6436H65.3795V0Z" fill="#274684"/>
<path d="M34.6126 19.402V25.6054H28.8438V37.4842C28.8438 39.8599 28.915 41.3118 28.9862 41.7077C29.1287 42.1037 29.3423 42.4337 29.6984 42.6976C30.0545 42.9616 30.5531 43.0936 31.1228 43.0936C31.9062 43.0936 33.0457 42.8296 34.4701 42.3677L35.1823 48.4391C33.2594 49.231 30.9804 49.627 28.5589 49.627C27.0633 49.627 25.7101 49.363 24.4282 48.901C23.2174 48.4391 22.2916 47.8451 21.7218 47.0532C21.1521 46.2613 20.7248 45.2714 20.5111 44.0175C20.2974 43.0936 20.2262 41.3118 20.2262 38.5401V25.6713H16.3804V19.468H20.2262V13.5946L28.6301 9.04102V19.402H34.6126Z" fill="white"/>
<path d="M48.7142 19.402V47.9114C48.7142 51.6731 48.4293 54.3129 47.9308 55.8307C47.4322 57.3486 46.3639 58.6025 44.8683 59.4604C43.3727 60.3183 41.4498 60.7803 39.0995 60.7803C38.2449 60.7803 37.3903 60.7143 36.3932 60.5823C35.3961 60.4503 34.399 60.2523 33.2595 59.9883L34.7551 53.3229C35.1825 53.3889 35.5385 53.4549 35.8946 53.5209C36.2507 53.5869 36.5356 53.5869 36.8917 53.5869C37.7464 53.5869 38.4586 53.3889 39.0283 53.059C39.5981 52.729 39.9542 52.333 40.0966 51.8051C40.3103 51.3431 40.3815 49.8913 40.3815 47.4495V19.402H48.7142ZM40.3103 15.4424V8.24902H48.7142V15.4424H40.3103Z" fill="white"/>
</svg>
