<svg width="29" height="28" viewBox="0 0 29 28" fill="none" xmlns="http://www.w3.org/2000/svg">
<path d="M20.8881 0H8.34206C4.08149 0 0.615234 3.4664 0.615234 7.72694V20.2729C0.615234 24.5336 4.08149 27.9998 8.34206 27.9998H20.8881C25.149 27.9998 28.6152 24.5334 28.6152 20.2729V7.72694C28.6154 3.4664 25.149 0 20.8881 0ZM26.1311 20.2729C26.1311 23.1638 23.7791 25.5156 20.8882 25.5156H8.34206C5.45133 25.5157 3.09953 23.1638 3.09953 20.2729V7.72694C3.09953 4.83623 5.45133 2.48428 8.34206 2.48428H20.8881C23.779 2.48428 26.1309 4.83623 26.1309 7.72694V20.2729H26.1311Z" fill="#FFBE4D"/>
<path d="M14.6153 6.78516C10.6369 6.78516 7.40039 10.0217 7.40039 14C7.40039 17.9782 10.6369 21.2145 14.6153 21.2145C18.5936 21.2145 21.8302 17.9782 21.8302 14C21.8302 10.0217 18.5936 6.78516 14.6153 6.78516ZM14.6153 18.7301C12.0069 18.7301 9.88469 16.6082 9.88469 13.9998C9.88469 11.3913 12.0068 9.26927 14.6153 9.26927C17.2238 9.26927 19.3459 11.3913 19.3459 13.9998C19.3459 16.6082 17.2236 18.7301 14.6153 18.7301Z" fill="#FFBE4D"/>
<path d="M22.1324 4.67871C21.6537 4.67871 21.1835 4.87249 20.8455 5.212C20.5058 5.54987 20.3105 6.02022 20.3105 6.50052C20.3105 6.97932 20.506 7.44951 20.8455 7.78903C21.1834 8.12689 21.6537 8.32232 22.1324 8.32232C22.6127 8.32232 23.0814 8.12689 23.4209 7.78903C23.7604 7.44951 23.9542 6.97916 23.9542 6.50052C23.9542 6.02022 23.7604 5.54987 23.4209 5.212C23.083 4.87249 22.6127 4.67871 22.1324 4.67871Z" fill="#FFBE4D"/>
</svg>
