<svg width="28" height="28" viewBox="0 0 28 28" fill="none" xmlns="http://www.w3.org/2000/svg">
<path d="M20.2727 0H7.72678C3.46623 0 0 3.4664 0 7.72694V20.2729C0 24.5336 3.46623 27.9998 7.72678 27.9998H20.2727C24.5336 27.9998 27.9998 24.5334 27.9998 20.2729V7.72694C28 3.4664 24.5336 0 20.2727 0ZM25.5157 20.2729C25.5157 23.1638 23.1638 25.5156 20.2729 25.5156H7.72678C4.83607 25.5157 2.48428 23.1638 2.48428 20.2729V7.72694C2.48428 4.83623 4.83607 2.48428 7.72678 2.48428H20.2727C23.1636 2.48428 25.5156 4.83623 25.5156 7.72694V20.2729H25.5157Z" fill="#274684"/>
<path d="M13.9999 6.7854C10.0216 6.7854 6.78506 10.0219 6.78506 14.0002C6.78506 17.9784 10.0216 21.2148 13.9999 21.2148C17.9782 21.2148 21.2148 17.9784 21.2148 14.0002C21.2148 10.0219 17.9782 6.7854 13.9999 6.7854ZM13.9999 18.7303C11.3916 18.7303 9.26935 16.6084 9.26935 14.0001C9.26935 11.3916 11.3914 9.26952 13.9999 9.26952C16.6084 9.26952 18.7305 11.3916 18.7305 14.0001C18.7305 16.6084 16.6082 18.7303 13.9999 18.7303Z" fill="#274684"/>
<path d="M21.5173 4.67889C21.0387 4.67889 20.5685 4.87267 20.2305 5.21219C19.8908 5.55005 19.6955 6.02041 19.6955 6.5007C19.6955 6.9795 19.891 7.4497 20.2305 7.78921C20.5683 8.12708 21.0387 8.32251 21.5173 8.32251C21.9976 8.32251 22.4663 8.12708 22.8058 7.78921C23.1454 7.4497 23.3391 6.97934 23.3391 6.5007C23.3391 6.02041 23.1454 5.55005 22.8058 5.21219C22.468 4.87267 21.9976 4.67889 21.5173 4.67889Z" fill="#274684"/>
</svg>
