<svg width="29" height="28" viewBox="0 0 29 28" fill="none" xmlns="http://www.w3.org/2000/svg">
<g clip-path="url(#clip0)">
<path d="M0.546875 7.39156L5.40705 9.98947V15.1506L14.3295 19.5822L23.252 15.1506V9.98947L24.8644 9.12764V19.9605L23.252 21.5729V27.6043H28.0894V21.5729L26.4768 19.9605V8.26559L28.1121 7.39156L14.3295 0.0859375L0.546875 7.39156ZM26.4768 25.9919H24.8644V22.2409L25.6707 21.4348L26.4768 22.2409V25.9919ZM7.01947 10.8513L13.5232 14.3277V17.3813L7.01947 14.151V10.8513ZM21.6393 14.151L15.1358 17.3813V14.3277L21.6393 10.8513V14.151ZM14.3295 12.9304L3.97865 7.39766L14.3295 1.91098L24.6804 7.39766L14.3295 12.9304Z" fill="black"/>
<path d="M11.1055 7.39508C11.1055 8.75155 12.5221 9.81381 14.3305 9.81381C16.1389 9.81381 17.5556 8.75155 17.5556 7.39508C17.5556 6.03882 16.1389 4.97656 14.3305 4.97656C12.5221 4.97656 11.1055 6.03882 11.1055 7.39508ZM15.9429 7.39508C15.9429 7.724 15.3147 8.20139 14.3305 8.20139C13.3461 8.20139 12.7181 7.724 12.7181 7.39508C12.7181 7.06637 13.3461 6.58898 14.3305 6.58898C15.3147 6.58898 15.9429 7.06637 15.9429 7.39508Z" fill="black"/>
</g>
<defs>
<clipPath id="clip0">
<rect x="0.601562" y="0.0322266" width="27.5652" height="27.5652" fill="white"/>
</clipPath>
</defs>
</svg>
