<svg width="24" height="24" viewBox="0 0 24 24" fill="none" xmlns="http://www.w3.org/2000/svg">
<path d="M-0.046875 6.40757L4.1847 8.66948V13.1631L11.9531 17.0215L19.7216 13.1631V8.66948L21.1255 7.91911V17.3509L19.7216 18.7548V24.0061H23.9334V18.7548L22.5293 17.3509V7.16856L23.9532 6.40757L11.9531 0.0468445L-0.046875 6.40757ZM22.5293 22.6022H21.1255V19.3363L21.8275 18.6345L22.5293 19.3363V22.6022ZM5.58857 9.41985L11.2511 12.4466V15.1053L5.58857 12.2928V9.41985ZM18.3175 12.2928L12.6552 15.1053V12.4466L18.3175 9.41985V12.2928ZM11.9531 11.23L2.94105 6.41288L11.9531 1.63584L20.9653 6.41288L11.9531 11.23Z" fill="black"/>
</svg>
