<svg width="24" height="24" viewBox="0 0 24 24" fill="none" xmlns="http://www.w3.org/2000/svg">
<path d="M-0.046875 6.40759L4.1847 8.6695V13.1631L11.9531 17.0215L19.7216 13.1631V8.6695L21.1255 7.91913V17.3509L19.7216 18.7548V24.0061H23.9334V18.7548L22.5293 17.3509V7.16858L23.9532 6.40759L11.9531 0.0468597L-0.046875 6.40759ZM22.5293 22.6022H21.1255V19.3363L21.8275 18.6345L22.5293 19.3363V22.6022ZM5.58857 9.41986L11.2511 12.4466V15.1053L5.58857 12.2928V9.41986ZM18.3175 12.2928L12.6552 15.1053V12.4466L18.3175 9.41986V12.2928ZM11.9531 11.23L2.94105 6.4129C2.94105 6.4129 7.96984 1.63585 11.9531 1.63585C15.9365 1.63585 20.9653 6.4129 20.9653 6.4129L11.9531 11.23Z" fill="black"/>
<path d="M9.14551 6.41014C9.14551 7.59117 10.3789 8.51604 11.9534 8.51604C13.528 8.51604 14.7614 7.59117 14.7614 6.41014C14.7614 5.22929 13.528 4.30443 11.9534 4.30443C10.3789 4.30443 9.14551 5.22929 9.14551 6.41014ZM13.3573 6.41014C13.3573 6.69652 12.8104 7.11217 11.9534 7.11217C11.0963 7.11217 10.5496 6.69652 10.5496 6.41014C10.5496 6.12395 11.0963 5.7083 11.9534 5.7083C12.8104 5.7083 13.3573 6.12395 13.3573 6.41014Z" fill="black"/>
</svg>
