<svg width="24" height="24" viewBox="0 0 24 24" fill="none" xmlns="http://www.w3.org/2000/svg">
<path d="M9.17969 18.581C8.79205 18.581 8.47656 18.2655 8.47656 17.8779C8.47656 17.4895 8.1618 17.1747 7.77344 17.1747C7.38507 17.1747 7.07031 17.4895 7.07031 17.8779C7.07031 18.7972 7.66174 19.5806 8.48407 19.8688V20.4844C8.48407 20.8727 8.79883 21.1875 9.18719 21.1875C9.57556 21.1875 9.89032 20.8727 9.89032 20.4844V19.8636C10.7048 19.5714 11.2891 18.7917 11.2891 17.8779C11.2891 16.7148 10.3428 15.7685 9.17969 15.7685C8.79205 15.7685 8.47656 15.453 8.47656 15.0654C8.47656 14.6776 8.79205 14.3622 9.17969 14.3622C9.56732 14.3622 9.88281 14.6776 9.88281 15.0654C9.88281 15.4537 10.1976 15.7685 10.5859 15.7685C10.9743 15.7685 11.2891 15.4537 11.2891 15.0654C11.2891 14.1515 10.7048 13.3718 9.89032 13.0794V12.0469C9.89032 11.6585 9.57556 11.3438 9.18719 11.3438C8.79883 11.3438 8.48407 11.6585 8.48407 12.0469V13.0743C7.66174 13.3625 7.07031 14.1458 7.07031 15.0654C7.07031 16.2285 8.0166 17.1747 9.17969 17.1747C9.56732 17.1747 9.88281 17.4901 9.88281 17.8779C9.88281 18.2655 9.56732 18.581 9.17969 18.581Z" fill="black"/>
<path d="M2.86597 22.8517C4.32916 23.6351 6.33801 24 9.1875 24C11.506 24 13.251 23.7598 14.6067 23.2489C14.994 23.7078 15.5728 24 16.2188 24H21.8906C23.0537 24 24 23.0537 24 21.8906C24 21.3508 23.7958 20.8579 23.4611 20.4844C23.796 20.1108 24 19.6179 24 19.0781C24 18.5383 23.7958 18.0454 23.4611 17.6719C23.796 17.2983 24 16.8054 24 16.2656C24 15.7258 23.7958 15.2329 23.4611 14.8594C23.796 14.4858 24 13.9929 24 13.4531C24 12.29 23.0537 11.3438 21.8906 11.3438H16.2188C16.1503 11.3438 16.0825 11.3472 16.0157 11.3538C15.31 10.4991 14.4831 9.78241 13.572 9.23273C13.9058 8.85956 14.1094 8.36719 14.1094 7.82812C14.1094 6.98785 13.6154 6.26093 12.9025 5.922L14.0748 2.32745C14.1445 2.11322 14.1075 1.87866 13.9753 1.69647C13.843 1.5141 13.6315 1.40625 13.4062 1.40625H11.176C10.8856 0.587769 10.1041 0 9.1875 0C8.27069 0 7.48883 0.587769 7.19861 1.40625H4.96875C4.74353 1.40625 4.53204 1.5141 4.39966 1.69647C4.26746 1.87866 4.23047 2.11322 4.30023 2.32745L5.47247 5.922C4.75964 6.26093 4.26562 6.98785 4.26562 7.82812C4.26562 8.36755 4.46942 8.86029 4.80377 9.23364C1.98267 10.9363 0 14.1702 0 17.6719C0 20.0909 0.964233 21.8335 2.86597 22.8517ZM22.5938 16.2656C22.5938 16.6533 22.2783 16.9688 21.8906 16.9688H16.2188C15.8311 16.9688 15.5156 16.6533 15.5156 16.2656C15.5156 15.878 15.8311 15.5625 16.2188 15.5625H21.8906C22.2783 15.5625 22.5938 15.878 22.5938 16.2656ZM22.5938 19.0781C22.5938 19.4658 22.2783 19.7812 21.8906 19.7812H16.2188C15.8311 19.7812 15.5156 19.4658 15.5156 19.0781C15.5156 18.6905 15.8311 18.375 16.2188 18.375H21.8906C22.2783 18.375 22.5938 18.6905 22.5938 19.0781ZM21.8906 22.5938H16.2188C15.8311 22.5938 15.5156 22.2783 15.5156 21.8906C15.5156 21.503 15.8311 21.1875 16.2188 21.1875H21.8906C22.2783 21.1875 22.5938 21.503 22.5938 21.8906C22.5938 22.2783 22.2783 22.5938 21.8906 22.5938ZM22.5938 13.4531C22.5938 13.8408 22.2783 14.1562 21.8906 14.1562H16.2188C15.8311 14.1562 15.5156 13.8408 15.5156 13.4531C15.5156 13.0655 15.8311 12.75 16.2188 12.75H21.8906C22.2783 12.75 22.5938 13.0655 22.5938 13.4531ZM11.9799 8.53125H6.39532C6.3891 8.53107 6.38287 8.53125 6.37665 8.53125H6.375C5.98737 8.53125 5.67188 8.21576 5.67188 7.82812C5.67188 7.44122 5.98608 7.12628 6.3728 7.12518H6.37482C6.37646 7.12518 6.37811 7.125 6.37976 7.125H11.9951C11.9967 7.125 11.9985 7.12518 12.0002 7.12518H12.0022C12.3889 7.12628 12.7031 7.44122 12.7031 7.82812C12.7031 8.21576 12.3876 8.53125 12 8.53125H11.9978C11.9919 8.53125 11.9859 8.53107 11.9799 8.53125ZM7.78125 2.8125C8.16962 2.8125 8.48438 2.49774 8.48438 2.10938C8.48438 1.72174 8.79987 1.40625 9.1875 1.40625C9.57513 1.40625 9.89062 1.72174 9.89062 2.10938V3.51562C9.89062 3.90399 10.2054 4.21875 10.5938 4.21875C10.9821 4.21875 11.2969 3.90399 11.2969 3.51562V2.8125H12.4374L11.4897 5.71875H6.88531L5.93756 2.8125H7.78125ZM6.51215 9.9375H11.8601C12.9249 10.3823 13.8953 11.0826 14.7047 11.9866C14.3366 12.3666 14.1094 12.8837 14.1094 13.4531C14.1094 13.9929 14.3135 14.4858 14.6483 14.8594C14.3135 15.2329 14.1094 15.7258 14.1094 16.2656C14.1094 16.8054 14.3135 17.2983 14.6483 17.6719C14.3135 18.0454 14.1094 18.5383 14.1094 19.0781C14.1094 19.6179 14.3135 20.1108 14.6483 20.4844C14.3135 20.8579 14.1094 21.3508 14.1094 21.8906C14.1094 21.9051 14.1101 21.9194 14.1105 21.9337C12.921 22.3828 11.3368 22.5938 9.1875 22.5938C6.57861 22.5938 4.7807 22.2817 3.52972 21.6119C2.08099 20.8363 1.40625 19.5844 1.40625 17.6719C1.40625 14.3555 3.49951 11.1951 6.51215 9.9375Z" fill="black"/>
</svg>
