<svg width="16" height="16" viewBox="0 0 16 16" fill="none" xmlns="http://www.w3.org/2000/svg">
<path d="M8.00016 2.42636C6.0772 2.42636 4.5127 3.9908 4.5127 5.91376C4.5127 7.83671 6.0772 9.40116 8.00016 9.40116C9.92311 9.40116 11.4876 7.83671 11.4876 5.91376C11.4876 3.9908 9.92311 2.42636 8.00016 2.42636ZM8.00016 8.46307C6.59443 8.46307 5.45072 7.31942 5.45072 5.9137C5.45072 4.50797 6.59443 3.36439 8.00016 3.36439C9.40588 3.36439 10.5496 4.50803 10.5496 5.91376C10.5496 7.31949 9.40595 8.46307 8.00016 8.46307Z" fill="#B0B0B0"/>
<path d="M8.00013 0C4.73929 0 2.08643 2.65287 2.08643 5.9137C2.08643 7.79426 3.66356 10.596 4.60365 12.0987C5.22219 13.0873 5.88688 14.0282 6.47521 14.748C7.41955 15.9033 7.75755 15.9999 8.00019 15.9999C8.24645 15.9999 8.56557 15.9032 9.50697 14.7473C10.0966 14.0232 10.7616 13.0829 11.3795 12.0994C12.3261 10.5931 13.9139 7.78632 13.9139 5.91364C13.9139 2.65287 11.261 0 8.00013 0ZM10.7292 11.3691C9.51629 13.3379 8.40273 14.6683 7.99456 15.0079C7.58427 14.6787 6.48878 13.38 5.2589 11.3753C3.83891 9.06053 3.02452 7.06985 3.02452 5.9137C3.02445 3.1701 5.25652 0.938028 8.00013 0.938028C10.7437 0.938028 12.9758 3.1701 12.9758 5.9137C12.9759 7.06322 12.157 9.05159 10.7292 11.3691Z" fill="#B0B0B0"/>
</svg>
