<svg width="129" height="34" viewBox="0 0 129 34" fill="none" xmlns="http://www.w3.org/2000/svg">
<g clip-path="url(#clip0)">
<path d="M10.8453 7.24307V11.2594H7.39297V18.9164C7.36095 19.8225 7.39388 20.7296 7.49148 21.631C7.55365 21.887 7.70555 22.1126 7.91981 22.2669C8.17082 22.4404 8.47119 22.5287 8.77647 22.5187C9.47623 22.4678 10.1632 22.3049 10.811 22.0364L11.2394 25.9418C9.9739 26.4604 8.61546 26.716 7.24734 26.693C6.40404 26.7057 5.56668 26.5505 4.78444 26.2363C4.14613 26.002 3.58765 25.592 3.17392 25.054C2.79114 24.4615 2.54805 23.7902 2.46289 23.0907C2.32231 21.9139 2.26791 20.7285 2.30013 19.5438V11.2551H0V7.24307H2.32155V3.4615L7.39297 0.520752V7.24307H10.8453Z" fill="white"/>
<path d="M25.4171 20.1968L30.4542 21.0504C29.9143 22.745 28.8384 24.2199 27.3874 25.2545C25.8321 26.266 24.0007 26.7729 22.1446 26.7057C18.8237 26.7057 16.365 25.6244 14.7688 23.4619C13.5095 21.729 12.8799 19.5423 12.8799 16.9018C12.8799 13.7462 13.7065 11.2764 15.3599 9.49227C16.1507 8.62077 17.1213 7.93001 18.2052 7.46735C19.289 7.00469 20.4605 6.78109 21.6392 6.81188C24.4947 6.81188 26.7378 7.7466 28.3683 9.61605C29.9988 11.4855 30.7798 14.3508 30.7112 18.2121H18.0584C18.0955 19.7059 18.5038 20.8683 19.2834 21.6991C19.6513 22.1023 20.1016 22.4221 20.6041 22.6371C21.1065 22.8521 21.6494 22.9572 22.196 22.9454C22.9164 22.969 23.6224 22.741 24.192 22.301C24.8104 21.7439 25.2387 21.0082 25.4171 20.1968ZM25.7041 15.1049C25.6669 13.648 25.2886 12.5397 24.569 11.78C24.2229 11.4159 23.805 11.1271 23.3415 10.9317C22.878 10.7363 22.379 10.6385 21.8757 10.6445C21.3725 10.6505 20.876 10.7602 20.4173 10.9666C19.9587 11.173 19.5478 11.4718 19.2106 11.844C18.4524 12.7564 18.0725 13.9228 18.1483 15.1049H25.7041Z" fill="white"/>
<path d="M45.9041 20.1968L50.9412 21.0504C50.4013 22.745 49.3254 24.2199 47.8744 25.2545C46.3181 26.263 44.4868 26.7669 42.6316 26.6971C39.3107 26.6971 36.852 25.6159 35.2558 23.4533C33.9965 21.7205 33.3669 19.5338 33.3669 16.8932C33.3669 13.7376 34.1935 11.2678 35.8469 9.48373C36.6377 8.61223 37.6083 7.92146 38.6922 7.45881C39.776 6.99615 40.9475 6.77255 42.1262 6.80333C44.9817 6.80333 47.2248 7.73806 48.8553 9.6075C50.4858 11.4769 51.271 14.3423 51.2111 18.2035H38.5454C38.5825 19.6974 38.9908 20.8597 39.7704 21.6906C40.1383 22.0937 40.5886 22.4136 41.0911 22.6286C41.5935 22.8435 42.1364 22.9487 42.683 22.9369C43.4034 22.9604 44.1094 22.7325 44.6791 22.2924C45.2959 21.7376 45.7241 21.0051 45.9041 20.1968ZM46.1911 15.1049C46.1511 13.6622 45.7727 12.5611 45.056 11.8013C44.7099 11.4372 44.292 11.1484 43.8285 10.953C43.365 10.7576 42.866 10.6598 42.3627 10.6658C41.8595 10.6719 41.363 10.7815 40.9043 10.9879C40.4457 11.1944 40.0348 11.4931 39.6976 11.8653C38.9394 12.7777 38.5595 13.9441 38.6353 15.1262L46.1911 15.1049Z" fill="white"/>
<path d="M72.6875 26.2747H67.6332V16.5604C67.6332 14.506 67.5247 13.1772 67.3077 12.574C67.1172 12.004 66.7478 11.5102 66.254 11.1655C65.7367 10.8205 65.1244 10.6445 64.5021 10.6619C63.6612 10.6515 62.8379 10.9021 62.1463 11.3789C61.4682 11.8332 60.964 12.5025 60.7157 13.2782C60.4587 14.0664 60.3302 15.5247 60.3302 17.6531V26.2747H55.2759V7.24309H59.9875V10.0387C61.6552 7.88757 63.754 6.812 66.284 6.812C67.3313 6.79331 68.3711 6.99095 69.338 7.39247C70.1563 7.71604 70.8776 8.24366 71.4325 8.92473C71.9115 9.5575 72.2489 10.2852 72.422 11.0588C72.6378 12.175 72.7311 13.3114 72.7004 14.4477L72.6875 26.2747Z" fill="white"/>
<path d="M82.7747 7.24303V25.6857C82.7747 28.11 82.6162 29.8172 82.2992 30.8074C81.9974 31.7851 81.3448 32.6177 80.466 33.1464C79.4157 33.749 78.2163 34.0449 77.0051 34C76.4598 33.9961 75.9157 33.9505 75.3774 33.8634C74.7438 33.7637 74.1161 33.6297 73.4971 33.4622L74.3751 29.1599C74.615 29.2083 74.8406 29.2467 75.0519 29.2752C75.2448 29.3029 75.4395 29.3171 75.6344 29.3179C76.0868 29.3396 76.535 29.2235 76.9194 28.9849C77.2205 28.7985 77.451 28.5178 77.5748 28.1868C77.7294 27.2634 77.784 26.3262 77.7375 25.3912V7.24303H82.7747ZM77.7204 4.68215V0H82.7747V4.66081L77.7204 4.68215Z" fill="white"/>
<path d="M86.8952 16.4877C86.9015 14.7915 87.3282 13.123 88.1374 11.6306C88.9206 10.11 90.1463 8.86042 91.6539 8.04535C93.2144 7.20974 94.9626 6.78378 96.7339 6.80759C99.6237 6.80759 101.992 7.74231 103.84 9.61175C105.687 11.4812 106.611 13.8443 106.611 16.7011C106.652 18.021 106.426 19.3356 105.945 20.5662C105.465 21.7968 104.74 22.9181 103.814 23.8631C102.902 24.7965 101.805 25.531 100.593 26.0203C99.3805 26.5096 98.0797 26.743 96.7725 26.7057C95.0335 26.7082 93.3182 26.3032 91.7653 25.5234C90.2203 24.7766 88.9519 23.562 88.1416 22.0534C87.266 20.3311 86.8375 18.4176 86.8952 16.4877ZM92.0737 16.7566C92.0737 18.646 92.5234 20.0915 93.4229 21.093C93.837 21.5658 94.3479 21.9448 94.9212 22.2044C95.4946 22.4641 96.117 22.5985 96.7468 22.5985C97.3765 22.5985 97.999 22.4641 98.5723 22.2044C99.1456 21.9448 99.6565 21.5658 100.071 21.093C100.964 20.0886 101.411 18.6303 101.411 16.7182C101.411 14.8545 100.964 13.4204 100.071 12.4159C99.6565 11.9431 99.1456 11.5642 98.5723 11.3045C97.999 11.0449 97.3765 10.9105 96.7468 10.9105C96.117 10.9105 95.4946 11.0449 94.9212 11.3045C94.3479 11.5642 93.837 11.9431 93.4229 12.4159C92.5234 13.4232 92.0737 14.8701 92.0737 16.7566Z" fill="white"/>
<path d="M110 26.2747V0H115.054V9.46247C116.613 7.69546 118.46 6.81195 120.593 6.81195C121.681 6.78561 122.762 6.99745 123.76 7.43253C124.758 7.86762 125.647 8.51537 126.366 9.33015C127.888 11.009 128.649 13.419 128.649 16.5604C128.649 19.8099 127.873 22.3124 126.319 24.068C125.631 24.8977 124.767 25.5644 123.788 26.0199C122.809 26.4754 121.741 26.7082 120.661 26.7015C119.534 26.6931 118.426 26.4134 117.432 25.8863C116.337 25.3131 115.397 24.486 114.69 23.4748V26.2704L110 26.2747ZM115.02 16.3555C115.02 18.3274 115.331 19.7857 115.954 20.7304C116.305 21.3429 116.814 21.8514 117.427 22.2039C118.04 22.5564 118.737 22.7401 119.445 22.7364C119.998 22.7351 120.544 22.6056 121.039 22.3582C121.534 22.1108 121.965 21.7523 122.297 21.3108C123.083 20.3605 123.475 18.8638 123.475 16.8207C123.475 14.6468 123.08 13.0818 122.289 12.1258C121.93 11.6661 121.468 11.2962 120.94 11.0458C120.412 10.7953 119.832 10.6712 119.248 10.6832C118.67 10.6743 118.098 10.7965 117.575 11.0406C117.052 11.2846 116.591 11.644 116.228 12.0916C115.423 13.0164 115.02 14.4377 115.02 16.3555Z" fill="white"/>
</g>
<defs>
<clipPath id="clip0">
<rect width="129" height="34" fill="white"/>
</clipPath>
</defs>
</svg>
