<svg width="129" height="34" viewBox="0 0 129 34" fill="none" xmlns="http://www.w3.org/2000/svg">
<g clip-path="url(#clip0)">
<path d="M10.8453 7.24283V11.2591H7.39297V18.9162C7.36095 19.8222 7.39388 20.7294 7.49148 21.6307C7.55365 21.8868 7.70555 22.1123 7.91981 22.2667C8.17082 22.4401 8.47119 22.5284 8.77647 22.5185C9.47623 22.4675 10.1632 22.3047 10.811 22.0362L11.2394 25.9415C9.9739 26.4602 8.61546 26.7158 7.24734 26.6927C6.40404 26.7055 5.56668 26.5502 4.78444 26.236C4.14613 26.0018 3.58765 25.5918 3.17392 25.0538C2.79114 24.4612 2.54805 23.79 2.46289 23.0904C2.32231 21.9137 2.26791 20.7282 2.30013 19.5436V11.2549H0V7.24283H2.32155V3.46125L7.39297 0.520508V7.24283H10.8453Z" fill="white"/>
<path d="M25.4171 20.1968L30.4542 21.0504C29.9143 22.745 28.8384 24.2199 27.3874 25.2545C25.8321 26.266 24.0007 26.7729 22.1447 26.7057C18.8237 26.7057 16.3651 25.6244 14.7688 23.4619C13.5095 21.729 12.8799 19.5423 12.8799 16.9018C12.8799 13.7462 13.7066 11.2764 15.3599 9.49227C16.1507 8.62077 17.1213 7.93001 18.2052 7.46735C19.2891 7.00469 20.4605 6.78109 21.6392 6.81188C24.4948 6.81188 26.7378 7.7466 28.3683 9.61605C29.9988 11.4855 30.7798 14.3508 30.7112 18.2121H18.0584C18.0955 19.7059 18.5038 20.8683 19.2834 21.6991C19.6513 22.1023 20.1016 22.4221 20.6041 22.6371C21.1065 22.8521 21.6494 22.9572 22.1961 22.9454C22.9164 22.969 23.6224 22.741 24.1921 22.301C24.8104 21.7439 25.2387 21.0082 25.4171 20.1968ZM25.7041 15.1049C25.6669 13.648 25.2886 12.5397 24.569 11.78C24.2229 11.4159 23.805 11.1271 23.3415 10.9317C22.878 10.7363 22.379 10.6385 21.8757 10.6445C21.3725 10.6505 20.876 10.7602 20.4173 10.9666C19.9587 11.173 19.5478 11.4718 19.2106 11.844C18.4525 12.7564 18.0725 13.9228 18.1483 15.1049H25.7041Z" fill="white"/>
<path d="M45.9042 20.197L50.9413 21.0506C50.4014 22.7452 49.3255 24.2201 47.8745 25.2547C46.3182 26.2632 44.4868 26.7671 42.6317 26.6974C39.3107 26.6974 36.8521 25.6161 35.2559 23.4536C33.9966 21.7207 33.3669 19.534 33.3669 16.8935C33.3669 13.7379 34.1936 11.2681 35.847 9.48397C36.6378 8.61247 37.6084 7.9217 38.6923 7.45905C39.7761 6.99639 40.9476 6.77279 42.1263 6.80358C44.9818 6.80358 47.2248 7.7383 48.8553 9.60775C50.4859 11.4772 51.2711 14.3425 51.2112 18.2038H38.5454C38.5826 19.6976 38.9909 20.86 39.7705 21.6908C40.1383 22.094 40.5887 22.4138 41.0911 22.6288C41.5936 22.8438 42.1364 22.9489 42.6831 22.9371C43.4035 22.9607 44.1095 22.7327 44.6791 22.2927C45.296 21.7378 45.7241 21.0054 45.9042 20.197ZM46.1911 15.1051C46.1512 13.6625 45.7728 12.5613 45.0561 11.8016C44.71 11.4375 44.2921 11.1487 43.8286 10.9533C43.3651 10.7578 42.866 10.6601 42.3628 10.6661C41.8596 10.6721 41.363 10.7818 40.9044 10.9882C40.4457 11.1946 40.0349 11.4933 39.6977 11.8656C38.9395 12.778 38.5596 13.9443 38.6354 15.1265L46.1911 15.1051Z" fill="white"/>
<path d="M72.6875 26.2745H67.6332V16.5602C67.6332 14.5058 67.5247 13.177 67.3077 12.5737C67.1172 12.0038 66.7477 11.51 66.254 11.1653C65.7366 10.8202 65.1244 10.6442 64.5021 10.6616C63.6612 10.6512 62.8379 10.9018 62.1463 11.3787C61.4681 11.8329 60.964 12.5023 60.7157 13.278C60.4587 14.0662 60.3302 15.5245 60.3302 17.6528V26.2745H55.2759V7.24284H59.9875V10.0385C61.6551 7.88733 63.7539 6.81176 66.2839 6.81176C67.3312 6.79307 68.3711 6.99071 69.3379 7.39223C70.1563 7.7158 70.8775 8.24341 71.4325 8.92449C71.9115 9.55726 72.2488 10.2849 72.4219 11.0586C72.6377 12.1748 72.7311 13.3111 72.7003 14.4475L72.6875 26.2745Z" fill="white"/>
<path d="M82.7747 7.24303V25.6857C82.7747 28.11 82.6162 29.8172 82.2992 30.8074C81.9974 31.7851 81.3448 32.6177 80.466 33.1464C79.4157 33.749 78.2163 34.0449 77.0051 34C76.4598 33.9961 75.9157 33.9505 75.3774 33.8634C74.7438 33.7637 74.1161 33.6297 73.4971 33.4622L74.3751 29.1599C74.615 29.2083 74.8406 29.2467 75.0519 29.2752C75.2448 29.3029 75.4395 29.3171 75.6344 29.3179C76.0868 29.3396 76.535 29.2235 76.9194 28.9849C77.2205 28.7985 77.451 28.5178 77.5748 28.1868C77.7294 27.2634 77.784 26.3262 77.7375 25.3912V7.24303H82.7747ZM77.7204 4.68215V0H82.7747V4.66081L77.7204 4.68215Z" fill="white"/>
<path d="M86.8953 16.4877C86.9016 14.7915 87.3283 13.123 88.1374 11.6306C88.9207 10.11 90.1464 8.86042 91.654 8.04535C93.2145 7.20974 94.9627 6.78378 96.734 6.80759C99.6238 6.80759 101.992 7.74231 103.84 9.61175C105.688 11.4812 106.611 13.8443 106.611 16.7011C106.652 18.021 106.426 19.3356 105.945 20.5662C105.465 21.7968 104.74 22.9181 103.814 23.8631C102.902 24.7965 101.805 25.531 100.593 26.0203C99.3806 26.5096 98.0798 26.743 96.7726 26.7057C95.0336 26.7082 93.3183 26.3032 91.7654 25.5234C90.2204 24.7766 88.952 23.562 88.1417 22.0534C87.2661 20.3311 86.8376 18.4176 86.8953 16.4877ZM92.0738 16.7566C92.0738 18.646 92.5235 20.0915 93.423 21.093C93.8371 21.5658 94.348 21.9448 94.9213 22.2044C95.4946 22.4641 96.1171 22.5985 96.7469 22.5985C97.3766 22.5985 97.9991 22.4641 98.5724 22.2044C99.1457 21.9448 99.6566 21.5658 100.071 21.093C100.964 20.0886 101.411 18.6303 101.411 16.7182C101.411 14.8545 100.964 13.4204 100.071 12.4159C99.6566 11.9431 99.1457 11.5642 98.5724 11.3045C97.9991 11.0449 97.3766 10.9105 96.7469 10.9105C96.1171 10.9105 95.4946 11.0449 94.9213 11.3045C94.348 11.5642 93.8371 11.9431 93.423 12.4159C92.5235 13.4232 92.0738 14.8701 92.0738 16.7566Z" fill="white"/>
<line x1="0.5" x2="0.5" y2="2116" stroke="black"/>
<path d="M110 26.2747V0H115.054V9.46247C116.613 7.69546 118.46 6.81195 120.593 6.81195C121.681 6.78561 122.762 6.99745 123.76 7.43253C124.758 7.86762 125.647 8.51537 126.366 9.33015C127.888 11.009 128.649 13.419 128.649 16.5604C128.649 19.8099 127.873 22.3124 126.319 24.068C125.631 24.8977 124.767 25.5644 123.788 26.0199C122.809 26.4754 121.741 26.7082 120.661 26.7015C119.534 26.6931 118.426 26.4134 117.432 25.8863C116.337 25.3131 115.397 24.486 114.69 23.4748V26.2704L110 26.2747ZM115.02 16.3555C115.02 18.3274 115.331 19.7857 115.954 20.7304C116.305 21.3429 116.814 21.8514 117.427 22.2039C118.04 22.5564 118.737 22.7401 119.445 22.7364C119.998 22.7351 120.544 22.6056 121.039 22.3582C121.534 22.1108 121.965 21.7523 122.297 21.3108C123.083 20.3605 123.475 18.8638 123.475 16.8207C123.475 14.6468 123.08 13.0818 122.289 12.1258C121.93 11.6661 121.468 11.2962 120.94 11.0458C120.412 10.7953 119.832 10.6712 119.248 10.6832C118.67 10.6743 118.098 10.7965 117.575 11.0406C117.052 11.2846 116.591 11.644 116.228 12.0916C115.423 13.0164 115.02 14.4377 115.02 16.3555Z" fill="white"/>
</g>
<defs>
<clipPath id="clip0">
<rect width="129" height="34" fill="white"/>
</clipPath>
</defs>
</svg>
