<?xml version="1.0" ?><!DOCTYPE svg  PUBLIC '-//W3C//DTD SVG 1.1//EN'  'http://www.w3.org/Graphics/SVG/1.1/DTD/svg11.dtd'><svg enable-background="new 0 0 91 91" height="91px" id="Layer_1" version="1.1" viewBox="0 0 91 91" width="91px" xml:space="preserve" xmlns="http://www.w3.org/2000/svg" xmlns:xlink="http://www.w3.org/1999/xlink" fill="#c0c0c0"><g><path d="M61.738,33.751c0-4.08-3.318-7.398-7.398-7.398s-7.4,3.318-7.4,7.398s3.32,7.398,7.4,7.398   S61.738,37.831,61.738,33.751z M50.34,33.751c0-2.205,1.795-3.998,4-3.998s3.998,1.793,3.998,3.998s-1.793,3.998-3.998,3.998   S50.34,35.956,50.34,33.751z" fill="#010101"/><path d="M64,44.319c2.357-3.521,4.283-7.305,4.283-10.275c0-7.688-6.256-13.943-13.945-13.943   c-7.686,0-13.939,6.255-13.939,13.943c0,2.971,1.922,6.753,4.279,10.274l-23.818-0.001L16.797,71.24h49.58   c3.711,0,6.732-3.021,6.732-6.732l-3.848-20.187L64,44.319z M54.338,23.501c5.814,0,10.545,4.729,10.545,10.543   c0,4.441-6.762,12.811-10.545,16.979c-3.781-4.166-10.539-12.531-10.539-16.979C43.799,28.229,48.527,23.501,54.338,23.501z    M53.113,54.694l1.225,1.271l1.225-1.271c0.59-0.611,3.25-3.418,5.986-6.975h4.904l1.83,9.53l-4.889,3.531L32.518,47.718   l14.613,0.002C49.865,51.276,52.525,54.083,53.113,54.694z M60.172,63.109l-6.549,4.73H26.061l12.078-14.053L60.172,63.109z    M23.785,47.718h0.006l11.059,4.679L21.578,67.84h-0.83L23.785,47.718z M66.377,67.84h-6.949l9.563-6.907l0.715,3.721   C69.629,66.424,68.166,67.84,66.377,67.84z" fill="#010101"/></g></svg>