<svg width="77" height="77" viewBox="0 0 77 77" fill="none" xmlns="http://www.w3.org/2000/svg">
<circle cx="38.5" cy="38.5" r="38.5" fill="#F1F1F1"/>
<g clip-path="url(#clip0)">
<path d="M58.0264 52.7904C58.0264 61.4192 49.539 60.9241 39.0005 60.9241C28.462 60.9241 19.9746 61.3485 19.9746 52.7904C19.9746 44.1615 28.462 29.8037 39.0005 29.8037C49.539 29.8744 58.0264 44.2323 58.0264 52.7904Z" fill="#F2B233"/>
<path d="M39 29.874C49.5385 29.874 58.0259 44.2318 58.0259 52.8607C58.0259 61.4895 49.5385 60.9944 39 60.9944" fill="#DD981D"/>
<path d="M29.7344 20.9626C29.7344 16.7896 33.9073 17.0018 38.9998 17.0018C44.0922 17.0018 48.2652 16.7896 48.2652 20.9626C48.2652 25.1355 44.0922 32.1376 38.9998 32.1376C33.9073 32.1376 29.7344 25.1355 29.7344 20.9626Z" fill="#F2B233"/>
<path d="M39 17.0018C44.0924 17.0018 48.2654 16.7896 48.2654 20.9626C48.2654 25.1355 44.0924 32.1376 39 32.1376" fill="#DD981D"/>
<path d="M47.1347 30.6521C47.1347 31.3594 46.5688 31.9252 45.8616 31.9252H32.1403C31.433 31.9252 30.8672 31.3594 30.8672 30.6521V30.2985C30.8672 29.5912 31.433 29.0254 32.1403 29.0254H45.9323C46.6396 29.0254 47.2054 29.5912 47.2054 30.2985V30.6521H47.1347Z" fill="#04AF76"/>
<path d="M31.9277 29.0967H45.9319C46.6392 29.0967 47.205 29.6625 47.205 30.3698V30.7234C47.205 31.4307 46.4977 31.9965 45.7905 31.9965" fill="#008C61"/>
<path d="M38.9991 55.4777C43.6866 55.4777 47.4865 51.6778 47.4865 46.9903C47.4865 42.3029 43.6866 38.5029 38.9991 38.5029C34.3116 38.5029 30.5117 42.3029 30.5117 46.9903C30.5117 51.6778 34.3116 55.4777 38.9991 55.4777Z" fill="#04AF76"/>
<path d="M32.9883 40.9785C36.3125 37.6543 41.6878 37.6543 45.0121 40.9785C48.3363 44.3028 48.3363 49.6781 45.0121 53.0023" fill="#008C61"/>
<path d="M38.292 53.8514V52.0832C36.8775 52.0125 36.0994 51.7296 35.4629 51.376L35.8873 49.4663C36.5945 49.8199 37.514 50.1736 38.5749 50.1736C39.4944 50.1736 40.131 49.8199 40.131 49.1834C40.131 48.5468 39.6359 48.1932 38.3627 47.7688C36.5945 47.203 35.4629 46.3543 35.4629 44.7982C35.4629 43.3837 36.0994 42.252 38.2213 41.8984V40.4131H39.6359V41.8276C41.0504 41.8984 41.5455 42.1106 42.0406 42.3935L41.6162 44.2324C41.1919 44.0202 40.4846 43.6666 39.2822 43.6666C38.2213 43.6666 37.8676 44.0909 37.8676 44.586C37.8676 45.1519 38.4335 45.4348 39.848 46.0006C41.7577 46.7079 42.5357 47.5566 42.5357 49.0419C42.5357 50.5272 41.7577 51.7296 39.6359 52.0832V53.8514H38.292Z" fill="#FFF6E1"/>
<path d="M39 40.4131V43.6666C39 43.6666 39.2122 43.6666 39.3536 43.6666C40.556 43.6666 41.2633 44.0202 41.6877 44.2324L42.112 42.3935C41.5462 42.1106 41.1218 41.8276 39.7073 41.8276V40.4131H39Z" fill="#FFEEBD"/>
<path d="M39.9195 45.9298C39.5658 45.7884 39.2122 45.6469 39 45.5762V47.9809C39.7073 48.3346 40.1317 48.6882 40.1317 49.1833C40.1317 49.7491 39.7073 50.032 39 50.1735V53.8514H39.7073V52.0124C41.8291 51.6588 42.6071 50.4564 42.6071 48.9711C42.6071 47.4858 41.8291 46.6371 39.9195 45.9298Z" fill="#FFEEBD"/>
</g>
<defs>
<clipPath id="clip0">
<rect x="17" y="17" width="44" height="44" fill="white"/>
</clipPath>
</defs>
</svg>
