<svg width="77" height="77" viewBox="0 0 77 77" fill="none" xmlns="http://www.w3.org/2000/svg">
<circle cx="38.5" cy="38.5" r="38.5" fill="#F1F1F1"/>
<path d="M60.3377 56.3797H17.6623C16.1917 56.3797 15 55.188 15 53.7174V24.2834C15 22.8128 16.1917 21.6211 17.6623 21.6211H60.3377C61.8083 21.6211 63 22.8128 63 24.2834V53.7174C63 55.188 61.8083 56.3797 60.3377 56.3797Z" fill="#F0C41B"/>
<path d="M63 25.7588H15V32.3795H63V25.7588Z" fill="#806F5E"/>
<path d="M27.4145 38.1727H19.9663C19.5094 38.1727 19.1387 37.802 19.1387 37.3452C19.1387 36.8883 19.5094 36.5176 19.9663 36.5176H27.4145C27.8714 36.5176 28.2421 36.8883 28.2421 37.3452C28.2421 37.802 27.8714 38.1727 27.4145 38.1727Z" fill="#F9EAB0"/>
<path d="M38.1723 38.1727H30.7241C30.2672 38.1727 29.8965 37.802 29.8965 37.3452C29.8965 36.8883 30.2672 36.5176 30.7241 36.5176H38.1723C38.6292 36.5176 38.9999 36.8883 38.9999 37.3452C38.9999 37.802 38.6292 38.1727 38.1723 38.1727Z" fill="#F9EAB0"/>
<path d="M20.7938 42.3104H19.9663C19.5094 42.3104 19.1387 41.9397 19.1387 41.4829C19.1387 41.026 19.5094 40.6553 19.9663 40.6553H20.7938C21.2507 40.6553 21.6214 41.026 21.6214 41.4829C21.6214 41.9397 21.2507 42.3104 20.7938 42.3104Z" fill="#F9EAB0"/>
<path d="M25.7581 42.3104H24.103C23.6461 42.3104 23.2754 41.9397 23.2754 41.4829C23.2754 41.026 23.6461 40.6553 24.103 40.6553H25.7581C26.215 40.6553 26.5857 41.026 26.5857 41.4829C26.5857 41.9397 26.215 42.3104 25.7581 42.3104Z" fill="#F9EAB0"/>
<path d="M29.8974 42.3104H29.0698C28.6129 42.3104 28.2422 41.9397 28.2422 41.4829C28.2422 41.026 28.6129 40.6553 29.0698 40.6553H29.8974C30.3542 40.6553 30.7249 41.026 30.7249 41.4829C30.7249 41.9397 30.3542 42.3104 29.8974 42.3104Z" fill="#F9EAB0"/>
<path d="M34.8617 42.3104H33.2065C32.7497 42.3104 32.3789 41.9397 32.3789 41.4829C32.3789 41.026 32.7497 40.6553 33.2065 40.6553H34.8617C35.3185 40.6553 35.6893 41.026 35.6893 41.4829C35.6893 41.9397 35.3185 42.3104 34.8617 42.3104Z" fill="#F9EAB0"/>
<path d="M38.1733 42.3108C37.9581 42.3108 37.7429 42.2198 37.5857 42.0708C37.4367 41.9136 37.3457 41.7067 37.3457 41.4833C37.3457 41.2681 37.4367 41.0529 37.5857 40.8957C37.8919 40.5895 38.4464 40.5895 38.7609 40.8957C38.9098 41.0529 39.0009 41.2681 39.0009 41.4833C39.0009 41.6984 38.9098 41.9136 38.7609 42.0708C38.6036 42.2198 38.3885 42.3108 38.1733 42.3108Z" fill="#F9EAB0"/>
<path d="M53.0697 47.2761C53.0697 50.0187 50.8468 52.2416 48.1042 52.2416C45.3616 52.2416 43.1387 50.0187 43.1387 47.2761C43.1387 44.5334 45.3616 42.3105 48.1042 42.3105C50.8468 42.3105 53.0697 44.5334 53.0697 47.2761Z" fill="#DB2215"/>
<path d="M58.8627 47.2761C58.8627 50.0187 56.6398 52.2416 53.8972 52.2416C51.1545 52.2416 48.9316 50.0187 48.9316 47.2761C48.9316 44.5334 51.1545 42.3105 53.8972 42.3105C56.6398 42.3105 58.8627 44.5334 58.8627 47.2761Z" fill="#245EA9"/>
</svg>
