<?xml version="1.0" encoding="utf-8"?>
<!-- Svg Vector Icons : http://www.onlinewebfonts.com/icon -->
<!DOCTYPE svg PUBLIC "-//W3C//DTD SVG 1.1//EN" "http://www.w3.org/Graphics/SVG/1.1/DTD/svg11.dtd">
<svg version="1.1" xmlns="http://www.w3.org/2000/svg" xmlns:xlink="http://www.w3.org/1999/xlink" x="0px" y="0px" viewBox="0 0 1000 1000" fill="#c0c0c0" enable-background="new 0 0 1000 1000" xml:space="preserve">
<metadata> Svg Vector Icons : http://www.onlinewebfonts.com/icon </metadata>
<g><g transform="translate(0.000000,511.000000) scale(0.100000,-0.100000)"><path d="M6481.7,4564.4c-765.5-54-1375.2-181.9-1719-359.8c-201.9-103.9-285.8-177.9-347.8-301.8l-52-103.9V2433.6c0-1299.2-2-1365.2-36-1365.2c-20,0-133.9,14-253.9,30c-715.6,95.9-1671,95.9-2408.6-2C815,986.5,293.3,774.6,139.4,478.8c-40-76-42-105.9-38-595.6c6-583.7,10-601.7,163.9-741.6c97.9-87.9,353.8-215.9,543.7-273.8l135.9-40V-1506c0-183.9,10-367.8,22-411.8c12-42,56-113.9,97.9-159.9l77.9-84l-137.9-46c-191.9-62-375.8-187.9-433.7-299.8c-44-85.9-46-105.9-46-585.7c0-549.7,6-587.6,125.9-711.6c343.8-357.8,1557.1-593.7,2872.3-557.7c1325.2,38,2252.7,279.8,2482.5,649.6c34,56,48,113.9,56,239.9l10,167.9l139.9,44c78,26,203.9,76,279.8,111.9l139.9,64l389.8-2c1251.2-12,2350.6,201.9,2712.4,527.7c181.9,161.9,165.9-145.9,165.9,3316c0,1984.8-6,3084.2-20,3118.2c-32,86-179.9,229.9-313.8,305.8C9028.2,4480.4,7675,4648.3,6481.7,4564.4z M7950.8,4124.6c647.6-54,1319.2-205.9,1489.1-335.8c42-34,44-42,20-74c-70-83.9-441.7-209.9-839.5-285.8c-445.7-84-777.5-109.9-1459.1-109.9c-667.6-2-929.4,14-1399.2,89.9c-469.7,74-959.4,229.9-959.4,305.8c0,101.9,483.7,267.8,1033.4,351.8C6441.7,4158.6,7271.2,4182.6,7950.8,4124.6z M5200.4,3097.3c213.9-60,641.6-133.9,991.4-173.9c371.8-40,1621-34,1978.8,10c527.7,66,955.4,157.9,1177.3,253.9c52,22,103.9,40,113.9,40s18-167.9,18-389.8v-389.8l-91.9-58c-50-32-177.9-86-283.8-119.9c-983.4-315.8-2900.3-319.8-3921.7-10c-205.9,64-351.8,133.9-379.8,185.9c-12,24-20,195.9-20,419.8v379.8l115.9-48C4962.6,3171.2,5098.5,3127.2,5200.4,3097.3z M5200.4,1818c213.9-60,641.6-133.9,991.4-173.9c319.8-34,1553.1-36,1878.9,0c537.7,58,1133.3,183.9,1307.2,273.8c34,16,70,30,81.9,30s20-131.9,20-389.8v-389.8l-91.9-58c-50-32-177.9-86-283.8-119.9c-983.4-315.8-2898.3-319.8-3921.7-10c-205.9,64-351.8,133.9-379.8,185.9c-12,24-20,195.9-20,419.8v379.8l115.9-48C4962.6,1892,5098.5,1848,5200.4,1818z M3773.3,708.7c647.6-70,1227.3-205.9,1405.2-331.8c46-32,46-34,10-74c-78-88-417.8-205.9-815.5-281.9c-889.5-171.9-2196.7-163.9-3108.2,20C865,121,511.2,254.9,531.2,316.9c12,38,195.9,127.9,385.8,189.9c315.8,103.9,789.5,183.9,1287.2,219.9C2510,750.6,3499.4,738.6,3773.3,708.7z M9475.9,274.9l-6-393.8l-66-44C9228-282.8,8688.4-416.7,8110.7-484.6c-415.8-48-1477.1-48-2048.8,2c-223.9,18-409.8,36-413.8,38c-2,4-6,205.9-10,449.7c-6,385.8-2,441.7,24,433.8c16-4,133.9-22,259.8-38c799.5-107.9,1872.9-95.9,2638.4,28c279.8,46,647.6,137.9,781.5,197.9c48,22,99.9,40,113.9,40C9475.9,668.7,9479.9,582.7,9475.9,274.9z M855-292.8c66-20,227.9-60,359.8-85.9c1183.3-241.8,2868.3-185.9,3779.8,123.9l227.9,78v-163.9c0-163.9-2-165.9-68-225.9c-175.9-153.9-829.5-303.8-1579.1-363.8c-333.8-26-1089.4-26-1433.2,0c-613.6,48-1199.3,167.9-1461.1,297.8l-145.9,72l-6,193.9l-6,195.9l105.9-42C687.1-234.8,789-270.8,855-292.8z M9479.9-996.3c0-441.7,10-415.8-185.9-501.7c-389.8-173.9-1075.4-283.8-1906.9-305.8l-465.7-12v46c0,129.9-153.9,317.8-333.8,405.8l-85.9,42v189.9v191.9l513.7-6c555.7-8,971.4,14,1415.2,77.9c327.8,46,733.6,139.9,889.5,207.9c60,26,121.9,48,135.9,48C9473.9-610.6,9479.9-700.5,9479.9-996.3z M5790.1-888.4c269.9-24,315.8-52,199.9-127.9c-177.9-115.9-641.6-235.9-1157.3-301.8c-391.8-52-1419.2-95.9-1385.2-60c6,6,149.9,24,317.8,40c753.5,72,1321.2,215.9,1597.1,405.8c74,50,125.9,74,159.9,70C5550.2-866.4,5670.1-878.4,5790.1-888.4z M1804.4-1598c245.8-66,573.7-121.9,959.4-165.9c429.7-48,1501.1-48,1934.9,0c527.7,60,1041.4,169.9,1279.3,273.8l84,38V-1628c0-205.9-2-209.9-205.9-301.8c-277.8-125.9-849.5-235.9-1451.1-281.8c-417.8-30-1351.2-14-1721,32c-537.7,64-1071.4,195.9-1225.3,297.8c-64,44-64,44-70,235.9l-6,193.9l115.9-48C1562.6-1526,1700.5-1570,1804.4-1598z M9479.9-2055.7c0-147.9-6-171.9-46-209.9c-133.9-125.9-623.6-259.8-1225.3-333.8c-233.9-30-897.5-68-1161.3-70h-125.9v219.9v219.9h355.8c767.6,0,1695,133.9,2064.8,297.8C9479.9-1869.8,9479.9-1869.8,9479.9-2055.7z M6501.6-2475.4c0-193.9-16-219.9-201.9-299.8C5654.1-3063.1,4179-3171,2993.7-3017.1c-467.7,60-951.4,183.9-1119.3,287.8c-66,42-70,48-70,157.9v113.9l215.9-44c547.7-117.9,1315.2-171.9,2190.7-157.9c941.4,16,1657,113.9,2130.8,295.8c71.9,28,135.9,50,145.9,52C6495.7-2311.6,6501.6-2383.5,6501.6-2475.4z M1388.7-2683.3c4-76,6-139.9,2-143.9c-6-10-287.8,78-353.8,112l-60,30l60,32c70,38,263.8,101.9,311.8,101.9C1374.7-2549.4,1382.7-2573.4,1388.7-2683.3z M1166.8-3197c355.8-115.9,833.5-201.9,1477.1-265.8c525.7-52,2106.8-50,2528.5,0c165.9,22,337.8,44,385.8,54c81.9,14,84,14,84-42c0-84-117.9-159.9-377.8-243.9c-881.5-287.8-2572.5-325.8-3649.8-84c-271.8,62-521.7,147.9-609.6,209.9c-60,42-60,44-60,241.8c0,107.9,4,197.9,8,197.9C956.9-3129.1,1052.9-3159.1,1166.8-3197z"/></g></g>
</svg>