<?xml version="1.0" ?><svg id="Outlined" fill="#2F2F2F" viewBox="0 0 32 32" xmlns="http://www.w3.org/2000/svg"><title/><g id="Fill"><path d="M30.89,15.54A17,17,0,0,0,16,6,17,17,0,0,0,1.11,15.54L.87,16l.24.46A17,17,0,0,0,16,26a17,17,0,0,0,14.89-9.54l.24-.46ZM24,16a8,8,0,1,1-8-8A8,8,0,0,1,24,16ZM3.14,16a16.47,16.47,0,0,1,4.14-4.89,10,10,0,0,0,0,9.78A16.47,16.47,0,0,1,3.14,16Zm21.58,4.89a10,10,0,0,0,0-9.78A16.47,16.47,0,0,1,28.86,16,16.47,16.47,0,0,1,24.72,20.89Z"/><path d="M16,20a4,4,0,1,0-4-4A4,4,0,0,0,16,20Zm0-6a2,2,0,1,1-2,2A2,2,0,0,1,16,14Z"/></g></svg>