<svg width="60" height="28" viewBox="0 0 60 28" fill="none" xmlns="http://www.w3.org/2000/svg">
<rect width="60" height="28" fill="white"/>
<path d="M35.2079 6.59375C34.3399 6.59375 33.6119 6.92975 33.1639 7.48975V6.76175H30.4619V13.9998H33.1639V9.93975C33.1639 9.29575 33.5979 8.83375 34.1999 8.83375C34.8439 8.83375 35.2919 9.32375 35.2919 10.0238V13.9998H37.8679V9.39375C37.8679 7.75575 36.7619 6.59375 35.2079 6.59375Z" fill="#1B1D2F"/>
<path d="M16.9485 23.1518C16.2625 23.1518 15.7305 22.7038 15.5205 22.0178H20.6445C20.6445 19.2318 19.2725 17.5938 16.9485 17.5938C14.7085 17.5938 13.1265 19.1478 13.1265 21.3598C13.1265 23.5858 14.7505 25.1678 17.0605 25.1678C18.1665 25.1678 19.3985 24.7058 20.0425 24.0478L18.5585 22.5498C18.0825 22.9278 17.4945 23.1518 16.9485 23.1518ZM16.9485 19.6098C17.5365 19.6098 17.9985 20.0018 18.1945 20.6038H15.5625C15.8005 20.0018 16.3045 19.6098 16.9485 19.6098Z" fill="#1B1D2F"/>
<path d="M16.948 12.1518C16.262 12.1518 15.73 11.7038 15.52 11.0178H20.644C20.644 8.23175 19.272 6.59375 16.948 6.59375C14.708 6.59375 13.126 8.14775 13.126 10.3598C13.126 12.5858 14.75 14.1678 17.06 14.1678C18.166 14.1678 19.398 13.7058 20.042 13.0478L18.558 11.5498C18.082 11.9278 17.494 12.1518 16.948 12.1518ZM16.948 8.60975C17.536 8.60975 17.998 9.00175 18.194 9.60375H15.562C15.8 9.00175 16.304 8.60975 16.948 8.60975Z" fill="#1B1D2F"/>
<path d="M11.76 11.7179C11.62 11.8439 11.354 11.9279 11.102 11.9279C10.738 11.9279 10.486 11.6199 10.486 11.1859V8.88993H11.914V6.76193H10.486V4.77393H7.91V6.76193H7V8.88993H7.91V11.7179C7.91 13.1599 8.918 14.1679 10.36 14.1679C11.004 14.1679 11.774 13.8599 12.222 13.4259L11.76 11.7179Z" fill="#1B1D2F"/>
<path d="M11.76 22.7179C11.62 22.8439 11.354 22.9279 11.102 22.9279C10.738 22.9279 10.486 22.6199 10.486 22.1859V19.8899H11.914V17.7619H10.486V15.7739H7.91V17.7619H7V19.8899H7.91V22.7179C7.91 24.1599 8.918 25.1679 10.36 25.1679C11.004 25.1679 11.774 24.8599 12.222 24.4259L11.76 22.7179Z" fill="#1B1D2F"/>
<path d="M25.448 12.1518C24.762 12.1518 24.23 11.7038 24.02 11.0178H29.144C29.144 8.23175 27.772 6.59375 25.448 6.59375C23.208 6.59375 21.626 8.14775 21.626 10.3598C21.626 12.5858 23.25 14.1678 25.56 14.1678C26.666 14.1678 27.898 13.7058 28.542 13.0478L27.058 11.5498C26.582 11.9278 25.994 12.1518 25.448 12.1518ZM25.448 8.60975C26.036 8.60975 26.498 9.00175 26.694 9.60375H24.062C24.3 9.00175 24.804 8.60975 25.448 8.60975Z" fill="#1B1D2F"/>
<path d="M25.4623 17.5938C24.2443 17.5938 23.1663 17.9438 22.1583 18.4478L22.9843 20.0858C23.5863 19.7778 24.0483 19.5958 24.7343 19.5958C25.5743 19.5958 26.2183 20.0158 26.2183 20.7298V20.7718C25.7003 20.5618 25.1683 20.4498 24.6923 20.4498C22.9423 20.4498 21.5703 21.4438 21.5703 22.8578C21.5703 24.2158 22.8023 25.1678 24.3563 25.1678C25.0423 25.1678 25.7283 24.9298 26.2183 24.4818V24.9998H28.8083V20.7298C28.8083 18.7558 27.2963 17.5938 25.4623 17.5938ZM25.0143 23.5718C24.4963 23.5718 24.1323 23.2498 24.1323 22.7878C24.1323 22.2978 24.5243 21.9478 25.0703 21.9478C25.4903 21.9478 25.9663 22.0458 26.2183 22.1718V22.8578C26.1623 23.2778 25.6583 23.5718 25.0143 23.5718Z" fill="#1B1D2F"/>
<path d="M39.6604 17.5938C38.5964 17.5938 37.7284 18.0558 37.3084 18.7838C36.8184 18.0418 35.9784 17.5938 35.0404 17.5938C34.1864 17.5938 33.5144 17.9998 33.1644 18.6438V17.7618H30.4624V24.9998H33.1644V20.7998C33.1644 20.2398 33.5844 19.8338 34.1864 19.8338C34.7884 19.8338 35.2084 20.2678 35.2084 20.8838V25.0138H37.7844V20.7998C37.7844 20.2398 38.2044 19.8338 38.8064 19.8338C39.4084 19.8338 39.8284 20.2678 39.8284 20.8838V25.0138H42.4044V20.3938C42.4044 18.7558 41.1724 17.5938 39.6604 17.5938Z" fill="#1B1D2F"/>
<path d="M48.5422 17.6107C48.675 17.4071 48.8295 17.1703 48.9818 16.9368C49.3885 16.3134 50.2149 16.1222 50.8541 16.5036V16.5036C51.5305 16.9073 51.7354 17.7926 51.305 18.4523L50.8288 19.1824M48.5422 17.6107C49.4352 18.2245 50.8288 19.1824 50.8288 19.1824M48.5422 17.6107L45.9151 21.6381L45.9568 23.9662L48.299 23.0606L50.8288 19.1824" stroke="#E45757" stroke-width="1.4"/>
</svg>
