<svg width="30" height="25" viewBox="0 0 30 25" fill="none" xmlns="http://www.w3.org/2000/svg">
<path d="M0.529888 11.6503L7.44249 14.0503L10.1181 22.0544C10.2893 22.5671 10.9632 22.7566 11.4105 22.4164L15.2637 19.4944C15.6676 19.1883 16.2429 19.173 16.665 19.458L23.6148 24.1516C24.0933 24.4751 24.7712 24.2312 24.8912 23.6934L29.9823 0.913414C30.1133 0.325895 29.4927 -0.164232 28.8913 0.0521348L0.521788 10.2324C-0.178311 10.4836 -0.172211 11.4056 0.529888 11.6503ZM9.68689 12.7727L23.1967 5.03275C23.4395 4.89405 23.6893 5.19944 23.4808 5.37934L12.3313 15.02C11.9394 15.3594 11.6866 15.8135 11.615 16.3064L11.2352 18.9246C11.1849 19.2741 10.657 19.3088 10.5533 18.9705L9.09259 14.1962C8.92529 13.6517 9.16909 13.07 9.68689 12.7727Z" fill="#274684"/>
</svg>
