<svg width="31" height="25" viewBox="0 0 31 25" fill="none" xmlns="http://www.w3.org/2000/svg">
<path d="M1.26622 11.6503L8.17883 14.0503L10.8544 22.0544C11.0256 22.5671 11.6995 22.7566 12.1468 22.4164L16 19.4944C16.4039 19.1883 16.9792 19.173 17.4013 19.458L24.3511 24.1516C24.8296 24.4751 25.5075 24.2312 25.6275 23.6934L30.7187 0.913414C30.8497 0.325895 30.2291 -0.164232 29.6277 0.0521348L1.25812 10.2324C0.558016 10.4836 0.564116 11.4056 1.26622 11.6503ZM10.4232 12.7727L23.933 5.03275C24.1758 4.89405 24.4256 5.19944 24.2171 5.37934L13.0676 15.02C12.6757 15.3594 12.4229 15.8135 12.3513 16.3064L11.9715 18.9246C11.9212 19.2741 11.3933 19.3088 11.2896 18.9705L9.82893 14.1962C9.66163 13.6517 9.90543 13.07 10.4232 12.7727Z" fill="#F87633"/>
</svg>
