<?xml version="1.0" encoding="utf-8"?>
<!-- Svg Vector Icons : http://www.onlinewebfonts.com/icon -->
<!DOCTYPE svg PUBLIC "-//W3C//DTD SVG 1.1//EN" "http://www.w3.org/Graphics/SVG/1.1/DTD/svg11.dtd">
<svg version="1.1" xmlns="http://www.w3.org/2000/svg" xmlns:xlink="http://www.w3.org/1999/xlink" x="0px" y="0px" fill="#fff" viewBox="0 0 1000 1000" enable-background="new 0 0 1000 1000" xml:space="preserve">
<metadata> Svg Vector Icons : http://www.onlinewebfonts.com/icon </metadata>
<g><g transform="translate(0.000000,511.000000) scale(0.100000,-0.100000)"><path d="M4914.5,4144.8c-31.3-13.7-85.9-56.7-119.1-91.8c-105.5-115.2-1271.5-1550.8-1294.9-1593.8c-29.3-54.7-27.3-160.1,3.9-220.7c13.7-25.4,54.7-68.4,89.8-91.8c58.6-41,89.8-44.9,287.1-44.9h222.7v-742.2V615.5l48.8-46.9l46.9-48.8h802.7h802.7l46.9,48.8l48.8,46.9v742.2v740.2l244.1,7.8c244.1,5.9,244.1,5.9,304.7,66.4c70.3,72.3,97.7,205.1,54.7,283.2c-41,76.2-1324.2,1636.7-1371.1,1668C5066.8,4166.3,4980.9,4176.1,4914.5,4144.8z"/><path d="M2154.7,1305L1523.8,1135L812.9,181.9C420.3-343.5,100-782.9,100-794.7c0-44.9,60.5-111.3,101.6-111.3C268-906,1615.6-460.7,1641-429.4c70.3,84,1187.5,1906.3,1168,1904.3C2795.3,1474.9,2502.3,1396.8,2154.7,1305z"/><path d="M3014.1,1453.4c-23.4-31.2-1105.5-1753.9-1134.8-1808.6c-15.6-29.3-21.5-525.4-21.5-1697.3v-1656.3l44.9-76.2c23.4-43,74.2-95.7,111.3-117.2c68.4-41,78.1-41,2988.3-41c2835.9,0,2921.9,2,2974.6,37.1c127,85.9,121.1-13.7,125,1837.9l5.9,1679.7l-574.2,927.7l-572.3,927.7l-375,5.9l-373,3.9V1301v-173.8l285.1-5.9l285.2-5.9L7096.1,553C7268,244.4,7402.8-15.4,7394.9-23.2C7371.5-46.6,2600-44.7,2600-19.3c0,11.7,134.8,271.5,298.8,578.1l298.8,556.6l296.9,5.9l296.9,5.9V1301v175.8h-378.9C3133.2,1476.8,3029.7,1471,3014.1,1453.4z"/><path d="M7189.9,1471c0-15.6,1134.8-1853.5,1168-1894.5C8389.1-458.7,9727-906,9803.1-906c50.8,0,111.3,84,93.8,128.9c-7.8,19.5-328.1,457-714.8,972.7L8478.9,1137L7857.8,1301c-339.8,89.9-630.9,166-642.6,171.9C7201.6,1476.8,7189.9,1476.8,7189.9,1471z"/></g></g>
</svg>