<svg width="28" height="28" viewBox="0 0 28 28" fill="none" xmlns="http://www.w3.org/2000/svg">
<g clip-path="url(#clip0)">
<path d="M24.0981 16.1526C25.0269 17.0594 26.0072 17.9125 26.8402 18.9108C27.2082 19.3544 27.5566 19.8121 27.8231 20.327C28.2008 21.0588 27.8587 21.8641 27.2025 21.9078L23.1234 21.906C22.0713 21.9932 21.232 21.5697 20.5263 20.8504C19.9616 20.2751 19.4385 19.6629 18.8955 19.0682C18.6729 18.8252 18.4398 18.5965 18.1615 18.4157C17.6047 18.0543 17.1213 18.1649 16.803 18.7457C16.479 19.3364 16.4054 19.9905 16.3736 20.6488C16.3299 21.6093 16.0395 21.8619 15.0747 21.9058C13.0127 22.0031 11.0558 21.6911 9.23779 20.6509C7.63501 19.7339 6.39218 18.4393 5.31035 16.9737C3.20417 14.12 1.59116 10.9841 0.141503 7.76037C-0.184817 7.03407 0.0538391 6.6442 0.85523 6.63036C2.18594 6.6045 3.51649 6.60636 4.84879 6.62851C5.38965 6.63643 5.74769 6.94662 5.95654 7.45757C6.6765 9.22786 7.55746 10.9121 8.66324 12.4733C8.95773 12.8889 9.25802 13.3046 9.68557 13.5971C10.1586 13.921 10.5188 13.8137 10.7413 13.2867C10.8825 12.9526 10.9444 12.5927 10.9762 12.2348C11.0816 11.0037 11.0955 9.77457 10.9106 8.54771C10.7971 7.78203 10.3658 7.28634 9.60179 7.14147C9.21192 7.06759 9.26995 6.92251 9.45873 6.69998C9.78658 6.31618 10.095 6.07726 10.7097 6.07726H15.3198C16.0455 6.22048 16.2067 6.54653 16.306 7.27677L16.31 12.3975C16.3021 12.6802 16.4512 13.5192 16.9604 13.7063C17.3679 13.8395 17.6365 13.5134 17.8811 13.255C18.9849 12.0836 19.7726 10.6991 20.4764 9.26554C20.7887 8.63515 21.0573 7.98054 21.3176 7.32643C21.5104 6.84108 21.813 6.60226 22.3597 6.61281L26.7966 6.61675C26.9282 6.61675 27.0613 6.61866 27.1887 6.64048C27.9363 6.7679 28.1412 7.08952 27.9103 7.8196C27.5465 8.96503 26.8385 9.9196 26.1464 10.8785C25.4064 11.9023 24.615 12.8912 23.8813 13.921C23.2071 14.8617 23.2607 15.3357 24.0981 16.1526Z" fill="#274684"/>
</g>
<defs>
<clipPath id="clip0">
<rect width="28" height="28" fill="white"/>
</clipPath>
</defs>
</svg>
