<svg width="29" height="28" viewBox="0 0 29 28" fill="none" xmlns="http://www.w3.org/2000/svg">
<g clip-path="url(#clip0)">
<path d="M24.596 16.1524C25.5249 17.0593 26.5051 17.9124 27.3382 18.9107C27.7062 19.3543 28.0545 19.812 28.3211 20.3268C28.6988 21.0587 28.3567 21.864 27.7005 21.9077L23.6213 21.9058C22.5693 21.9931 21.73 21.5696 21.0243 20.8503C20.4595 20.275 19.9365 19.6628 19.3935 19.0681C19.1708 18.8251 18.9378 18.5964 18.6594 18.4156C18.1026 18.0541 17.6192 18.1648 17.301 18.7456C16.9769 19.3363 16.9034 19.9904 16.8715 20.6487C16.8278 21.6092 16.5375 21.8618 15.5727 21.9057C13.5107 22.003 11.5537 21.691 9.73574 20.6508C8.13296 19.7338 6.89013 18.4392 5.8083 16.9736C3.70212 14.1199 2.08912 10.984 0.639459 7.76027C0.313138 7.03396 0.551794 6.64409 1.35319 6.63026C2.6839 6.60439 4.01444 6.60625 5.34674 6.6284C5.8876 6.63633 6.24564 6.94652 6.45449 7.45746C7.17445 9.22775 8.05542 10.912 9.1612 12.4732C9.45569 12.8888 9.75598 13.3045 10.1835 13.597C10.6566 13.9209 11.0167 13.8136 11.2393 13.2866C11.3805 12.9525 11.4423 12.5926 11.4742 12.2347C11.5796 11.0036 11.5935 9.77446 11.4086 8.5476C11.2951 7.78192 10.8638 7.28623 10.0997 7.14137C9.70988 7.06748 9.7679 6.9224 9.95668 6.69988C10.2845 6.31608 10.5929 6.07715 11.2077 6.07715H15.8177C16.5435 6.22037 16.7046 6.54642 16.804 7.27666L16.8079 12.3974C16.8 12.6801 16.9491 13.5191 17.4583 13.7062C17.8659 13.8394 18.1345 13.5133 18.3791 13.2549C19.4828 12.0835 20.2706 10.699 20.9744 9.26543C21.2867 8.63505 21.5552 7.98044 21.8155 7.32632C22.0083 6.84097 22.3109 6.60215 22.8576 6.6127L27.2945 6.61664C27.4261 6.61664 27.5592 6.61855 27.6867 6.64038C28.4343 6.7678 28.6392 7.08941 28.4083 7.81949C28.0444 8.96492 27.3365 9.91949 26.6443 10.8784C25.9044 11.9022 25.113 12.891 24.3793 13.9209C23.7051 14.8615 23.7586 15.3356 24.596 16.1524Z" fill="#FFBE4D"/>
</g>
<defs>
<clipPath id="clip0">
<rect x="0.498047" width="28" height="28" fill="white"/>
</clipPath>
</defs>
</svg>
