<svg width="17" height="24" viewBox="0 0 17 24" fill="none" xmlns="http://www.w3.org/2000/svg">
<path d="M0.00186095 15.068C0.00186095 15.2968 0.0914773 16.2562 0.746265 17.3949C1.30061 18.3589 2.35273 19.4863 4.28913 19.7355V22.9545C4.28913 23.3975 4.65196 23.7567 5.09956 23.7567C5.54707 23.7567 5.9099 23.3975 5.9099 22.9545V18.9835C5.9099 18.5406 5.54707 18.1813 5.09956 18.1813C3.76728 18.1813 2.78497 17.6642 2.18012 16.6443C1.73398 15.8922 1.62077 15.2569 1.62077 14.977C1.62077 13.2838 1.62077 8.39436 1.62077 8.39436C1.62077 8.25182 1.62077 7.87291 2.28639 7.87291C2.95184 7.87291 2.95184 8.25174 2.95184 8.39436V11.1578C2.95184 11.3767 3.0421 11.5861 3.20194 11.7374C3.3617 11.8887 3.57681 11.9698 3.79782 11.9592C3.79976 11.9583 4.27152 11.961 4.86804 12.2945C5.78384 12.8065 6.52283 13.8342 7.00501 15.2661C7.14659 15.6865 7.60558 15.9138 8.03014 15.7736C8.45479 15.6334 8.68429 15.1791 8.54271 14.7588C7.49414 11.6447 5.65059 10.7298 4.57277 10.4634V3.04254C4.57277 2.86896 4.57277 2.57836 5.23831 2.57836C5.90376 2.57836 5.90376 2.86896 5.90376 3.04254V7.42033C5.90376 7.86339 6.26667 8.22254 6.71418 8.22254C7.1617 8.22254 7.52453 7.86339 7.52453 7.42033V2.06851C7.52453 1.89494 7.52453 1.60434 8.19006 1.60434C8.85552 1.60434 8.85552 1.89494 8.85552 2.06851V7.42033C8.85552 7.86339 9.21843 8.22254 9.66594 8.22254C10.1135 8.22254 10.4764 7.86339 10.4764 7.42033V3.04254C10.4764 2.86896 10.4764 2.57836 11.1418 2.57836C11.8074 2.57836 11.8074 2.86896 11.8074 3.04254V8.74399C11.8074 9.18697 12.1703 9.5462 12.6178 9.5462C13.0654 9.5462 13.4282 9.18697 13.4282 8.74399V5.74712C13.4282 5.60458 13.4282 5.22568 14.0937 5.22568C14.7593 5.22568 14.7599 5.6045 14.7599 5.74712V15.058C14.7608 15.0722 14.8179 16.5048 13.9584 17.405C13.4666 17.9202 12.7354 18.1813 11.7851 18.1813C11.3375 18.1813 10.9747 18.5406 10.9747 18.9835V22.9545C10.9747 23.3975 11.3375 23.7567 11.7851 23.7567C12.2327 23.7567 12.5955 23.3975 12.5955 22.9545V19.7347C13.6353 19.5978 14.4876 19.1864 15.1363 18.5069C16.4151 17.1675 16.3901 15.2604 16.38 14.9954V5.74712C16.38 4.49554 15.4398 3.62126 14.0937 3.62126C13.8583 3.62126 13.6357 3.64862 13.4281 3.69941V3.04262C13.4281 1.80527 12.5093 0.974105 11.1417 0.974105C10.8196 0.974105 10.5227 1.02074 10.2565 1.10745C9.90699 0.420182 9.1621 0 8.19023 0C7.21827 0 6.47346 0.420182 6.12356 1.10737C5.85738 1.02066 5.56049 0.974025 5.23839 0.974025C3.87079 0.974025 2.95192 1.80527 2.95192 3.04254V6.34664C2.74433 6.29585 2.5217 6.26857 2.28647 6.26857C0.940205 6.26857 2.45701e-06 7.14285 2.45701e-06 8.39444C-7.83511e-05 8.39436 0.00186095 13.3371 0.00186095 15.068Z" fill="#2F2F2F"/>
</svg>
