<svg width="45" height="45" viewBox="0 0 45 45" fill="none" xmlns="http://www.w3.org/2000/svg">
<g clip-path="url(#clip0)">
<path d="M32.3037 44.9998C33.4225 44.9998 34.3293 44.0929 34.3293 42.9741V25.6614C34.3293 24.5427 33.4225 23.6357 32.3037 23.6357C31.1849 23.6357 30.2781 24.5426 30.2781 25.6614V42.9741C30.2781 44.0929 31.1849 44.9998 32.3037 44.9998Z" fill="#695A6E"/>
<path d="M37.1936 44.9998C38.3123 44.9998 39.2192 44.0929 39.2192 42.9741V25.6614C39.2192 24.5427 38.3123 23.6357 37.1936 23.6357C36.0748 23.6357 35.168 24.5426 35.168 25.6614V42.9741C35.1681 44.0929 36.0749 44.9998 37.1936 44.9998Z" fill="#50374B"/>
<path d="M21.9423 0.0954686C22.8219 -0.212852 23.7853 0.250244 24.0937 1.13003L26.439 7.82062L31.6628 10.607C33.1517 10.607 37.4 10.607 39.2979 10.607C41.5238 10.607 43.3438 12.39 43.3548 14.5901V26.9912C43.3548 27.9235 42.5991 28.6793 41.6668 28.6793C40.7346 28.6793 39.9788 27.9235 39.9788 26.9912L39.9789 14.5987C39.9772 14.2764 39.6527 13.9832 39.2979 13.9832H39.2192V26.7837H30.2782V13.6947L24.2693 10.4896C23.8958 10.2903 23.6107 9.95811 23.4707 9.55856L20.9078 2.24677C20.5994 1.36707 21.0625 0.403877 21.9423 0.0954686Z" fill="#BA6746"/>
<path d="M27.9761 8.64062L31.6626 10.607H32.9425C32.9056 11.5582 33.7889 12.3666 34.711 12.3666C35.6993 12.3666 36.4316 11.5612 36.4786 10.607H39.2977C41.5236 10.607 43.3435 12.39 43.3546 14.5901V18.2262H39.9786V14.5986C39.977 14.2764 39.6525 13.9831 39.2977 13.9831H39.219V26.7837H30.2781V13.6947L26.3 11.5728L27.9761 8.64062Z" fill="#FF3C3C"/>
<path d="M34.7484 9.49191C36.6805 9.49191 38.2468 7.92563 38.2468 5.99352C38.2468 4.0614 36.6805 2.49512 34.7484 2.49512C32.8163 2.49512 31.25 4.0614 31.25 5.99352C31.25 7.92563 32.8163 9.49191 34.7484 9.49191Z" fill="#BA6746"/>
<path d="M12.6963 44.9998C11.5775 44.9998 10.6707 44.0929 10.6707 42.9741V25.6614C10.6707 24.5427 11.5775 23.6357 12.6963 23.6357C13.815 23.6357 14.7219 24.5426 14.7219 25.6614V42.9741C14.7219 44.0929 13.815 44.9998 12.6963 44.9998Z" fill="#343E6B"/>
<path d="M7.80638 44.9998C6.68762 44.9998 5.78076 44.0929 5.78076 42.9741V25.6614C5.78076 24.5427 6.68762 23.6357 7.80638 23.6357C8.92514 23.6357 9.83199 24.5426 9.83199 25.6614V42.9741C9.8319 44.0929 8.92505 44.9998 7.80638 44.9998Z" fill="#414B82"/>
<path d="M23.0578 0.0954686C22.1782 -0.212852 21.2148 0.250244 20.9064 1.13003L18.5611 7.82062L13.3373 10.607C11.8484 10.607 7.60012 10.607 5.70221 10.607C3.47629 10.607 1.65634 12.39 1.64526 14.5901V26.9912C1.64526 27.9235 2.40104 28.6793 3.33329 28.6793C4.26555 28.6793 5.02132 27.9235 5.02132 26.9912L5.02123 14.5987C5.0229 14.2764 5.34739 13.9832 5.70221 13.9832H5.78087V26.7837H14.7219V13.6947L20.7308 10.4896C21.1043 10.2903 21.3894 9.95811 21.5294 9.55856L24.0924 2.24677C24.4008 1.36707 23.9376 0.403877 23.0578 0.0954686Z" fill="#FFB69E"/>
<path d="M17.0238 8.64062L13.3374 10.607H12.0575C12.0944 11.5582 11.2111 12.3666 10.289 12.3666C9.30062 12.3666 8.56841 11.5612 8.52139 10.607H5.70221C3.47629 10.607 1.65634 12.39 1.64526 14.5901V18.2262H5.02123V14.5986C5.0229 14.2764 5.34739 13.9831 5.70221 13.9831H5.78087V26.7837H14.7219V13.6947L18.6999 11.5728L17.0238 8.64062Z" fill="#64AFFF"/>
<path d="M10.2516 9.49191C12.1837 9.49191 13.75 7.92563 13.75 5.99352C13.75 4.0614 12.1837 2.49512 10.2516 2.49512C8.31946 2.49512 6.75317 4.0614 6.75317 5.99352C6.75317 7.92563 8.31946 9.49191 10.2516 9.49191Z" fill="#FFB69E"/>
</g>
<defs>
<clipPath id="clip0">
<rect width="45" height="45" fill="white"/>
</clipPath>
</defs>
</svg>
