<svg width="35" height="43" viewBox="0 0 35 43" fill="none" xmlns="http://www.w3.org/2000/svg">
<path d="M28.6473 16.1222C28.6473 18.9885 31.0437 21.3123 34 21.3123V10.2677C34 6.13214 30.5425 2.77979 26.2777 2.77979H25L28.6473 16.1222Z" fill="#C10000"/>
<path d="M16.7579 0L15 15.7527C19.3036 15.7527 26.7409 14.199 28 12.328V10.5056C28 4.70362 22.9667 0 16.7579 0Z" fill="#FF4C04"/>
<path d="M17 0C10.925 0 6 4.70362 6 10.5056V11.7762C7.23166 13.3238 13.1328 15.7527 17 15.7527V0Z" fill="#FF9100"/>
<path d="M35 32.637C35 27.9179 30.7469 24.0923 25.5004 24.0923H15L16.8402 42.6248H26.7796L28.1587 41.7972L29.5377 42.6248H35V32.637Z" fill="#005FE1"/>
<path d="M8.893 24.0923C3.98139 24.0923 0 27.9179 0 32.637V42.6248H5.11365L6.40458 41.7972L7.69552 42.6248H17V24.0923H8.893Z" fill="#0FA9DD"/>
<path d="M16.7647 32.4319C19.656 32.4319 22 30.3643 22 27.8133V24.0923H15L16.7647 32.4319Z" fill="#FAA68E"/>
<path d="M12 27.8132C12 30.3639 14.2385 32.4319 17 32.4319V24.0923H12V27.8132Z" fill="#FFCDBE"/>
<path d="M23.8281 14.2397C21.2893 14.5078 18.8466 14.0203 16.7579 12.9727L15 18.8835L16.7579 26.8721C22.9667 26.8721 28 22.2061 28 16.4505V13.0649C26.734 13.673 25.3291 14.0814 23.8281 14.2397Z" fill="#FFCDBE"/>
<path d="M12.3674 8.33984C10.7843 10.2322 8.5751 11.6379 6 12.2402V16.2492C6 22.1161 10.9246 26.8724 17 26.8724V12.7041C15.0788 11.7008 13.4638 10.1926 12.3674 8.33984Z" fill="#FFEEE5"/>
<path d="M5 35.2119H8V42.6249H5V35.2119Z" fill="#005FE1"/>
<path d="M27 35.2119H29V42.6249H27V35.2119Z" fill="#00429D"/>
</svg>
