<svg width="80" height="80" viewBox="0 0 80 80" fill="none" xmlns="http://www.w3.org/2000/svg">
<g clip-path="url(#clip0)">
<path d="M40 80C61.1422 80 78.2812 62.8609 78.2812 41.7188C78.2812 20.5766 61.1422 3.4375 40 3.4375C18.8578 3.4375 1.71875 20.5766 1.71875 41.7188C1.71875 62.8609 18.8578 80 40 80Z" fill="#1A2B63"/>
<path d="M33.8727 59.2072C35.8492 59.2072 37.6701 60.2013 38.7437 61.8666C38.7701 61.9077 38.8145 61.9341 38.8633 61.9377C38.8672 61.938 38.8712 61.9382 38.8751 61.9382C38.9198 61.9382 38.9625 61.9191 38.9922 61.8854C40.6016 60.0649 42.9153 59.0208 45.3401 59.0208C46.1664 59.0208 46.9645 59.1418 47.72 59.3635L44.9316 52.2158H35.065L32.2461 59.4414C32.7625 59.2899 33.308 59.2072 33.8727 59.2072Z" fill="#D9EAFC"/>
<path d="M36.3512 52.2158H35.065L32.2461 59.4414C32.6848 59.3129 33.1455 59.2374 33.6202 59.2164L36.3512 52.2158Z" fill="#AEC1ED"/>
<path d="M30.8713 66.5935C30.8775 66.6348 30.8998 66.6718 30.9334 66.6965C30.9603 66.7163 30.9928 66.7268 31.0258 66.7268C31.0339 66.7268 31.0422 66.7262 31.0503 66.7249C31.6081 66.6362 32.1683 66.5912 32.7152 66.5912C35.3869 66.5912 37.9355 67.5951 39.8919 69.4179C39.9219 69.4459 39.9602 69.4598 39.9984 69.4598C40.0367 69.4598 40.075 69.4459 40.105 69.4179C42.0613 67.5951 44.61 66.5912 47.2817 66.5912C47.8285 66.5912 48.3888 66.6362 48.9466 66.7249C48.9549 66.7262 48.963 66.7268 48.9711 66.7268C49.0041 66.7268 49.0366 66.7163 49.0634 66.6965C49.097 66.6718 49.1194 66.6348 49.1256 66.5935C49.4144 64.6501 50.1458 62.8095 51.2431 61.203C49.6997 59.7543 47.6245 58.8652 45.3403 58.8652C42.7658 58.8652 40.4561 59.9943 38.8753 61.7826C37.8166 60.1402 35.9725 59.0516 33.873 59.0516C31.8591 59.0516 30.0803 60.0534 29.0039 61.5848C29.9617 63.0987 30.6052 64.8021 30.8713 66.5935Z" fill="#AEC1ED"/>
<path d="M31.0272 66.5699C30.0869 60.2402 24.6311 55.3838 18.0398 55.3838C13.4641 55.3838 9.43656 57.725 7.08594 61.2739C10.685 67.3188 15.9023 72.2857 22.1397 75.5819C22.8067 70.9622 26.4284 67.3005 31.0272 66.5699Z" fill="#445EA0"/>
<path d="M19.3511 56.9983C22.6998 56.9983 25.7695 58.1861 28.1675 60.1603C25.7592 57.2439 22.1177 55.3838 18.0398 55.3838C13.4641 55.3838 9.43656 57.725 7.08594 61.2739C7.39641 61.7953 7.71984 62.3083 8.05406 62.8133C10.5727 59.2936 14.6928 56.9983 19.3511 56.9983Z" fill="#293D7C"/>
<path d="M61.96 55.3838C55.3687 55.3838 49.913 60.2404 48.9727 66.5699C53.5714 67.3005 57.1931 70.9622 57.8602 75.5819C64.0973 72.2857 69.3148 67.3186 72.9139 61.2739C70.5633 57.725 66.5358 55.3838 61.96 55.3838Z" fill="#445EA0"/>
<path d="M62.7544 55.4082C62.4916 55.3925 62.2269 55.3838 61.96 55.3838C55.3687 55.3838 49.913 60.2404 48.9727 66.5699C49.4627 66.6477 49.9408 66.7608 50.4061 66.9028C51.7127 60.9218 56.6258 56.2903 62.7544 55.4082Z" fill="#293D7C"/>
<path d="M47.2842 66.4346C44.4692 66.4346 41.91 67.5246 40.0011 69.3032C38.0922 67.5244 35.533 66.4346 32.718 66.4346C27.3375 66.4346 22.8867 70.4105 22.1406 75.5843C27.4731 78.4025 33.55 80.0007 40.0011 80.0007C46.4522 80.0007 52.5291 78.4025 57.8616 75.5843C57.1155 70.4105 52.6647 66.4346 47.2842 66.4346Z" fill="#293D7C"/>
<path d="M34.9522 67.7633C36.4264 67.7633 37.8333 68.05 39.1209 68.5699C37.3361 67.231 35.1209 66.4346 32.718 66.4346C27.3375 66.4346 22.8867 70.4105 22.1406 75.5843C22.7692 75.9164 23.4084 76.2311 24.057 76.5286C25.1519 71.5169 29.6119 67.7633 34.9522 67.7633Z" fill="#1A2B63"/>
<path d="M43.5186 52.2168H41.1562L41.4577 54.6013C41.5388 55.2435 42.1259 55.6977 42.7672 55.617C43.4092 55.5357 43.8641 54.9495 43.7828 54.3074L43.5186 52.2168Z" fill="#AEC1ED"/>
<path d="M36.4806 52.216L35.8609 57.1191C35.7798 57.7611 36.2345 58.3475 36.8767 58.4286C36.9266 58.4349 36.9761 58.438 37.0251 58.438C37.6069 58.4379 38.1116 58.005 38.1864 57.4129L38.8433 52.2158H36.4806V52.216Z" fill="#AEC1ED"/>
<path d="M27.9856 30.58C27.9856 29.3058 28.0334 28.035 28.1228 26.7734C24.3634 28.8905 21.7734 33.6067 21.7734 39.0669C21.7734 41.9506 22.4905 44.7008 23.8469 47.02C23.9742 47.2378 24.2047 47.3624 24.4441 47.3624C24.5316 47.3624 24.6202 47.3458 24.7053 47.311C26.488 46.5822 28.393 46.2078 30.3684 46.1922C28.8086 41.391 27.9856 36.0291 27.9856 30.58Z" fill="#FE3745"/>
<path d="M23.545 39.0669C23.545 34.557 25.313 30.5564 28.0462 28.107C28.0672 27.6616 28.0914 27.2169 28.1228 26.7734C24.3634 28.8905 21.7734 33.6067 21.7734 39.0669C21.7734 41.9506 22.4905 44.7008 23.8469 47.02C23.9742 47.2378 24.2047 47.3624 24.4441 47.3624C24.5316 47.3624 24.6202 47.3458 24.7053 47.311C24.9991 47.1908 25.2975 47.0839 25.5977 46.9831C24.255 44.6716 23.545 41.9355 23.545 39.0669Z" fill="#B7092B"/>
<path d="M51.8786 26.7734C51.968 28.0352 52.0158 29.3059 52.0158 30.58C52.0158 36.0289 51.1928 41.3908 49.6328 46.1922C51.6084 46.2078 53.5133 46.5822 55.2959 47.311C55.3811 47.3458 55.4698 47.3624 55.5572 47.3624C55.7967 47.3624 56.027 47.2377 56.1544 47.02C57.5109 44.7008 58.2278 41.9506 58.2278 39.0669C58.228 33.6067 55.638 28.8905 51.8786 26.7734Z" fill="#FE3745"/>
<path d="M34.0195 47.9883V51.5905C34.0195 52.0202 34.3711 52.3717 34.8008 52.3717H45.2044C45.634 52.3717 45.9856 52.0202 45.9856 51.5905V47.9883H34.0195Z" fill="#FE3745"/>
<path d="M36.6769 51.5905V47.9883H34.0195V51.5905C34.0195 52.0202 34.3711 52.3717 34.8008 52.3717H37.4581C37.0284 52.3717 36.6769 52.0202 36.6769 51.5905Z" fill="#B7092B"/>
<path d="M49.5072 14.1123H30.4902C28.7473 19.1362 27.8281 24.7909 27.8281 30.5809C27.8281 36.6 28.8264 42.5164 30.7148 47.6903C30.8145 47.9631 31.0739 48.1446 31.3644 48.1446H48.633C48.9234 48.1446 49.183 47.9631 49.2825 47.6903C51.1709 42.5164 52.1692 36.6 52.1692 30.5809C52.1694 24.7909 51.2502 19.1364 49.5072 14.1123Z" fill="#EEF6FF"/>
<path d="M32.9292 47.6903C31.0406 42.5164 30.0425 36.6 30.0425 30.5809C30.0425 24.7909 30.9617 19.1362 32.7045 14.1123H30.4902C28.7473 19.1362 27.8281 24.7909 27.8281 30.5809C27.8281 36.6 28.8264 42.5164 30.7148 47.6903C30.8145 47.9631 31.0739 48.1446 31.3644 48.1446H33.5788C33.2883 48.1446 33.0289 47.9631 32.9292 47.6903Z" fill="#D9EAFC"/>
<path d="M35.4961 14.1123V16.7051C35.4961 17.1348 35.8477 17.4864 36.2773 17.4864H43.7214C44.1511 17.4864 44.5026 17.1348 44.5026 16.7051V14.1123H35.4961Z" fill="#EA2A3D"/>
<path d="M37.2677 16.7051V14.1123H35.4961V16.7051C35.4961 17.1348 35.8477 17.4864 36.2773 17.4864H38.0489C37.6192 17.4864 37.2677 17.1348 37.2677 16.7051Z" fill="#B7092B"/>
<path d="M40.0003 0C39.8461 0 39.692 0.0514062 39.5652 0.154062C36.0748 2.98047 33.1348 7.26797 31.0634 12.5531C30.8431 13.1155 30.6361 13.6889 30.4375 14.2684H49.563C49.3644 13.6889 49.1573 13.1155 48.937 12.5531C46.8656 7.26797 43.9258 2.98047 40.4353 0.154062C40.3086 0.0514062 40.1545 0 40.0003 0Z" fill="#FE3745"/>
<path d="M41.1075 0.723125C40.8858 0.527656 40.6619 0.3375 40.4355 0.154062C40.3086 0.0514062 40.1545 0 40.0003 0C39.8461 0 39.692 0.0514062 39.5652 0.154062C36.0748 2.98047 33.1348 7.26797 31.0634 12.5531C30.8431 13.1155 30.6361 13.6889 30.4375 14.2684H32.6519C32.8505 13.6889 33.0575 13.1155 33.2778 12.5531C35.215 7.61078 37.9116 3.54172 41.1075 0.723125Z" fill="#B7092B"/>
<path d="M39.9992 36.2416C44.402 36.2416 47.9711 32.6725 47.9711 28.2697C47.9711 23.867 44.402 20.2979 39.9992 20.2979C35.5965 20.2979 32.0273 23.867 32.0273 28.2697C32.0273 32.6725 35.5965 36.2416 39.9992 36.2416Z" fill="#445EA0"/>
<path d="M40.0009 33.3847C42.8255 33.3847 45.1152 31.095 45.1152 28.2705C45.1152 25.446 42.8255 23.1562 40.0009 23.1562C37.1764 23.1562 34.8867 25.446 34.8867 28.2705C34.8867 31.095 37.1764 33.3847 40.0009 33.3847Z" fill="#69CDFF"/>
<path d="M36.7616 28.2705C36.7616 30.7747 38.5617 32.8572 40.9384 33.2977C40.6344 33.3539 40.3214 33.3848 40.0009 33.3848C37.1762 33.3848 34.8867 31.095 34.8867 28.2705C34.8867 25.4459 37.1764 23.1562 40.0009 23.1562C40.3212 23.1562 40.6344 23.1872 40.9384 23.2434C38.5617 23.6839 36.7616 25.7663 36.7616 28.2705Z" fill="#52BBEF"/>
<path d="M17.2067 27.9284C17.0275 27.9284 16.8659 27.8204 16.7973 27.6548C15.925 25.5487 15.2819 24.9057 13.1758 24.0334C13.0102 23.9648 12.9023 23.8032 12.9023 23.624C12.9023 23.4448 13.0103 23.2832 13.1758 23.2147C15.282 22.342 15.925 21.6989 16.7973 19.5929C16.8659 19.4273 17.0275 19.3193 17.2067 19.3193C17.3859 19.3193 17.5475 19.4273 17.6161 19.5929C18.4886 21.6989 19.1317 22.342 21.2378 23.2147C21.4034 23.2832 21.5114 23.4448 21.5114 23.624C21.5114 23.8032 21.4034 23.965 21.2378 24.0334C19.1317 24.9056 18.4886 25.5487 17.6161 27.6548C17.5475 27.8204 17.3859 27.9284 17.2067 27.9284Z" fill="#FFD00D"/>
<path d="M17.6831 26.7689C16.8108 24.6629 16.1677 24.0199 14.0616 23.1475C13.9575 23.1046 13.8764 23.0246 13.8303 22.9268C13.6281 23.0214 13.4125 23.1164 13.1758 23.2146C13.0102 23.2832 12.9023 23.4447 12.9023 23.6239C12.9023 23.8032 13.0103 23.9649 13.1758 24.0333C15.2819 24.9057 15.925 25.5486 16.7973 27.6547C16.8659 27.8204 17.0275 27.9283 17.2067 27.9283C17.3859 27.9283 17.5475 27.8204 17.6161 27.6547C17.7141 27.418 17.8092 27.2024 17.9038 27.0004C17.8061 26.9543 17.7263 26.873 17.6831 26.7689Z" fill="#FFAF10"/>
<path d="M64.2914 31.4695C64.1339 31.4695 63.9919 31.3747 63.9316 31.2291C63.1648 29.3778 62.5995 28.8127 60.7483 28.0459C60.6028 27.9858 60.5078 27.8436 60.5078 27.6861C60.5078 27.5284 60.6027 27.3866 60.7483 27.3262C62.5997 26.5592 63.1648 25.9939 63.9316 24.1428C63.9919 23.9972 64.1339 23.9023 64.2914 23.9023C64.4489 23.9023 64.5909 23.9972 64.6513 24.1428C65.4181 25.9941 65.9834 26.5592 67.8348 27.3262C67.9803 27.3866 68.0752 27.5284 68.0752 27.6861C68.0752 27.8436 67.9803 27.9856 67.8347 28.0459C65.9834 28.8127 65.4181 29.3778 64.6513 31.2291C64.5911 31.3745 64.4491 31.4695 64.2914 31.4695Z" fill="white"/>
<path d="M64.7103 30.4506C63.9434 28.5993 63.3783 28.0342 61.5269 27.2673C61.4355 27.2295 61.3641 27.1593 61.3236 27.0732C61.1459 27.1564 60.9563 27.24 60.7483 27.3262C60.6028 27.3865 60.5078 27.5284 60.5078 27.6861C60.5078 27.8436 60.6027 27.9856 60.7483 28.0459C62.5997 28.8126 63.1648 29.3778 63.9316 31.229C63.9919 31.3746 64.1339 31.4695 64.2914 31.4695C64.4489 31.4695 64.5909 31.3746 64.6512 31.229C64.7373 31.0211 64.8209 30.8314 64.9042 30.6537C64.8184 30.6134 64.7483 30.542 64.7103 30.4506Z" fill="#D9EAFC"/>
<path d="M60.2289 15.0117C60.0453 15.0117 59.8798 14.9011 59.8095 14.7315C58.9161 12.5743 58.2575 11.9157 56.1003 11.0225C55.9308 10.9523 55.8203 10.7867 55.8203 10.6032C55.8203 10.4195 55.9309 10.2542 56.1003 10.1839C58.2577 9.29012 58.9163 8.63152 59.8095 6.47465C59.8798 6.30496 60.0453 6.19434 60.2289 6.19434C60.4125 6.19434 60.578 6.30496 60.6483 6.47465C61.5419 8.63168 62.2005 9.29027 64.3577 10.1839C64.5272 10.2542 64.6377 10.4195 64.6377 10.6032C64.6377 10.7867 64.527 10.9523 64.3575 11.0225C62.2003 11.9157 61.5419 12.5745 60.6481 14.7315C60.578 14.9011 60.4125 15.0117 60.2289 15.0117Z" fill="#FF9518"/>
<path d="M60.717 13.8238C59.8234 11.6668 59.1648 11.0082 57.0077 10.1148C56.9011 10.0707 56.8181 9.98883 56.7708 9.88867C56.5639 9.9857 56.3428 10.083 56.1003 10.1834C55.9308 10.2537 55.8203 10.419 55.8203 10.6027C55.8203 10.7862 55.9309 10.9518 56.1003 11.022C58.2575 11.9154 58.9163 12.574 59.8095 14.731C59.8798 14.9006 60.0453 15.0112 60.2289 15.0112C60.4125 15.0112 60.578 14.9006 60.6483 14.731C60.7488 14.4885 60.8461 14.2676 60.943 14.0607C60.8428 14.0135 60.7611 13.9304 60.717 13.8238Z" fill="#EF8318"/>
</g>
<defs>
<clipPath id="clip0">
<rect width="80" height="80" fill="white"/>
</clipPath>
</defs>
</svg>
