<svg width="80" height="55" viewBox="0 13 80 55" fill="none" xmlns="http://www.w3.org/2000/svg">
<g clip-path="url(#clip0)">
<path opacity="0.7" d="M51.8104 23.809C55.3759 30.6667 52.6748 39.0998 45.7769 42.6447C38.879 46.1897 30.3967 43.5041 26.8308 36.6464C23.2648 29.7887 25.9668 21.3556 32.8645 17.8109C39.7622 14.2661 48.2449 16.9511 51.8104 23.809Z" fill="#C7F0FF"/>
<path d="M48.0724 44.2047L45.7305 45.4082L47.402 48.6233L49.744 47.4198L48.0724 44.2047Z" fill="#EDEDED"/>
<path d="M53.8194 22.7775C49.6808 14.8176 39.8351 11.7005 31.8288 15.8151C23.8224 19.9298 20.687 29.7181 24.8258 37.6779C28.9646 45.6377 38.8099 48.755 46.8165 44.6403C54.823 40.5257 57.9583 30.7378 53.8194 22.7775ZM45.7788 42.6447C38.8813 46.1896 30.3987 43.5041 26.8327 36.6464C23.2667 29.7887 25.9687 21.3557 32.8664 17.8109C39.7642 14.2661 48.2468 16.9511 51.8123 23.809C55.3779 30.6669 52.6767 39.0998 45.7788 42.6447Z" fill="#F87633"/>
<g style="mix-blend-mode:multiply">
<path d="M46.769 41.2922C39.871 44.8371 31.3886 42.1514 27.8229 35.294C25.4266 30.6849 25.8644 25.3666 28.5009 21.2969C25.006 25.4852 24.1589 31.5082 26.8304 36.6468C30.3964 43.5045 38.879 46.19 45.7765 42.6451C47.9578 41.5273 49.8049 39.8585 51.1323 37.8065C49.9284 39.2484 48.4444 40.4339 46.769 41.2922Z" fill="#9EB8C7"/>
</g>
<path d="M49.6921 45.4116L45.7891 47.4174L44.1172 44.2024L48.0205 42.1963L49.6921 45.4116Z" fill="#EC6821"/>
<path d="M58.677 62.6961C60.1529 65.5349 56.1621 67.372 54.774 64.702C52.9344 61.1647 46.4492 48.6923 46.4492 48.6923L50.3525 46.6865C50.3525 46.6865 57.0799 59.6247 58.677 62.6961Z" fill="#1C3661"/>
</g>
<defs>
<clipPath id="clip0">
<rect x="23" y="14" width="36" height="52" fill="white"/>
</clipPath>
</defs>
</svg>
