<svg width="80" height="55" viewBox="0 13 80 55" fill="none" xmlns="http://www.w3.org/2000/svg">
<g clip-path="url(#clip0)">
<path d="M23.9453 35.5176C23.9448 32.9919 24.6188 30.5056 25.907 28.2821C27.1952 26.0586 29.0571 24.1675 31.3256 22.7787C33.594 21.3899 36.1979 20.5468 38.9033 20.3253C41.6086 20.1039 44.3308 20.5108 46.8253 21.5097C49.3197 22.5086 51.5083 24.0681 53.1944 26.0481C54.8805 28.0281 56.0113 30.3666 56.4852 32.8536C56.9592 35.3406 56.7614 37.8981 55.9096 40.2964C55.0579 42.6947 53.5789 44.8586 51.6055 46.5939C49.8546 48.1433 48.4618 50.0084 47.5121 52.0753C46.5625 54.1422 46.076 56.3675 46.0824 58.6151V59.1301H34.5993V58.6167C34.5784 56.3398 34.0652 54.0901 33.0903 52.0015C32.1154 49.9128 30.6986 48.0279 28.9243 46.4589C27.3469 45.0396 26.093 43.3393 25.2376 41.4595C24.3821 39.5797 23.9426 37.5589 23.9453 35.5176Z" fill="#FFD235"/>
<path d="M31.9498 22.4219C29.1912 26.5147 28.1824 31.4205 29.1226 36.1711C29.3263 37.2454 29.6846 38.2894 30.1878 39.2748C30.8543 40.481 31.7541 41.5627 32.8421 42.4656C34.4685 43.856 36.397 44.9055 38.4971 45.5431C40.5973 46.1806 42.8202 46.3914 45.0154 46.161C47.2107 45.9307 49.3272 45.2646 51.2219 44.208C53.1165 43.1513 54.745 41.7286 55.9974 40.036C55.1633 42.5368 53.6507 44.7957 51.6053 46.595C49.8544 48.1444 48.4616 50.0095 47.5119 52.0764C46.5623 54.1433 46.0758 56.3686 46.0822 58.6162V59.1312H34.5991V58.6178C34.5782 56.3409 34.065 54.0912 33.0901 52.0026C32.1151 49.9139 30.6984 48.029 28.9241 46.46C27.1177 44.8306 25.739 42.8362 24.8949 40.6315C24.0508 38.4267 23.7639 36.0708 24.0565 33.7464C24.349 31.4219 25.2132 29.1913 26.5821 27.2274C27.9509 25.2636 29.7876 23.6193 31.9498 22.4219Z" fill="#F7AC37"/>
<path d="M44.0441 26.6982C43.5044 26.2707 43.1144 25.7029 42.9244 25.0677C42.6987 23.8711 43.9829 22.7853 45.2851 22.6944C46.5873 22.6035 47.8208 23.2273 48.8843 23.9324C50.2172 24.8163 51.422 25.8565 52.4688 27.0271C53.0788 27.7099 53.6594 28.6373 53.2415 29.4356C52.8937 30.0988 52.001 30.3404 51.2072 30.3532C49.7962 30.3359 48.4201 29.9433 47.2414 29.2218C46.0709 28.5025 44.9975 27.6553 44.0441 26.6982Z" fill="#FFF262"/>
<path d="M38.8633 23.1033C38.7289 22.7426 38.7528 22.3471 38.93 22.0027C39.8262 20.0959 43.5235 21.552 42.4772 23.4162C41.6952 24.8091 39.3454 24.335 38.8633 23.1033Z" fill="#FFF262"/>
<path d="M50.3133 26.1743C50.6946 26.5477 51.0684 27.0182 50.9845 27.5274C50.9699 27.641 50.9204 27.7483 50.8419 27.8364C50.7451 27.9256 50.624 27.9886 50.4916 28.0186C50.1555 28.0955 49.806 28.1079 49.4646 28.0549C49.1232 28.0019 48.797 27.8846 48.5059 27.7104C47.9263 27.3589 47.4013 26.935 46.9457 26.4506C46.7142 26.249 46.5197 26.0136 46.3697 25.7537C46.2962 25.6228 46.2578 25.4773 46.2578 25.3296C46.2578 25.182 46.2962 25.0365 46.3697 24.9055C46.7148 24.7746 47.085 24.7106 47.4577 24.7173C47.8303 24.724 48.1976 24.8013 48.537 24.9445C49.2138 25.2363 49.8186 25.655 50.3133 26.1743Z" fill="#FFF59D"/>
<path d="M47.2937 42.497C47.5035 42.1517 48.0258 42.4545 47.8542 42.8017C45.478 47.6061 44.6352 52.4465 44.558 57.7058C44.553 57.8137 44.5033 57.9156 44.4195 57.9904C44.3356 58.0651 44.224 58.1068 44.1078 58.1068C43.9917 58.1068 43.88 58.0651 43.7962 57.9904C43.7123 57.9156 43.6627 57.8137 43.6577 57.7058C43.0351 52.5046 44.5643 47.0303 47.2937 42.497Z" fill="#FFF59D"/>
<path d="M33.5242 42.497C33.3145 42.1517 32.7921 42.4545 32.9637 42.8017C35.34 47.6061 36.1828 52.4465 36.2604 57.7058C36.264 57.8146 36.313 57.9178 36.3969 57.9935C36.4809 58.0693 36.5933 58.1117 36.7104 58.1117C36.8274 58.1117 36.9398 58.0693 37.0238 57.9935C37.1078 57.9178 37.1567 57.8146 37.1603 57.7058C37.7833 52.5046 36.2537 47.0303 33.5242 42.497Z" fill="#FFF59D"/>
<path d="M40.3403 68.0002C41.8378 68.0002 43.0518 66.8713 43.0518 65.4786C43.0518 64.086 41.8378 62.957 40.3403 62.957C38.8429 62.957 37.6289 64.086 37.6289 65.4786C37.6289 66.8713 38.8429 68.0002 40.3403 68.0002Z" fill="#374D58"/>
<path d="M43.046 65.5176C43.0384 66.0167 42.8715 66.5025 42.5664 66.9133C42.2613 67.324 41.8319 67.6412 41.3326 67.8245C40.8333 68.0078 40.2866 68.0489 39.7621 67.9428C39.2376 67.8366 38.7589 67.5878 38.3867 67.228C38.5524 67.2616 38.7208 67.2828 38.8902 67.2912C39.4849 67.3011 40.0772 67.219 40.643 67.0482C41.3922 66.843 42.2053 66.4762 42.4205 65.7778L43.046 65.5176Z" fill="#455E6A"/>
<path d="M44.2929 56.6982H36.3827C35.3256 56.6982 34.4688 57.4951 34.4688 58.4782V64.2923C34.4688 65.2753 35.3256 66.0722 36.3827 66.0722H44.2929C45.35 66.0722 46.2068 65.2753 46.2068 64.2923V58.4782C46.2068 57.4951 45.35 56.6982 44.2929 56.6982Z" fill="#22343D"/>
<path d="M39.8711 61.2374C41.1473 62.8501 42.4236 64.4617 43.7001 66.0723H36.3827C35.8751 66.0723 35.3884 65.8848 35.0295 65.5511C34.6706 65.2174 34.4689 64.7647 34.4688 64.2927V58.4794C34.4693 58.0513 34.6363 57.6378 34.9388 57.3152C35.2413 56.9925 35.6591 56.7824 36.115 56.7236C37.4357 58.1754 38.6574 59.7052 39.8711 61.2374Z" fill="#1A2C34"/>
<path d="M34.9153 58.5674H45.7602C46.0309 58.5674 46.2905 58.6674 46.4819 58.8454C46.6733 59.0234 46.7809 59.2649 46.7809 59.5166C46.7809 59.7684 46.6733 60.0098 46.4819 60.1879C46.2905 60.3659 46.0309 60.4659 45.7602 60.4659H34.9153C34.6445 60.4659 34.3849 60.3659 34.1935 60.1879C34.0021 60.0098 33.8945 59.7684 33.8945 59.5166C33.8945 59.2649 34.0021 59.0234 34.1935 58.8454C34.3849 58.6674 34.6445 58.5674 34.9153 58.5674Z" fill="#374D58"/>
<path d="M39.5195 58.5676H45.7597C45.8954 58.565 46.0304 58.5877 46.1566 58.6342C46.2828 58.6808 46.3978 58.7503 46.4948 58.8386C46.5917 58.927 46.6688 59.0325 46.7214 59.1489C46.774 59.2654 46.8011 59.3904 46.8011 59.5166C46.8011 59.6429 46.774 59.7679 46.7214 59.8843C46.6688 60.0008 46.5917 60.1063 46.4948 60.1946C46.3978 60.283 46.2828 60.3525 46.1566 60.3991C46.0304 60.4456 45.8954 60.4683 45.7597 60.4657H42.0426C41.201 59.8336 40.3703 59.1852 39.5195 58.5676Z" fill="#455E6A"/>
<path d="M34.9153 62.0088H45.7602C46.0309 62.0088 46.2905 62.1088 46.4819 62.2868C46.6733 62.4648 46.7809 62.7063 46.7809 62.9581C46.7809 63.2098 46.6733 63.4513 46.4819 63.6293C46.2905 63.8073 46.0309 63.9073 45.7602 63.9073H34.9153C34.6445 63.9073 34.3849 63.8073 34.1935 63.6293C34.0021 63.4513 33.8945 63.2098 33.8945 62.9581C33.8945 62.7063 34.0021 62.4648 34.1935 62.2868C34.3849 62.1088 34.6445 62.0088 34.9153 62.0088Z" fill="#374D58"/>
<path d="M39.5195 62.0088H45.7596C46.0304 62.0088 46.29 62.1088 46.4814 62.2868C46.6728 62.4648 46.7804 62.7063 46.7804 62.9581C46.7804 63.2098 46.6728 63.4513 46.4814 63.6293C46.29 63.8073 46.0304 63.9073 45.7596 63.9073H42.0426C41.201 63.2753 40.3703 62.6284 39.5195 62.0088Z" fill="#455E6A"/>
<path d="M39.8891 23.1295C39.8266 23.0509 39.7816 22.9615 39.7569 22.8665C39.7253 22.7378 39.727 22.6039 39.7618 22.4759C39.7966 22.3478 39.8636 22.2293 39.9573 22.13C40.0509 22.0308 40.1685 21.9536 40.3005 21.9048C40.4325 21.856 40.575 21.837 40.7164 21.8494C41.3331 21.9017 42.1046 22.8743 41.4661 23.3351C41.2222 23.4878 40.9263 23.5513 40.6352 23.5133C40.3441 23.4754 40.0783 23.3387 39.8891 23.1295Z" fill="#FFF59D"/>
<path d="M34.4837 42.4251C35.3907 42.5509 36.317 42.4705 37.1834 42.191C38.1455 42.9357 39.3543 43.3491 40.6059 43.3615C42.0013 43.3506 43.4021 43.0353 44.3331 42.138C44.8493 42.1743 45.3682 42.1613 45.8816 42.0989C45.9261 42.0989 45.9687 42.0825 46.0002 42.0532C46.0317 42.024 46.0494 41.9843 46.0494 41.9429C46.0494 41.9015 46.0317 41.8618 46.0002 41.8325C45.9687 41.8033 45.9261 41.7868 45.8816 41.7868C45.484 41.7898 45.0866 41.7717 44.6913 41.7326C44.8104 41.5734 44.9145 41.405 45.0026 41.2293C45.5661 40.0978 44.7333 38.9898 43.5628 38.7229C42.5559 38.4931 41.5327 39.6312 41.8884 40.5258C42.0055 40.8531 42.2012 41.1512 42.4608 41.3976C42.7205 41.6439 43.0371 41.8318 43.3866 41.9472C43.2803 42.0278 43.1842 42.1195 43.1001 42.2203C42.0149 42.7169 40.7749 42.8373 39.6028 42.5597C38.9963 42.3995 38.4152 42.1653 37.8748 41.8633C38.1821 41.6708 38.4439 41.422 38.6442 41.1321C38.8445 40.8422 38.9789 40.5174 39.0394 40.1774C39.2618 39.0807 37.9302 38.1127 36.8478 38.3897C35.6169 38.7045 35.4671 40.3616 36.1312 41.1852C36.272 41.3594 36.4237 41.5258 36.5856 41.6834C36.3695 41.7025 36.1094 41.7115 35.8027 41.71C35.3617 41.7165 34.9215 41.7448 34.4837 41.7946C34.4009 41.804 34.3247 41.8413 34.2694 41.8993C34.2141 41.9574 34.1836 42.0323 34.1836 42.1099C34.1836 42.1874 34.2141 42.2623 34.2694 42.3204C34.3247 42.3785 34.4009 42.4157 34.4837 42.4251Z" fill="#FFF59D"/>
<path d="M37.3311 39.2147C37.4613 39.2327 37.5851 39.2791 37.6923 39.35C37.7996 39.421 37.8873 39.5146 37.9482 39.6232C38.0359 39.7691 38.0879 40.0793 37.8857 40.162C37.8708 40.17 37.8538 40.1743 37.8366 40.1743C37.8194 40.1743 37.8024 40.17 37.7875 40.162C37.6973 40.0972 37.6906 40.027 37.6444 39.9322C37.6149 39.8714 37.572 39.8169 37.5187 39.7722C37.4653 39.7276 37.4026 39.6937 37.3344 39.6727C37.0407 39.5767 36.8511 39.9068 36.7244 40.0894C36.7066 40.1164 36.6807 40.138 36.6499 40.1517C36.6191 40.1653 36.5848 40.1704 36.551 40.1662C36.5172 40.1621 36.4854 40.149 36.4594 40.1284C36.4335 40.1079 36.4145 40.0808 36.4047 40.0504C36.2621 39.5623 36.844 39.1558 37.3311 39.2147Z" fill="#FFD235"/>
<path d="M43.6493 39.542C43.7791 39.5603 43.9025 39.6068 44.0094 39.6778C44.1162 39.7488 44.2036 39.8422 44.2643 39.9505C44.3516 40.0964 44.4036 40.4066 44.2014 40.4893C44.1865 40.4973 44.1695 40.5016 44.1523 40.5016C44.1351 40.5016 44.1181 40.4973 44.1032 40.4893C44.013 40.4249 44.0067 40.3543 43.9602 40.2595C43.9305 40.1987 43.8877 40.1443 43.8345 40.0997C43.7812 40.055 43.7186 40.0211 43.6505 40C43.3569 39.904 43.1668 40.2341 43.0401 40.4167C43.0223 40.4437 42.9964 40.4653 42.9656 40.479C42.9348 40.4926 42.9005 40.4976 42.8667 40.4935C42.8329 40.4894 42.8011 40.4763 42.7751 40.4557C42.7492 40.4352 42.7302 40.4081 42.7204 40.3777C42.5803 39.8896 43.1618 39.4823 43.6493 39.542Z" fill="#FFD235"/>
<path d="M57.61 47.1201C58.3937 47.1252 59.0657 47.8224 59.63 48.2687C60.3113 48.8087 61.1684 49.3663 61.4189 50.2055C61.453 50.3301 61.4517 50.4608 61.4151 50.5847C61.3785 50.7087 61.3078 50.8217 61.2101 50.9126C61.1123 51.0035 60.9908 51.0692 60.8576 51.1032C60.7243 51.1373 60.5837 51.1385 60.4498 51.1068C59.6187 50.925 59.0154 50.225 58.4595 49.6659C57.9112 49.1142 57.0528 48.4697 57.0117 47.6761C57.0126 47.5288 57.0759 47.3878 57.1879 47.2837C57.3 47.1796 57.4516 47.1208 57.61 47.1201Z" fill="#FFD235"/>
<path d="M61.2717 36.6184C61.7664 36.1311 62.6382 36.1912 63.3119 36.1377C64.1909 36.0679 65.0853 35.9836 65.7972 36.5341C65.8683 36.6023 65.9219 36.6846 65.9541 36.7747C65.9862 36.8648 65.9962 36.9605 65.9832 37.0547C65.9702 37.1489 65.9345 37.2391 65.8789 37.3187C65.8232 37.3983 65.749 37.4653 65.6617 37.5146C64.9943 37.9906 64.091 37.8103 63.3124 37.7456C62.6478 37.6902 61.7387 37.6999 61.2722 37.2071C61.1903 37.1281 61.1446 37.0226 61.1445 36.9128C61.1445 36.8031 61.19 36.6976 61.2717 36.6184Z" fill="#FFD235"/>
<path d="M59.6791 27.114C59.9396 26.466 60.5517 26.0739 61.1273 25.6704C61.8862 25.1383 62.5655 24.695 63.5321 24.6194C64.1152 24.5733 64.312 25.2709 63.9759 25.6158C63.433 26.099 62.7909 26.4753 62.088 26.7223C61.4168 27.0239 60.7522 27.4636 59.9904 27.4921C59.9409 27.4921 59.892 27.4814 59.8477 27.4611C59.8033 27.4407 59.7645 27.411 59.7344 27.3745C59.7043 27.3379 59.6837 27.2954 59.6741 27.2503C59.6645 27.2051 59.6662 27.1585 59.6791 27.114Z" fill="#FFD235"/>
<path d="M51.1707 16.8663C51.5766 16.2799 52.1044 15.7748 52.723 15.3805C52.8209 15.329 52.9329 15.3055 53.0451 15.3128C53.1573 15.3202 53.2647 15.3581 53.3539 15.4219C53.4431 15.4856 53.5101 15.5724 53.5466 15.6713C53.5831 15.7703 53.5874 15.877 53.5591 15.9783C53.2957 16.6305 52.8952 17.2273 52.381 17.734C51.9225 18.1866 51.4253 18.7827 50.7684 18.9712C50.7099 18.9858 50.6485 18.9877 50.5891 18.9769C50.5297 18.966 50.4737 18.9426 50.4255 18.9084C50.3774 18.8743 50.3382 18.8303 50.3112 18.7799C50.2841 18.7295 50.2699 18.674 50.2695 18.6177C50.3094 17.9743 50.8036 17.3926 51.1707 16.8663Z" fill="#FFD235"/>
<path d="M23.3887 47.1201C22.605 47.1252 21.9329 47.8224 21.3687 48.2687C20.6873 48.8087 19.8302 49.3663 19.5794 50.2055C19.5452 50.3301 19.5465 50.4609 19.5832 50.5849C19.6198 50.7089 19.6905 50.8219 19.7883 50.9128C19.8861 51.0037 20.0076 51.0694 20.141 51.1034C20.2743 51.1374 20.4149 51.1386 20.5489 51.1068C21.38 50.925 21.9833 50.225 22.5387 49.6659C23.0875 49.1142 23.9454 48.4697 23.987 47.6761C23.9861 47.5288 23.9227 47.3878 23.8107 47.2837C23.6987 47.1796 23.5471 47.1208 23.3887 47.1201Z" fill="#FFD235"/>
<path d="M19.7247 36.6184C19.2305 36.1311 18.3587 36.1912 17.6849 36.1377C16.806 36.0679 15.9116 35.9836 15.1992 36.5341C15.1282 36.6023 15.0747 36.6845 15.0425 36.7746C15.0103 36.8647 15.0004 36.9604 15.0133 37.0546C15.0263 37.1487 15.0619 37.2389 15.1174 37.3186C15.173 37.3982 15.2471 37.4652 15.3343 37.5146C16.0018 37.9906 16.9046 37.8103 17.6837 37.7456C18.3482 37.6902 19.2573 37.6999 19.7234 37.2071C19.8055 37.1282 19.8514 37.0228 19.8517 36.913C19.8519 36.8032 19.8064 36.6976 19.7247 36.6184Z" fill="#FFD235"/>
<path d="M21.3162 27.1135C21.0557 26.4654 20.4436 26.0733 19.868 25.6699C19.1078 25.1392 18.4298 24.6976 17.4628 24.6203C16.8801 24.5743 16.6833 25.2719 17.0194 25.6168C17.5623 26.0999 18.2044 26.4762 18.9073 26.7233C19.5785 27.0249 20.2435 27.4646 21.007 27.4931C21.0565 27.4928 21.1053 27.482 21.1496 27.4613C21.1939 27.4407 21.2324 27.4109 21.2623 27.3742C21.2922 27.3375 21.3126 27.2949 21.322 27.2497C21.3313 27.2045 21.3293 27.1579 21.3162 27.1135Z" fill="#FFD235"/>
<path d="M29.8246 16.8654C29.4187 16.279 28.891 15.7739 28.2723 15.3797C28.1744 15.3281 28.0624 15.3045 27.9502 15.3119C27.8379 15.3192 27.7305 15.3571 27.6414 15.4209C27.5522 15.4847 27.4852 15.5715 27.4488 15.6705C27.4124 15.7694 27.4081 15.8762 27.4366 15.9774C27.7 16.6296 28.1005 17.2265 28.6147 17.7332C29.0732 18.1857 29.5703 18.7819 30.2273 18.9703C30.2858 18.9849 30.3471 18.9868 30.4065 18.9759C30.4659 18.965 30.5218 18.9415 30.57 18.9074C30.6182 18.8733 30.6573 18.8294 30.6843 18.779C30.7114 18.7286 30.7257 18.6732 30.7262 18.6169C30.6859 17.9735 30.1917 17.3918 29.8246 16.8654Z" fill="#FFD235"/>
<path d="M39.0243 11.1774C39.0994 11.1101 39.1898 11.0593 39.2888 11.0288C39.3878 10.9984 39.4929 10.989 39.5963 11.0014C39.6997 11.0138 39.7988 11.0477 39.8863 11.1005C39.9738 11.1533 40.0474 11.2237 40.1016 11.3065C40.543 12.0587 40.1138 12.9904 39.9758 13.7864C39.9338 14.0205 39.9917 15.4914 39.357 15.3037C38.6702 15.1004 38.658 14.1039 38.5758 13.548C38.4613 12.7852 38.317 11.7224 39.0243 11.1774Z" fill="#FFD235"/>
</g>
<defs>
<clipPath id="clip0">
<rect x="15" y="11" width="51" height="57" fill="white"/>
</clipPath>
</defs>
</svg>
