<svg width="80" height="80" viewBox="0 0 80 80" fill="none" xmlns="http://www.w3.org/2000/svg">
<g clip-path="url(#clip0)">
<path d="M47.6622 64.465L30.0182 46.8209C28.9122 45.715 28.911 43.926 30.0145 42.8225C30.4509 42.3861 30.996 42.1218 31.563 42.0327C32.4266 41.8929 33.3452 42.1572 34.0136 42.8255L29.4701 38.2827C28.9177 37.7297 28.64 37.0065 28.6406 36.2838C28.6406 36.1337 28.6528 35.9823 28.6766 35.8315C28.7676 35.2639 29.0306 34.7201 29.467 34.2837C29.8992 33.8515 30.4344 33.5897 30.9935 33.4969C31.7552 33.37 32.5573 33.5555 33.1969 34.0542L31.4678 32.3251C30.9154 31.7727 30.6377 31.0464 30.6377 30.3237C30.6371 30.1705 30.6499 30.0155 30.6755 29.8641C30.7659 29.3008 31.0289 28.7594 31.4635 28.3248C31.8999 27.8884 32.4443 27.6247 33.0138 27.535C33.8774 27.3959 34.796 27.6601 35.4644 28.3285L37.4443 30.3085C36.7766 29.6407 36.5117 28.7215 36.6509 27.8579C36.7406 27.2909 37.0031 26.7471 37.4407 26.3094C38.5436 25.2071 40.3344 25.2077 41.4397 26.3131L52.9058 37.7798L52.9381 37.734C53.5192 37.1529 54.204 36.7397 54.9346 36.4931C56.7382 35.8858 58.8127 36.3009 60.2513 37.7395L65.598 43.0862C66.6259 44.114 67.202 45.5062 67.2045 46.9576L67.2075 50.3024C67.2087 51.8655 67.8307 53.3651 68.9379 54.4723L70.1305 55.6643L56.4934 69.3008L54.97 67.7773C53.9568 66.7641 52.6091 66.1538 51.1803 66.0604C49.8528 65.9731 48.6034 65.4067 47.6622 64.465Z" fill="#FECBAA"/>
<path d="M55.6053 70.1858L71.0833 54.7079C71.5935 54.1976 72.4205 54.1976 72.9302 54.7079L78.4429 60.22C78.9525 60.7302 78.9525 61.5566 78.4429 62.0669L62.9644 77.5454C62.4541 78.0551 61.6277 78.0551 61.1174 77.5454L55.6053 72.0327C55.0951 71.5231 55.0951 70.696 55.6053 70.1858Z" fill="#FDD559"/>
<path d="M32.3354 64.4662L49.9795 46.8222C51.0854 45.7162 51.0861 43.9273 49.9825 42.8238C49.5461 42.3868 49.0011 42.1231 48.4347 42.0334C47.5704 41.8942 46.6525 42.1585 45.9835 42.8268L50.527 38.2834C51.0793 37.731 51.3571 37.0071 51.3564 36.2845C51.3564 36.1343 51.3448 35.983 51.3204 35.8328C51.2295 35.2652 50.9664 34.7214 50.53 34.285C50.0985 33.8528 49.5626 33.591 49.0035 33.4982C48.2418 33.3713 47.4398 33.5568 46.8002 34.0549L48.5293 32.3257C49.0817 31.7734 49.3594 31.0477 49.3594 30.325C49.36 30.1712 49.3472 30.0168 49.3215 29.8654C49.2312 29.302 48.9681 28.7601 48.5336 28.3261C48.0972 27.8897 47.5527 27.6254 46.9839 27.5363C46.1196 27.3971 45.2017 27.6608 44.5327 28.3291L42.5527 30.3091C43.2205 29.642 43.4854 28.7228 43.3462 27.8586C43.2571 27.2922 42.994 26.7483 42.5564 26.3107C41.4535 25.2078 39.6627 25.209 38.558 26.3138L27.0913 37.7804L27.059 37.7353C26.4779 37.1542 25.7931 36.741 25.0625 36.4944C23.2595 35.8865 21.1843 36.3022 19.7457 37.7408L14.3997 43.0875C13.3718 44.1153 12.795 45.5075 12.7932 46.9589L12.7896 50.3036C12.7889 51.8674 12.167 53.3664 11.0598 54.4736L9.86719 55.6656L23.5037 69.302L25.0277 67.7786C26.0409 66.7654 27.3885 66.1551 28.8174 66.0617C30.1443 65.9744 31.3937 65.4074 32.3354 64.4662Z" fill="#FECBAA"/>
<path d="M24.3922 70.1874L8.91373 54.7089C8.40347 54.1986 7.57645 54.1986 7.0668 54.7089L1.55411 60.2216C1.04446 60.7312 1.04446 61.5582 1.55411 62.0685L17.0326 77.5464C17.5429 78.0566 18.3693 78.0566 18.8795 77.5464L24.3922 72.0343C24.9019 71.524 24.9019 70.697 24.3922 70.1874Z" fill="#FF84A7"/>
<path d="M51.2841 22.1809V47.1333C51.2841 48.6976 50.02 49.9629 48.4587 49.9629C47.8417 49.9629 47.2698 49.7645 46.8053 49.427C46.0961 48.9143 45.6334 48.0787 45.6334 47.1333V53.5585C45.6334 54.3397 45.3179 55.0477 44.807 55.5586C44.7008 55.6648 44.5854 55.7631 44.4615 55.8522C43.9958 56.1897 43.4258 56.3881 42.8087 56.3881C42.1978 56.3881 41.6338 56.1946 41.1724 55.865C40.5443 55.4164 40.1085 54.7181 40.0084 53.9131V56.3588C40.0084 57.14 39.691 57.8492 39.1802 58.3601C39.0728 58.4694 38.9537 58.5695 38.8286 58.6586C38.366 58.993 37.7977 59.1902 37.1831 59.1902C36.566 59.1902 35.9941 58.9912 35.5284 58.6525C34.8192 58.1398 34.3566 57.3042 34.3566 56.3588V53.5585C34.3566 54.5021 33.8939 55.3401 33.1847 55.8522C32.7208 56.1897 32.1501 56.3881 31.5319 56.3881C29.9724 56.3881 28.7065 55.121 28.7065 53.5585V37.342L28.6516 37.3518C27.8301 37.3518 27.0531 37.1595 26.3628 36.8171C24.6581 35.9718 23.4844 34.2109 23.4844 32.1766V24.6156C23.4844 23.1624 24.0612 21.7701 25.0859 20.7417L27.4486 18.3748C28.5533 17.2682 29.1735 15.7679 29.1735 14.2024V12.5166H48.4587V14.6711C48.4587 16.1042 48.9806 17.4885 49.9242 18.5652C50.8013 19.5649 51.2841 20.8497 51.2841 22.1809Z" fill="#FEDFC5"/>
<path d="M49.9814 42.8238C49.545 42.3868 49 42.1231 48.4336 42.0334C47.5693 41.8942 46.6514 42.1585 45.983 42.8268L50.5265 38.2834C51.0789 37.731 51.356 37.0071 51.356 36.2845C51.356 36.1343 51.3438 35.983 51.3193 35.8328C51.229 35.2646 50.9659 34.7214 50.5295 34.285C50.0974 33.8528 49.5615 33.591 49.0024 33.4982C48.2413 33.3713 47.4393 33.5568 46.7997 34.0549L48.5288 32.3257C49.0812 31.7734 49.3583 31.0477 49.3583 30.325C49.3595 30.1712 49.3461 30.0168 49.3204 29.8654C49.2301 29.3021 48.967 28.7601 48.5331 28.3261C48.0967 27.8897 47.5516 27.6254 46.9828 27.5363C46.1185 27.3971 45.2006 27.6608 44.5322 28.3291L42.5522 30.3091C43.2194 29.642 43.4849 28.7228 43.3451 27.8586C43.256 27.2922 42.9929 26.7483 42.5553 26.3107C41.4524 25.2078 39.6616 25.209 38.5569 26.3138L27.0902 37.7804L27.0579 37.7353C26.4768 37.1542 25.792 36.741 25.0614 36.4944C24.1965 36.2027 23.2688 36.1496 22.3789 36.329C23.0961 37.4124 24.0977 38.3108 25.3196 38.9169C25.6583 39.0848 26.0056 39.2258 26.3596 39.3399V53.558C26.3596 56.4108 28.6783 58.7314 31.5287 58.7314C31.8711 58.7314 32.2092 58.6984 32.5382 58.6331C32.9062 59.3851 33.4543 60.0467 34.1459 60.5466C34.575 60.8591 35.0431 61.0983 35.5356 61.2643L49.9778 46.8216C51.0844 45.7162 51.0856 43.9273 49.9814 42.8238Z" fill="#FFAE85"/>
<path d="M53.6245 47.1331V37.1545C53.3822 37.3241 53.1509 37.5176 52.9342 37.7343L52.9025 37.7795L41.4358 26.3128C40.3311 25.2081 38.5397 25.2068 37.4374 26.3097C36.9998 26.7474 36.7367 27.2906 36.647 27.8576C36.5078 28.7218 36.7733 29.641 37.4404 30.3082L35.4604 28.3282C34.7921 27.6598 33.8741 27.3962 33.0099 27.5353C32.441 27.6244 31.896 27.8887 31.4596 28.3251C31.0256 28.7591 30.7626 29.3011 30.6716 29.8644C30.6466 30.0158 30.6332 30.1702 30.6344 30.324C30.6344 31.0467 30.9115 31.7724 31.4645 32.3248L33.1936 34.0539C32.5533 33.5558 31.7513 33.3703 30.9902 33.4972C30.4312 33.59 29.8953 33.8519 29.4631 34.284C29.0267 34.7204 28.7637 35.2636 28.6733 35.8318C28.6489 35.982 28.6367 36.1334 28.6367 36.2835C28.6367 37.0062 28.9138 37.73 29.4662 38.2824L34.0096 42.8259C33.3413 42.1575 32.4233 41.8932 31.5591 42.0324C30.9927 42.1221 30.4476 42.3858 30.0112 42.8222C28.9077 43.9263 28.9089 45.7153 30.0149 46.8212L41.835 58.6413C42.1523 58.7017 42.4771 58.7322 42.806 58.7322C43.901 58.7322 44.9484 58.3929 45.8297 57.7538C46.0549 57.5915 46.2673 57.4102 46.4614 57.2161C47.4374 56.2408 47.9745 54.942 47.9745 53.5589V52.2851C48.1338 52.2997 48.2943 52.3071 48.4561 52.3071C51.3058 52.3065 53.6245 49.9859 53.6245 47.1331Z" fill="#FFAE85"/>
<path d="M51.2841 22.1809V47.1333C51.2841 48.6976 50.02 49.9629 48.4587 49.9629C48.4166 49.9629 48.3715 49.9629 48.3257 49.9598C47.7617 49.9336 47.2386 49.7413 46.809 49.4288C46.8071 49.4288 46.8071 49.427 46.8053 49.427C46.0961 48.9143 45.6334 48.0787 45.6334 47.1333V53.5585C45.6334 54.3397 45.3179 55.0477 44.807 55.5586C44.7008 55.6648 44.5854 55.7631 44.4615 55.8522C43.9958 56.1897 43.4258 56.3881 42.8087 56.3881C42.1978 56.3881 41.6338 56.1946 41.1724 55.865C40.5443 55.4164 40.1085 54.7181 40.0084 53.9131V56.3588C40.0084 57.14 39.691 57.8492 39.1802 58.3601C39.0728 58.4694 38.9537 58.5695 38.8286 58.6586C38.366 58.993 37.7977 59.1902 37.1831 59.1902C36.566 59.1902 35.9941 58.9912 35.5284 58.6525C34.8192 58.1398 34.3566 57.3042 34.3566 56.3588V53.5585C34.3566 54.5021 33.8939 55.3401 33.1847 55.8522C32.7208 56.1897 32.1501 56.3881 31.5319 56.3881C29.9724 56.3881 28.7065 55.121 28.7065 53.5585V37.342L28.6516 37.3518C27.8301 37.3518 27.0531 37.1595 26.3628 36.8171C24.6581 35.9718 23.4844 34.2109 23.4844 32.1766V24.6156C23.4844 23.1624 24.0612 21.7701 25.0859 20.7417L27.4486 18.3748C28.1316 17.6899 28.6302 16.8556 28.9098 15.9462C29.085 15.384 29.1735 14.7914 29.1735 14.2024V12.5166H48.4587V14.6711C48.4587 15.1539 48.51 15.6636 48.6449 16.1293C48.8695 17.0247 49.3071 17.8602 49.9242 18.5652C50.7933 19.5576 51.2841 20.8589 51.2841 22.1809Z" fill="#FEDFC5"/>
<path d="M51.2844 22.1809V47.1333C51.2844 48.6976 50.0204 49.9629 48.4591 49.9629C48.417 49.9629 48.3718 49.9629 48.326 49.9598C47.7621 49.9336 47.239 49.7413 46.8093 49.4288L46.8575 25.384C46.8575 25.2388 46.8246 25.0093 46.7635 24.7169C45.6857 19.4655 41.2527 15.9462 35.8914 15.9462H28.9102C29.0853 15.384 29.1738 14.7914 29.1738 14.2024V12.5166H48.4591V14.6711C48.4591 15.1539 48.5104 15.6636 48.6453 16.1293C48.8699 17.0247 49.3075 17.8602 49.9246 18.5652C50.7937 19.5576 51.2844 20.8589 51.2844 22.1809Z" fill="#FECBAA"/>
<path d="M49.7114 12.5171H27.8212C27.1003 12.5171 26.5156 11.9324 26.5156 11.2109V3.41553C26.5156 2.69409 27.1003 2.10938 27.8212 2.10938H49.7114C50.4323 2.10938 51.017 2.69409 51.017 3.41553V11.2109C51.017 11.9324 50.4323 12.5171 49.7114 12.5171Z" fill="#83D9FF"/>
<path d="M32.8682 70.92L32.6332 72.0681L32.8596 70.9188C32.2248 70.7937 31.6084 71.2069 31.4833 71.8417C31.3582 72.477 31.7714 73.0929 32.4067 73.218C32.4086 73.2186 32.4263 73.2217 32.4281 73.2223C32.5026 73.2363 32.5764 73.2437 32.6497 73.2437C33.2008 73.2437 33.6921 72.853 33.7989 72.2915C33.921 71.6555 33.5041 71.0415 32.8682 70.92Z" fill="black"/>
<path d="M41.8289 71.2965L41.9455 72.4623L41.8253 71.2971C41.1813 71.3631 40.7132 71.9386 40.7797 72.5825C40.8414 73.1856 41.3504 73.6348 41.9437 73.6348C41.984 73.6348 42.0249 73.6323 42.0651 73.6287L42.0975 73.625C42.7384 73.5499 43.1931 72.9719 43.1217 72.3311C43.0496 71.6908 42.4698 71.2294 41.8289 71.2965Z" fill="black"/>
<path d="M37.3422 71.4442C37.3422 71.4442 37.3257 71.4436 37.3251 71.4436C36.6794 71.4143 36.1398 71.916 36.1105 72.5624C36.0818 73.2087 36.5897 73.7562 37.236 73.7855C37.2543 73.7867 37.272 73.7867 37.2903 73.7867C37.9129 73.7867 38.4317 73.2966 38.4598 72.668C38.4891 72.0216 37.9892 71.4735 37.3422 71.4442Z" fill="black"/>
<path d="M28.5398 69.7287L28.5252 69.7232C27.9161 69.5047 27.252 69.8233 27.0335 70.4324C26.8144 71.0416 27.1379 71.7154 27.747 71.9345C27.8782 71.9815 28.0119 72.0035 28.1431 72.0035C28.6235 72.0035 29.0745 71.7062 29.246 71.2277C29.4651 70.6186 29.149 69.9472 28.5398 69.7287Z" fill="black"/>
<path d="M46.251 70.4757L46.5396 71.6115L46.2473 70.4769C45.6205 70.638 45.2433 71.2771 45.4044 71.9039C45.5405 72.4324 46.0166 72.784 46.5384 72.784C46.6355 72.784 46.7337 72.7718 46.832 72.7462C46.8369 72.7449 46.8576 72.7395 46.8631 72.7382C47.4851 72.5686 47.8489 71.9295 47.6828 71.3063C47.5168 70.6838 46.8753 70.3133 46.251 70.4757Z" fill="black"/>
<path d="M50.4892 68.9981L50.9537 70.0735L50.4856 68.9993C49.8923 69.2581 49.6207 69.9484 49.8789 70.5416C50.0711 70.9829 50.502 71.246 50.9543 71.246C51.1099 71.246 51.2692 71.2142 51.4212 71.1483C51.4261 71.1459 51.445 71.1379 51.4499 71.1355C52.0377 70.87 52.2971 70.1815 52.0346 69.5925C51.7722 69.0029 51.08 68.7387 50.4892 68.9981Z" fill="black"/>
<path d="M24.0633 15.5788C24.2513 15.5788 24.4424 15.5336 24.6188 15.4396C25.19 15.1351 25.4055 14.4252 25.1009 13.8539C24.7964 13.2833 24.0871 13.0666 23.5159 13.3718L23.5018 13.3791C22.9311 13.6837 22.7218 14.3898 23.0263 14.9611C23.2363 15.3554 23.644 15.5788 24.0633 15.5788Z" fill="black"/>
<path d="M10.5066 28.6666C10.6806 28.7575 10.8667 28.8009 11.0504 28.8009C11.4722 28.8009 11.8799 28.5726 12.0893 28.1728L12.11 28.1319C12.3956 27.5509 12.1564 26.8484 11.5753 26.5633C10.9986 26.2789 10.3015 26.5133 10.0122 27.0864C9.71315 27.6589 9.9341 28.3663 10.5066 28.6666Z" fill="black"/>
<path d="M8.85534 33.0755C8.97985 33.1176 9.10619 33.1377 9.23131 33.1377C9.7196 33.1377 10.1755 32.8295 10.3409 32.3412L10.3562 32.2948C10.5466 31.6765 10.1993 31.0204 9.58044 30.8306C8.96703 30.6414 8.31579 30.982 8.11986 31.5923C7.91418 32.2045 8.24315 32.8686 8.85534 33.0755Z" fill="black"/>
<path d="M12.8223 24.5667C13.0305 24.7181 13.2715 24.7913 13.5108 24.7913C13.8727 24.7913 14.2304 24.6235 14.4593 24.3085L14.4745 24.2878C14.8505 23.7617 14.7278 23.0317 14.2029 22.6557C13.6774 22.2791 12.945 22.4 12.5678 22.9249L13.512 23.6194L12.5641 22.9297C12.1833 23.4534 12.2993 24.1865 12.8223 24.5667Z" fill="black"/>
<path d="M20.0863 18.1088C20.3323 18.1088 20.5801 18.0313 20.7919 17.8702C21.3143 17.4881 21.4273 16.7551 21.0452 16.2326C20.6625 15.7101 19.9295 15.5972 19.4076 15.9793L19.3783 16.0007C18.8632 16.3919 18.7606 17.1286 19.1519 17.6443C19.3826 17.9483 19.7323 18.1088 20.0863 18.1088Z" fill="black"/>
<path d="M7.81076 50.8475C7.96579 51.3511 8.42843 51.6739 8.92892 51.6739C9.04305 51.6739 9.15963 51.6568 9.27438 51.6214C9.88961 51.4328 10.2369 50.781 10.0526 50.1645C9.87618 49.5493 9.23837 49.188 8.61764 49.357C7.99325 49.5273 7.62521 50.1719 7.7955 50.7963C7.79916 50.8085 7.80709 50.8353 7.81076 50.8475Z" fill="black"/>
<path d="M16.5431 21.1973C16.8477 21.1973 17.1523 21.0795 17.3824 20.8452C17.8395 20.3874 17.8395 19.6452 17.3824 19.1881C16.9246 18.7303 16.1824 18.7303 15.7246 19.1881L15.7051 19.2076C15.2522 19.6696 15.2614 20.4106 15.7234 20.8635C15.9511 21.0869 16.2471 21.1973 16.5431 21.1973Z" fill="black"/>
<path d="M9.10777 45.7386C9.02538 45.102 8.44371 44.6504 7.8065 44.7261C7.16442 44.803 6.70543 45.3858 6.78173 46.0285L6.78844 46.0755C6.87389 46.6578 7.37377 47.0753 7.94566 47.0753C8.00182 47.0753 8.05919 47.071 8.11717 47.0625C8.75499 46.9697 9.19749 46.3764 9.10777 45.7386Z" fill="black"/>
<path d="M7.63689 42.3824C7.6491 42.3824 7.6607 42.3831 7.67229 42.3831C8.3034 42.3831 8.82464 41.8807 8.84295 41.2454L8.84417 41.1953C8.84417 40.5477 8.31927 40.0234 7.67229 40.0234C7.02959 40.0234 6.50835 40.5398 6.50042 41.1801C6.48333 41.8258 6.99175 42.3635 7.63689 42.3824Z" fill="black"/>
<path d="M7.89135 37.6831C7.96154 37.6953 8.03051 37.7014 8.09948 37.7014C8.65612 37.7014 9.14989 37.3028 9.25182 36.7358C9.25487 36.7187 9.25731 36.7016 9.25976 36.6845C9.35436 36.0443 8.91186 35.4486 8.27099 35.3546C7.63805 35.2606 7.0454 35.6957 6.94347 36.3269C6.83239 36.9628 7.25597 37.5689 7.89135 37.6831Z" fill="black"/>
<path d="M63.1698 24.9375C63.3968 25.2671 63.7618 25.4435 64.1342 25.4435C64.363 25.4435 64.595 25.3763 64.7976 25.2366C65.3304 24.8703 65.4653 24.1404 65.0991 23.6069L64.125 24.2588L65.0955 23.6014C64.7317 23.0655 64.0029 22.9258 63.4676 23.2889C62.9318 23.6521 62.792 24.3808 63.1551 24.9167L63.1698 24.9375Z" fill="black"/>
<path d="M69.1541 36.7301C68.5108 36.8021 68.0482 37.3825 68.1208 38.0259L68.1269 38.0765C68.2105 38.6606 68.7122 39.0824 69.286 39.0824C69.3409 39.0824 69.397 39.0787 69.4532 39.0708C70.0886 38.9798 70.5317 38.3945 70.4493 37.7597C70.3754 37.1183 69.7932 36.6581 69.1541 36.7301Z" fill="black"/>
<path d="M67.1807 33.4222L67.1856 33.4374C67.3357 33.9483 67.8026 34.2791 68.3092 34.2791C68.4185 34.2791 68.5296 34.2638 68.64 34.2309C69.2614 34.0484 69.6166 33.3971 69.4341 32.7758L69.4292 32.7605C69.2467 32.1392 68.5955 31.784 67.9741 31.9671C67.3534 32.1496 66.9982 32.8008 67.1807 33.4222Z" fill="black"/>
<path d="M65.5226 29.041C65.7271 29.4567 66.1452 29.699 66.5797 29.699C66.7525 29.699 66.9283 29.6605 67.0937 29.5788C67.6741 29.2931 67.9152 28.5949 67.6289 28.0138L66.5669 28.5088L67.6277 28.0114C67.3531 27.4254 66.6554 27.1734 66.0695 27.448C65.4835 27.7227 65.2309 28.4203 65.5055 29.0062L65.5226 29.041Z" fill="black"/>
<path d="M60.2173 21.2774C60.4468 21.5118 60.7502 21.629 61.0541 21.629C61.3501 21.629 61.6462 21.5179 61.8744 21.2939C62.3334 20.8447 62.3438 20.1104 61.9013 19.6478C61.4624 19.1747 60.7227 19.1461 60.2478 19.5843C59.7724 20.0231 59.7431 20.7647 60.1819 21.2402L60.2173 21.2774Z" fill="black"/>
<path d="M69.5348 41.6234C68.8909 41.607 68.3519 42.1117 68.3294 42.7556C68.3001 43.3971 68.7926 43.9434 69.4347 43.9794C69.4573 43.9806 69.4787 43.9812 69.5012 43.9812C70.1183 43.9812 70.6353 43.4984 70.6701 42.874L70.6719 42.8258C70.6902 42.1795 70.1812 41.6424 69.5348 41.6234Z" fill="black"/>
<path d="M52.7298 15.5228L52.7579 15.5381C52.9325 15.6309 53.1199 15.6748 53.3042 15.6748C53.7211 15.6748 54.1245 15.4502 54.3363 15.0565C54.6415 14.4883 54.4266 13.7778 53.8602 13.4702L53.2932 14.4956L53.8565 13.4678C53.2889 13.1565 52.5766 13.3646 52.2654 13.9323C51.9547 14.4993 52.1622 15.2122 52.7298 15.5228Z" fill="black"/>
<path d="M56.6889 18.0939L56.7072 18.108C56.919 18.2685 57.1674 18.346 57.4146 18.346C57.7686 18.346 58.1184 18.1861 58.3491 17.8821C58.7403 17.3664 58.639 16.6315 58.1239 16.2403L58.1159 16.2348C57.6026 15.8405 56.8671 15.937 56.4729 16.4503C56.0786 16.9636 56.1756 17.6997 56.6889 18.0939Z" fill="black"/>
<path d="M79.2767 59.364L73.7756 53.8531C73.3075 53.3844 72.6855 53.1262 72.0233 53.1262C71.3617 53.1262 70.7391 53.3844 70.2716 53.8531L70.144 53.9807L69.7827 53.6194C69.3365 53.172 68.9911 52.6514 68.7567 52.0844C68.736 52.0093 68.7085 51.936 68.6731 51.8671C68.4937 51.3629 68.4003 50.8264 68.4003 50.2753V48.7164C68.5071 48.7726 68.6237 48.8135 68.7488 48.8348C68.8159 48.8464 68.8824 48.8519 68.9484 48.8519C69.5044 48.8519 69.9963 48.4552 70.0995 47.8912C70.2246 47.2577 69.8138 46.6418 69.1797 46.5149C68.9008 46.4594 68.6249 46.5076 68.3929 46.6333C68.3209 44.9683 67.6404 43.4131 66.4563 42.2266L61.1194 36.8805C59.9219 35.6812 58.3295 35.0208 56.6357 35.0208C55.3247 35.0208 54.0759 35.4181 53.0225 36.1536L52.4561 35.5841V22.1808C52.4561 20.5652 51.8695 19.0063 50.8051 17.7924C50.0476 16.9293 49.6307 15.8209 49.6307 14.671V13.689H49.7113C51.0773 13.689 52.1887 12.5775 52.1887 11.2109V3.41553C52.1887 2.04895 51.0773 0.9375 49.7113 0.9375H27.821C26.4551 0.9375 25.3436 2.04895 25.3436 3.41553V11.2109C25.3436 12.5775 26.4551 13.689 27.821 13.689H28.0017V14.2029C28.0017 15.4663 27.5104 16.6541 26.6187 17.547L24.256 19.9139C23.0023 21.17 22.312 22.8394 22.312 24.6155V32.1759C22.312 33.2031 22.5586 34.173 22.9926 35.0323C21.4386 35.1221 19.9902 35.7697 18.8806 36.8805L13.5437 42.2266C12.29 43.4827 11.5997 45.1526 11.5997 46.9281V50.2753C11.5997 51.5387 11.109 52.7264 10.2173 53.6194L9.86023 53.9771C9.8584 53.9783 9.85718 53.9795 9.85596 53.9807L9.729 53.8531C9.26086 53.3844 8.63892 53.1262 7.97668 53.1262C7.31506 53.1262 6.6925 53.3844 6.22498 53.8531L0.723267 59.364C-0.241089 60.3302 -0.241089 61.9025 0.723267 62.8687L2.60742 64.7552C3.06458 65.2136 3.80676 65.2142 4.26453 64.7571C4.72229 64.2993 4.72351 63.5577 4.26575 63.0994L2.3822 61.2122C2.3291 61.1591 2.3291 61.073 2.3822 61.0199L7.88391 55.509C7.93518 55.4578 8.0188 55.4572 8.07007 55.509L9.02649 56.4673H9.0271L22.0868 69.5496L23.5498 71.0156C23.6029 71.0687 23.6029 71.1548 23.5498 71.2079L18.0487 76.7188C17.9968 76.7706 17.9132 76.7706 17.8619 76.7188L7.58362 66.4227C7.12646 65.9644 6.38428 65.9637 5.92651 66.4209C5.46814 66.8787 5.46753 67.6202 5.92468 68.0786L16.2036 78.3746C16.6711 78.8434 17.2937 79.1016 17.9559 79.1016C18.6176 79.1016 19.2395 78.8434 19.7076 78.3746L25.2087 72.8638C26.1731 71.8982 26.1731 70.3259 25.2087 69.3597L25.1489 69.2999L25.8429 68.6047C26.6534 67.7924 27.7301 67.3041 28.8745 67.2302C30.4852 67.1259 32.0007 66.4386 33.1415 65.2954L38.1952 60.2307C39.6527 59.848 40.7874 58.6609 41.0956 57.1741C41.615 57.4213 42.1954 57.5604 42.8082 57.5604C45.0122 57.5604 46.8054 55.7654 46.8054 53.5583V50.7758C47.3096 51.0059 47.8693 51.1353 48.4589 51.1353C50.6628 51.1353 52.4554 49.3402 52.4554 47.1332V38.9069L56.0602 42.5293C56.2891 42.7594 56.59 42.8741 56.8909 42.8741C57.1899 42.8741 57.489 42.7606 57.7179 42.533C58.1763 42.0764 58.1781 41.3348 57.7216 40.8759L54.7162 37.8558C55.2979 37.5354 55.9534 37.3645 56.6357 37.3645C57.7026 37.3645 58.7061 37.7808 59.4604 38.537L64.7974 43.8824C65.6091 44.696 66.0565 45.7776 66.0565 46.9281V50.2753C66.0565 52.1643 66.7908 53.9398 68.1238 55.2753L68.4875 55.6396L66.7877 57.3425L56.507 67.641L55.9338 67.0667C55.9277 67.0612 55.9222 67.0551 55.9161 67.0496L55.8154 66.9482C54.6021 65.733 52.9901 65.0024 51.2775 64.8914C50.2356 64.8236 49.2554 64.3793 48.5138 63.6371L44.6631 59.8071C44.2041 59.3506 43.4619 59.3524 43.0054 59.8114C42.5494 60.2704 42.5513 61.0126 43.0103 61.4685L46.8585 65.2954C47.9993 66.4386 49.5148 67.1259 51.1261 67.2302C52.2699 67.3041 53.3466 67.7924 54.1571 68.6041L54.2139 68.6609C54.2444 68.6957 54.2767 68.728 54.3109 68.7585L54.8511 69.2993L54.7913 69.3597C53.8269 70.3259 53.8269 71.8976 54.7913 72.8638L60.2924 78.3746C60.7605 78.8434 61.3824 79.1016 62.0447 79.1016C62.7063 79.1016 63.3289 78.8434 63.797 78.3746L79.2767 62.868C80.2411 61.9019 80.2411 60.3302 79.2767 59.364ZM69.1858 47.7112L69.1638 47.7075L68.9502 47.6642L69.1858 47.7112ZM31.4825 63.6395C30.7446 64.3793 29.7644 64.8236 28.7231 64.8914C27.0099 65.0024 25.3979 65.733 24.1846 66.9482L23.493 67.641L22.8705 67.0172C22.8625 67.0093 22.8546 67.0007 22.8467 66.9934L11.5125 55.6396L11.8762 55.2753C13.2092 53.9398 13.9435 52.1643 13.9435 50.2753V46.9281C13.9435 45.7776 14.3903 44.696 15.2026 43.8824L20.5396 38.537C21.2939 37.7808 22.2974 37.3645 23.3643 37.3645C24.0485 37.3645 24.7064 37.5366 25.2899 37.8595L22.2797 40.8746C21.8225 41.3324 21.8231 42.0746 22.2809 42.5317C22.5098 42.76 22.8094 42.8741 23.1091 42.8741C23.4094 42.8741 23.7097 42.7594 23.9386 42.5305L27.5342 38.9282V53.5583C27.5342 55.7654 29.3274 57.5604 31.5314 57.5604C32.1527 57.5604 32.7411 57.4176 33.266 57.1637C33.504 58.3252 34.2462 59.3042 35.2521 59.8621L31.4825 63.6395ZM50.1123 47.1338C50.1123 48.0481 49.3701 48.7921 48.4589 48.7921C47.547 48.7921 46.8054 48.0481 46.8054 47.1338V34.0619C46.8054 33.4149 46.2811 32.89 45.6335 32.89C44.986 32.89 44.4617 33.4149 44.4617 34.0619V53.559C44.4617 54.4733 43.7201 55.2167 42.8082 55.2167C41.9897 55.2167 41.3104 54.6173 41.1792 53.833V34.0485C41.1792 33.4009 40.6549 32.8766 40.0073 32.8766C39.7992 32.8766 39.6033 32.9315 39.4336 33.0267C39.0631 33.2239 38.811 33.6133 38.811 34.0619V53.5583C38.811 53.7073 38.8196 53.8531 38.8354 53.9978V56.3593C38.8354 57.2736 38.0939 58.0176 37.182 58.0176C36.2708 58.0176 35.5292 57.2736 35.5292 56.3593V34.0344C35.5292 33.3875 35.0043 32.8625 34.3573 32.8625C33.7097 32.8625 33.1848 33.3875 33.1848 34.0344V53.5583C33.1848 54.4727 32.4432 55.2167 31.532 55.2167C30.6201 55.2167 29.8785 54.4727 29.8785 53.5583V31.7596C29.8785 31.1121 29.3536 30.5872 28.7067 30.5872C28.0591 30.5872 27.5348 31.1121 27.5348 31.7596V35.7916C27.4365 35.8234 27.3413 35.8679 27.2528 35.9265C25.7373 35.3571 24.6558 33.891 24.6558 32.1759V24.6155C24.6558 23.465 25.1031 22.3834 25.9149 21.5698L28.2776 19.2029C29.6112 17.8674 30.3455 16.0919 30.3455 14.2029V13.689H32.7014C33.349 13.689 33.8733 13.1641 33.8733 12.5171C33.8733 11.8695 33.349 11.3452 32.7014 11.3452H27.821C27.7472 11.3452 27.6874 11.2848 27.6874 11.2109V3.41553C27.6874 3.34167 27.7472 3.28125 27.821 3.28125H49.7107C49.7852 3.28125 49.845 3.34167 49.845 3.41553V11.2109C49.845 11.2854 49.7852 11.3452 49.7107 11.3452H38.2031C37.5562 11.3452 37.0312 11.8695 37.0312 12.5171C37.0312 13.1641 37.5562 13.689 38.2031 13.689H47.287V14.671C47.287 16.3898 47.9102 18.0469 49.0424 19.3384C49.7321 20.1245 50.1123 21.134 50.1123 22.1808V47.1338ZM77.6178 61.2122L62.1381 76.7188C62.1124 76.745 62.0813 76.7578 62.0447 76.7578C62.0087 76.7578 61.9775 76.745 61.9513 76.7188L56.4502 71.2079C56.3971 71.1548 56.3971 71.0687 56.4502 71.0156L57.3358 70.1282L57.3364 70.1276L66.3226 61.1261L71.9299 55.509C71.9812 55.4572 72.0648 55.4572 72.1161 55.509L77.6178 61.0199C77.6709 61.073 77.6709 61.1591 77.6178 61.2122Z" fill="black"/>
<path d="M31.5327 6.06348C30.8448 6.06348 30.2852 6.62439 30.2852 7.31348C30.2852 8.00317 30.8448 8.56348 31.5327 8.56348C32.2212 8.56348 32.7809 8.00317 32.7809 7.31348C32.7809 6.62439 32.2212 6.06348 31.5327 6.06348Z" fill="black"/>
<path d="M72.4044 59.4824C71.7159 59.4824 71.1562 60.0433 71.1562 60.7324C71.1562 61.4215 71.7159 61.9824 72.4044 61.9824C73.0923 61.9824 73.652 61.4215 73.652 60.7324C73.652 60.0433 73.0923 59.4824 72.4044 59.4824Z" fill="black"/>
<path d="M19.527 71.4375C19.527 70.7484 18.9673 70.1875 18.2794 70.1875C17.5909 70.1875 17.0312 70.7484 17.0312 71.4375C17.0312 72.1266 17.5909 72.6875 18.2794 72.6875C18.9673 72.6875 19.527 72.1266 19.527 71.4375Z" fill="black"/>
</g>
<defs>
<clipPath id="clip0">
<rect width="80" height="80" fill="white"/>
</clipPath>
</defs>
</svg>
