<svg width="80" height="80" viewBox="0 0 80 80" fill="none" xmlns="http://www.w3.org/2000/svg">
<g clip-path="url(#clip0)">
<path fill-rule="evenodd" clip-rule="evenodd" d="M40.1549 72.0261H4.70691C2.73242 72.0261 1.55505 70.9287 1.49219 69.5225V76.3877C1.49219 77.7268 2.58899 78.8236 3.92322 78.8236H76.3774C77.7117 78.8236 78.8091 77.7268 78.8091 76.3877V69.6793C78.6699 71.0093 77.506 72.0261 75.6078 72.0261H40.1549Z" fill="#8A541E"/>
<path fill-rule="evenodd" clip-rule="evenodd" d="M4.45605 64.162L2.19043 67.395C1.74243 68.0359 1.51904 68.6853 1.49219 69.2853V69.5227C1.55505 70.9283 2.73242 72.0258 4.70691 72.0258H75.6078C77.506 72.0258 78.6699 71.0095 78.8091 69.679C78.8848 68.9716 78.6699 68.1744 78.1194 67.395L75.8538 64.162C74.8284 62.6978 73.5747 60.9198 71.8193 60.7855C71.7522 60.7806 70.6957 60.7764 70.6243 60.7764C68.5735 62.55 64.3425 63.1274 59.5964 63.1274H20.1494C15.4082 63.1274 11.1724 62.55 9.12585 60.7764C9.04102 60.7764 8.53503 60.7812 8.45447 60.7855C6.72168 60.9424 5.47717 62.7063 4.45605 64.162Z" fill="#B5722F"/>
<path fill-rule="evenodd" clip-rule="evenodd" d="M8.79481 54.6969C7.29457 57.5313 7.62172 59.4747 9.12623 60.7778C11.1721 62.5515 15.408 63.1289 20.1498 63.1289H21.4169L26.1581 58.669L20.5209 54.2623C16.2185 50.8993 11.7678 53.0038 8.79481 54.6969Z" fill="#FFDDA6"/>
<path fill-rule="evenodd" clip-rule="evenodd" d="M59.2299 54.2616L55.7148 58.6818L58.3345 63.1282H59.5973C64.3434 63.1282 68.5743 62.5508 70.6251 60.7771C72.1248 59.474 72.4562 57.5307 70.9565 54.6962C67.9786 53.0031 64.5314 52.9671 59.2299 54.2616Z" fill="#FFDDA6"/>
<path fill-rule="evenodd" clip-rule="evenodd" d="M23.8231 37.4011C18.2665 37.6965 16.1669 40.7684 13.4935 45.8197L8.79688 54.696C11.7699 53.0029 15.2172 52.9669 20.5229 54.2615H59.2308C64.5323 52.9669 67.9796 53.0029 70.9569 54.696L66.256 45.8197C63.5826 40.7684 61.4873 37.7008 55.9307 37.4011C54.677 37.3383 53.6162 37.182 52.6622 36.8457L27.0287 36.864C26.0887 37.1906 25.0499 37.3383 23.8231 37.4011Z" fill="#64B0D9"/>
<path fill-rule="evenodd" clip-rule="evenodd" d="M53.4263 17.5537C49.683 20.3705 50.9544 22.6855 53.2023 23.9752C54.9797 24.0021 56.9633 22.171 56.9633 20.3748V18.9734C56.9633 18.1897 56.3231 17.5537 55.5442 17.5537H53.4263Z" fill="#EDA93B"/>
<path fill-rule="evenodd" clip-rule="evenodd" d="M21.8203 20.3748C21.8203 22.171 23.8033 24.0021 25.5764 23.9752L28.4243 20.4687L25.3573 17.5537H23.2394C22.4606 17.5537 21.8203 18.1897 21.8203 18.9734V20.3748Z" fill="#EDA93B"/>
<path fill-rule="evenodd" clip-rule="evenodd" d="M58.7709 58.7794L58.332 63.1276H59.5948C64.3409 63.1276 68.5719 62.5502 70.6227 60.7765C71.9124 59.6571 72.3372 58.0671 71.4821 55.8418C71.3167 56.0518 71.1287 56.2446 70.9181 56.4283C68.8673 58.2057 64.6364 58.7794 59.8903 58.7794H58.7709Z" fill="#FCC368"/>
<path fill-rule="evenodd" clip-rule="evenodd" d="M8.24188 55.9092C7.4179 58.0991 7.8482 59.6708 9.12872 60.7767C11.1746 62.5504 15.4105 63.1278 20.1523 63.1278H21.4194L20.9714 58.6948H19.7043C14.9625 58.6948 10.7266 58.1168 8.68072 56.3438C8.51959 56.2046 8.37616 56.0612 8.24188 55.9092Z" fill="#FCC368"/>
<path fill-rule="evenodd" clip-rule="evenodd" d="M50.0078 39.613C50.8678 39.873 51.8169 39.9982 52.9143 40.0568C58.4703 40.3522 60.5663 43.4198 63.2433 48.4711L65.8269 53.3521C67.7837 53.3972 69.4316 53.8269 70.9539 54.696L66.2523 45.8197C63.5796 40.7684 61.4836 37.7008 55.927 37.4011C54.6733 37.3383 53.6125 37.182 52.6586 36.8457C52.0366 37.9205 51.1229 38.8428 50.0078 39.613Z" fill="#4A83C9"/>
<path fill-rule="evenodd" clip-rule="evenodd" d="M27.3051 37.2532C32.1006 44.5164 48.5953 43.8718 52.6609 36.8455C51.403 36.3975 50.3239 35.6364 49.1953 34.3333C48.7974 33.881 47.7048 32.8062 47.642 32.7256L40.4825 28.1846L31.6752 33.1687C31.3126 33.5361 30.8018 34.0513 30.5558 34.3333C29.4095 35.6547 28.3079 36.4243 27.0273 36.8638C27.1036 36.9974 27.2202 37.1232 27.3051 37.2532Z" fill="#FCC368"/>
<path fill-rule="evenodd" clip-rule="evenodd" d="M25.5752 23.9747C26.2777 27.2395 28.597 30.7325 31.6732 33.1685C32.7841 34.0461 33.9926 34.7853 35.2554 35.3315C35.4659 35.4213 35.6808 35.5061 35.8914 35.5873C38.4432 36.5321 40.3597 36.5272 42.9031 35.5781C44.6041 34.9421 46.2161 33.9479 47.64 32.7253C50.4519 30.3206 52.543 27.0472 53.2009 23.9753C53.3486 23.3033 53.4249 22.6405 53.4249 22.0002V14.3739L40.4806 10.8809L25.3555 14.3739V22.0002C25.3555 22.6405 25.4318 23.3033 25.5752 23.9747Z" fill="#FFDDA6"/>
<path fill-rule="evenodd" clip-rule="evenodd" d="M49.507 15.6729V23.2992C49.507 23.9395 49.4307 24.6023 49.2878 25.2737C48.6293 28.3456 46.5339 31.6195 43.7263 34.0243C42.7235 34.8794 41.631 35.6271 40.4805 36.2185C41.2458 36.1154 42.0387 35.9005 42.903 35.5782C43.3552 35.4128 43.8026 35.2157 44.2372 35.0009C45.4457 34.4003 46.5968 33.6215 47.6399 32.7255C50.4518 30.3207 52.5428 27.0474 53.2008 23.9755C53.3485 23.3035 53.4248 22.6406 53.4248 22.0004V14.374C51.9966 14.916 50.6978 15.3414 49.507 15.6729Z" fill="#FCC368"/>
<path fill-rule="evenodd" clip-rule="evenodd" d="M25.3555 14.3745C37.6107 11.0694 36.6165 20.7648 53.4249 14.3745C61.1935 8.72321 53.5769 -2.21735 45.2627 2.20709C41.1569 4.39276 36.0299 1.20856 31.7318 3.09821C27.5179 4.95245 25.3555 8.91119 25.3555 14.3745Z" fill="#808080"/>
<path fill-rule="evenodd" clip-rule="evenodd" d="M44.6172 2.5025C51.4275 1.92023 56.2364 10.7783 49.5067 15.6733C50.6975 15.3419 51.9963 14.9164 53.4246 14.3745C61.1931 8.72321 53.5765 -2.21735 45.2623 2.20709C45.0469 2.3194 44.832 2.41766 44.6172 2.5025Z" fill="#666666"/>
<path fill-rule="evenodd" clip-rule="evenodd" d="M46.6425 37.4949C47.6099 38.4934 48.5632 39.1117 49.6466 39.4968C49.7675 39.5371 49.884 39.5774 50.0092 39.6128C51.1243 38.8425 52.038 37.9203 52.6599 36.8455L52.5928 36.8186C51.366 36.3706 50.3003 35.6138 49.1901 34.3375C48.7958 33.881 47.7032 32.8062 47.641 32.7256C46.217 33.9481 44.6051 34.9424 42.9034 35.5784C40.3607 36.5275 38.4442 36.5323 35.8917 35.5869C35.6812 35.5063 35.4663 35.4215 35.2563 35.3318C33.9935 34.7855 32.7844 34.0464 31.6742 33.1687C31.3116 33.5361 30.8008 34.0513 30.5548 34.3333C30.4205 34.4901 30.2905 34.6329 30.1562 34.7721C30.5414 35.1169 30.9399 35.4484 31.3519 35.7615C32.5067 36.6392 33.7695 37.3783 35.0903 37.9246C35.3101 38.0143 35.5292 38.0997 35.7532 38.1754C38.4082 39.1251 40.4095 39.1202 43.0652 38.1711C43.8214 37.902 44.5605 37.5663 45.2722 37.1726C45.5316 37.0292 45.9308 36.7606 46.6425 37.4949Z" fill="#EDA93B"/>
<path fill-rule="evenodd" clip-rule="evenodd" d="M23.343 66.8402L21.4174 63.1274H20.1503C15.4091 63.1274 11.1732 62.55 9.12671 60.7764C9.04187 60.7764 8.53589 60.7812 8.45532 60.7855C7.53735 60.8704 6.75854 61.4032 6.07312 62.1021C6.04626 62.1289 6.03284 62.1423 6.03284 62.1423C5.84973 62.3395 5.67029 62.5409 5.5 62.7557C6.96423 66.6608 19.394 66.8402 23.343 66.8402Z" fill="#8A541E"/>
<path fill-rule="evenodd" clip-rule="evenodd" d="M56.4062 66.8402L58.3319 63.1274H59.5947C64.3408 63.1274 68.5718 62.5543 70.6226 60.7764H70.6805C70.918 60.7764 71.7554 60.7812 71.8182 60.7855C72.7985 60.8569 73.6224 61.4484 74.339 62.2095L74.3298 62.2052C74.339 62.2095 74.3433 62.2137 74.3524 62.2229L74.3744 62.2455C74.4281 62.3035 74.3475 62.5409 74.2493 62.7557C72.7808 66.6608 60.351 66.8402 56.4062 66.8402Z" fill="#8A541E"/>
<path fill-rule="evenodd" clip-rule="evenodd" d="M20.5195 54.2607L21.4149 63.1273L21.6169 65.1158C21.7109 66.0564 22.3915 66.8352 23.3363 66.8352H56.407C57.3561 66.8352 58.0366 66.0564 58.1306 65.1158L58.332 63.1273L59.2274 54.2607L59.9037 47.5566C59.9977 46.6118 59.1291 45.833 58.1794 45.833H21.5632C20.6184 45.833 19.745 46.6118 19.839 47.5566L20.5195 54.2607Z" fill="#E6E6E6"/>
<path fill-rule="evenodd" clip-rule="evenodd" d="M36.2891 56.3341C36.2891 58.0492 37.8925 59.442 39.8712 59.442C41.8506 59.442 43.4576 58.0492 43.4576 56.3341C43.4576 54.619 41.8506 53.2305 39.8712 53.2305C37.8925 53.2305 36.2891 54.619 36.2891 56.3341Z" fill="#FCC368"/>
<path fill-rule="evenodd" clip-rule="evenodd" d="M21.418 63.1279L21.62 65.1165C21.6377 65.291 21.6737 65.4656 21.7317 65.6267C21.9777 66.3256 22.5734 66.8358 23.3387 66.8358H56.4094C57.1797 66.8358 57.7705 66.3256 58.0171 65.6267C58.0751 65.4656 58.1154 65.291 58.1337 65.1165L58.3351 63.1279H21.418Z" fill="#C2C7CC"/>
<path d="M33.9935 24.6096C33.3411 24.6096 32.8125 24.0811 32.8125 23.4286V22.1078C32.8125 21.4553 33.3411 20.9268 33.9935 20.9268C34.6454 20.9268 35.1746 21.4553 35.1746 22.1078V23.4286C35.1746 24.0811 34.646 24.6096 33.9935 24.6096Z" fill="black"/>
<path d="M44.946 24.6096C44.2942 24.6096 43.7656 24.0811 43.7656 23.4286V22.1078C43.7656 21.4553 44.2942 20.9268 44.946 20.9268C45.5985 20.9268 46.1271 21.4553 46.1271 22.1078V23.4286C46.1271 24.0811 45.5985 24.6096 44.946 24.6096Z" fill="black"/>
<path d="M35.1133 56.3345C35.1133 58.6996 37.2495 60.6234 39.8759 60.6234C42.5046 60.6234 44.6433 58.6996 44.6433 56.3345C44.6433 53.9724 42.5046 52.0498 39.8759 52.0498C37.2495 52.0498 35.1133 53.9724 35.1133 56.3345ZM39.8759 54.4119C41.2021 54.4119 42.2812 55.2743 42.2812 56.3345C42.2812 57.3971 41.2021 58.2614 39.8759 58.2614C38.552 58.2614 37.4747 57.3971 37.4747 56.3345C37.4747 55.2743 38.552 54.4119 39.8759 54.4119Z" fill="black"/>
<path d="M79.0881 66.7176L76.8225 63.4846C75.8734 62.129 74.6191 60.3388 72.7765 59.7742C73.4039 58.2105 73.15 56.3312 72.0172 54.1749C72.0154 54.1712 72.0129 54.1669 72.0111 54.1633C72.0074 54.1559 72.0044 54.1492 72.0007 54.1425L67.2992 45.2674C64.6088 40.1825 62.2229 36.5577 55.9924 36.2214C53.4937 36.0901 51.8951 35.6421 50.0824 33.5523C49.906 33.3521 49.6222 33.0573 49.3384 32.768C51.6217 30.5475 53.3679 27.7906 54.1522 25.0501C55.0397 24.8469 55.9137 24.3567 56.6473 23.6341C57.5995 22.696 58.1458 21.5076 58.1458 20.3742V18.9728C58.1458 17.5385 56.9794 16.3721 55.5457 16.3721H54.6088V14.9512C56.3324 13.5456 57.4121 11.7811 57.7399 9.81573C58.0597 7.898 57.6361 5.88384 56.5485 4.14434C54.3842 0.684866 49.6228 -1.45014 44.7101 1.16399C42.9321 2.11065 40.7941 1.84698 38.5303 1.56805C36.1298 1.27202 33.6481 0.966239 31.2585 2.01665C28.9343 3.0396 27.1436 4.65032 25.9363 6.80486C24.7693 8.88677 24.1772 11.4338 24.1772 14.3738V16.3721H23.2404C21.8066 16.3721 20.6403 17.5385 20.6403 18.9728V20.3742C20.6403 21.5082 21.1865 22.6972 22.1399 23.6353C22.8729 24.358 23.7469 24.8481 24.6332 25.0507C25.4742 27.9914 27.4219 30.9498 29.9524 33.2453C29.8425 33.3613 29.743 33.4687 29.6643 33.559C28.6639 34.7132 27.7264 35.365 26.6644 35.7392C25.8099 36.0407 24.8743 36.1628 23.7598 36.2208C17.5287 36.5522 15.1416 40.1795 12.4493 45.2668L7.75269 54.1419C7.74841 54.1498 7.74475 54.1578 7.74048 54.1657C7.73926 54.1681 7.73804 54.1712 7.73621 54.1742C6.55823 56.413 6.33118 58.3527 7.05322 59.9518C5.47668 60.6544 4.35608 62.2498 3.4906 63.4839L1.22498 66.7176C0.683594 67.4897 0.38147 68.3216 0.323486 69.1303C0.317383 69.181 0.3125 69.2322 0.3125 69.2853V76.3874C0.3125 78.3796 1.93298 80 3.92456 80H76.3788C78.371 80 79.9915 78.3796 79.9915 76.3874V69.679C79.9915 69.6778 79.9908 69.6766 79.9908 69.6753C80.0574 68.7018 79.7516 67.6648 79.0881 66.7176ZM23.797 21.9532C23.2996 21.4625 23.0023 20.8729 23.0023 20.3742V18.9728C23.0023 18.8434 23.1116 18.7342 23.2404 18.7342H24.1772V22.0002C24.1772 22.0929 24.1827 22.1869 24.1852 22.2809C24.0509 22.1833 23.9203 22.074 23.797 21.9532ZM60.3198 55.2186C64.7809 54.2145 67.6776 54.3177 70.0714 55.5585C70.8319 57.1131 70.9497 58.3448 70.4211 59.2219C69.6741 60.4627 67.1954 61.9404 59.6405 61.9465L60.3198 55.2186ZM55.5457 18.7342C55.6744 18.7342 55.7837 18.8434 55.7837 18.9728V20.3742C55.7837 20.8722 55.4871 21.4618 54.9896 21.952C54.8663 22.0728 54.7357 22.1821 54.6008 22.2803C54.6039 22.1869 54.6088 22.0929 54.6088 22.0002V18.7342H55.5457ZM32.2095 4.17852C34.0045 3.38994 36.0626 3.64385 38.241 3.9118C40.769 4.22368 43.3832 4.54595 45.8197 3.24895C49.6252 1.22442 53.0103 2.94317 54.5459 5.39678C55.8588 7.49639 56.1896 10.8167 52.8564 13.3271C43.9935 16.6675 40.5597 15.3657 36.9257 13.9881C34.9622 13.2441 32.9565 12.4836 30.1843 12.4836C29.1174 12.4836 27.937 12.5965 26.6028 12.8663C26.8811 9.63506 28.1696 5.95647 32.2095 4.17852ZM26.7474 23.8184C26.7413 23.7726 26.7322 23.7281 26.7212 23.6841C26.6034 23.1135 26.5393 22.5489 26.5393 22.0002V15.2955C31.0016 14.2695 33.371 15.1667 36.0883 16.197C38.1036 16.9605 40.2637 17.779 43.3765 17.779C45.694 17.779 48.54 17.3249 52.2467 16.056V22.0002C52.2467 22.5318 52.1857 23.0787 52.0746 23.6323C52.0532 23.7031 52.038 23.7757 52.03 23.8514C51.0687 28.1342 47.0239 32.782 42.4927 34.4715C40.2094 35.3235 38.5901 35.326 36.3055 34.48C31.756 32.7887 27.6959 28.1171 26.7474 23.8184ZM31.4465 35.1093C31.5314 35.0123 31.6583 34.8768 31.8018 34.7278C32.962 35.5439 34.2017 36.2171 35.484 36.6944C36.8903 37.215 38.1409 37.475 39.3909 37.475C40.6488 37.475 41.9055 37.2114 43.3179 36.684C44.8035 36.1304 46.2329 35.3126 47.5464 34.3134C47.8369 34.6088 48.1464 34.9274 48.3038 35.1063C49.1541 36.0865 49.9994 36.7927 50.8734 37.3023C48.8342 39.5868 44.8706 41.0895 40.3162 41.222C35.3455 41.3672 31.0645 39.8932 28.8452 37.3231C29.7308 36.8122 30.5865 36.1011 31.4465 35.1093ZM14.5367 46.3715C17.2369 41.2696 19.0393 38.8373 23.8843 38.5798C24.8328 38.5303 25.7129 38.4296 26.5485 38.2282C28.9789 41.5766 33.9148 43.5938 39.6613 43.5938C39.9011 43.5938 40.1428 43.5901 40.3851 43.5834C46.0431 43.418 50.8282 41.3862 53.1677 38.219C54.0137 38.4266 54.9054 38.5291 55.8667 38.5798C60.7117 38.8416 62.5134 41.272 65.2118 46.3721L68.443 52.472C66.2848 51.9929 63.7762 52.0899 60.5695 52.7485L61.0822 47.674C61.156 46.9294 60.9106 46.2037 60.3912 45.6305C59.8285 45.0086 59.0234 44.6515 58.183 44.6515H42.8741C42.2223 44.6515 41.6937 45.1807 41.6937 45.8326C41.6937 46.485 42.2223 47.0136 42.8741 47.0136H58.183C58.3496 47.0136 58.5297 47.0929 58.6407 47.2156C58.7085 47.2901 58.739 47.3658 58.7317 47.4384L56.9586 64.9982C56.9269 65.3144 56.7413 65.6544 56.4099 65.6544H23.3392C22.9877 65.6544 22.821 65.2619 22.7948 64.997L21.7017 54.2023C21.6998 54.1584 21.6956 54.1138 21.6888 54.0705L21.0175 47.4402C21.0101 47.367 21.0406 47.2919 21.109 47.2169C21.2207 47.0936 21.4001 47.0136 21.5662 47.0136H37.403C38.0548 47.0136 38.584 46.485 38.584 45.8326C38.584 45.1807 38.0548 44.6515 37.403 44.6515H21.5662C20.7263 44.6515 19.9213 45.0092 19.3579 45.6318C18.8385 46.2055 18.5931 46.9306 18.667 47.6758L19.1809 52.7479C15.9735 52.0899 13.4656 51.9929 11.3086 52.4714L14.5367 46.3715ZM20.1117 61.9465C13.9819 61.9422 11.1932 60.9693 9.96033 59.9396C9.92859 59.9079 9.89441 59.8786 9.85901 59.8505C9.62524 59.6399 9.45312 59.4282 9.32922 59.2225C8.80127 58.3454 8.92029 57.1137 9.6814 55.5585C12.0709 54.3177 14.967 54.2145 19.4305 55.2179L20.1117 61.9465ZM42.3907 73.2068H75.6091C76.3538 73.2068 77.0349 73.0774 77.6294 72.8364V76.3874C77.6294 77.0771 77.0685 77.638 76.3788 77.638H3.92456C3.23486 77.638 2.67456 77.0771 2.67456 76.3874V72.8315C3.27209 73.0756 3.95813 73.2068 4.70886 73.2068L36.9379 73.1885C37.5897 73.1885 38.1183 72.6594 38.1177 72.0069C38.1177 71.355 37.5891 70.8265 36.9373 70.8265C36.9366 70.8265 36.9366 70.8265 36.9366 70.8265L4.70825 70.8448C3.78174 70.8448 3.0896 70.5359 2.80945 69.997C2.73071 69.845 2.68677 69.6778 2.67456 69.5002V69.3018C2.69897 68.9191 2.86255 68.4968 3.15918 68.0732L5.4248 64.8401C6.28357 63.6152 7.35168 62.0929 8.53516 61.9642C8.573 61.9636 8.64258 61.9623 8.72009 61.9611C10.8545 63.5377 14.6271 64.3085 20.1514 64.3085H20.351L20.4449 65.2332C20.6061 66.8458 21.8231 68.0164 23.3392 68.0164H56.4099C57.9279 68.0164 59.1473 66.8458 59.3085 65.2344L59.4019 64.3085H59.5978C65.1245 64.3085 68.8977 63.537 71.0321 61.9593C71.3147 61.9611 71.6541 61.9629 71.7542 61.9648C72.9523 62.0752 74.0253 63.6072 74.8883 64.8395L77.1539 68.0732C77.6471 68.7769 77.7753 69.4788 77.5049 69.9988C77.2247 70.5366 76.5338 70.8448 75.6091 70.8448H42.3907C41.7383 70.8448 41.2097 71.3733 41.2097 72.0258C41.2097 72.6783 41.7383 73.2068 42.3907 73.2068Z" fill="black"/>
</g>
<defs>
<clipPath id="clip0">
<rect width="80" height="80" fill="white"/>
</clipPath>
</defs>
</svg>
