<svg version="1" xmlns="http://www.w3.org/2000/svg" width="933.333" height="933.333" viewBox="0 0 700.000000 700.000000"><path d="M426.4 75.7l-.1 44.3h11.1c15.4.1 79.9.1 86.7 0h5.7l-.2-44.2-.1-44.3H426.4v44.2zM277.5 43.8c-1.6 1-6.6 3.8-11 6.2-4.4 2.3-10.7 5.7-14 7.5-3.3 1.8-8.9 4.8-12.5 6.8-3.6 1.9-9.2 4.9-12.5 6.7-8.6 4.7-19 10.4-34.8 18.9L179 97.3v72.4l-23.1-.1c-14.3-.1-23.3.3-23.7.9-.4.5-.7 17.6-.7 38l.1 37 23.7.3 23.7.2.1 90.8c.1 108.5.5 124.9 3.3 134.1.3.9.8 3.2 1 5.1.3 1.9 1.4 6.4 2.6 10 6.3 19.7 17.2 32.9 34 41.1 9.2 4.5 22.6 9.3 29.3 10.4 7.9 1.3 10.3 1.8 12.2 2.3 1.1.3 10.1.6 20 .7 27.6.3 50.2-3.1 72.3-10.8l9.4-3.2-.7-5.5c-.3-3-.8-7.5-1.1-10-.3-2.5-.7-6.1-.9-8-1.6-13.2-2.2-18.6-3-25.5-.4-3.3-.8-7-1-8.3-.2-1.3-.7-5.5-1.1-9.3-.4-3.8-1.1-7.2-1.6-7.5-.4-.3-3.8.4-7.4 1.6-11.1 3.7-28.1 6.7-35.6 6.4-12.9-.7-22.3-8.3-24.3-19.9-.4-2.2-.9-47.1-1.2-99.7l-.5-95.7H320c19.3.1 35.3-.1 35.6-.4.4-.4.8-60 .5-73.5l-.1-2.2h-36.4c-28.2 0-36.5-.3-36.8-1.3-.2-.6-.4-29.2-.3-63.5 0-41.1-.3-62.2-1-62.2-.5 0-2.3.8-4 1.8zM427 357.2c-.1 103.6-.3 190.5-.5 193.3-1.6 20-5.7 27.6-18.2 33.8-7.7 3.8-14.1 5.2-24.8 5.1-9.8 0-15.8-.7-22.2-2.4-3-.8-3.2-.6-3.9 2.3-.4 1.8-.9 3.6-1 4.2-.2.5-.6 2.3-.9 4-.3 1.6-2.4 10.6-4.5 20-7.5 33-11.3 50.6-10.9 51 .8.7 18.9 4.4 31.9 6.4 61.9 9.8 109.2-2.1 135.2-33.9 2.4-3 5.6-7.6 7.1-10.2 2.7-4.7 8.1-19.8 9.1-25.3 2.9-17.1 3.1-18.5 4.2-30 .3-3.9.8-8.8 1.1-11 .3-2.2.7-92.1.9-199.8l.3-195.7H427v188.2z"/></svg>