<svg width="106" height="155" viewBox="0 0 106 155" fill="none" xmlns="http://www.w3.org/2000/svg">
<path fill-rule="evenodd" clip-rule="evenodd" d="M44.4385 9.8208L21.8227 13.0743C22.0042 14.3232 21.891 15.5971 21.4921 16.7947C21.0933 17.9924 20.4197 19.0806 19.5251 19.973C18.6305 20.8653 17.5394 21.5372 16.3388 21.935C15.1381 22.3329 13.861 22.4458 12.6089 22.2648L9.34717 44.8234L19.4388 26.6228L52.7562 53.1266L26.1901 19.887L44.4385 9.8208Z" fill="#00ADEE"/>
<path d="M18.6554 19.1029C21.3475 16.4176 21.3475 12.0638 18.6554 9.37851C15.9633 6.69318 11.5984 6.6932 8.90628 9.37853C6.21414 12.0638 6.21415 16.4176 8.90629 19.1029C11.5984 21.7883 15.9632 21.7883 18.6554 19.1029Z" fill="#00ADEE"/>
<path fill-rule="evenodd" clip-rule="evenodd" d="M16.2039 48.6833L19.4422 31.2363L9.84302 47.288C10.656 47.8949 11.3161 48.6825 11.7707 49.5882C12.2253 50.4939 12.462 51.4929 12.462 52.5058C12.462 53.5187 12.2253 54.5176 11.7707 55.4233C11.3161 56.3291 10.656 57.1166 9.84302 57.7235L19.0569 74.1679L16.209 56.3282L50.2299 52.5066L16.2039 48.6833Z" fill="#9D2276"/>
<path d="M5.93144 58.0292C8.9902 58.0292 11.4698 55.5558 11.4698 52.5048C11.4698 49.4538 8.9902 46.9805 5.93144 46.9805C2.87267 46.9805 0.393066 49.4538 0.393066 52.5048C0.393066 55.5558 2.87267 58.0292 5.93144 58.0292Z" fill="#9D2276"/>
<path fill-rule="evenodd" clip-rule="evenodd" d="M52.1465 12.9222C51.1309 12.9228 50.1292 12.6869 49.2212 12.2332C48.3132 11.7794 47.524 11.1205 46.9164 10.3087L30.824 19.8836L48.3153 16.6535L52.1465 50.5884L55.9778 16.6535L73.8611 19.4943L57.3766 10.3037C56.7696 11.1164 55.9806 11.7763 55.0726 12.2309C54.1645 12.6855 53.1625 12.9223 52.1465 12.9222Z" fill="#F26C21"/>
<path d="M52.1448 11.931C55.2036 11.931 57.6832 9.45769 57.6832 6.40668C57.6832 3.35566 55.2036 0.882324 52.1448 0.882324C49.0861 0.882324 46.6064 3.35566 46.6064 6.40668C46.6064 9.45769 49.0861 11.931 52.1448 11.931Z" fill="#F26C21"/>
<path fill-rule="evenodd" clip-rule="evenodd" d="M52.7629 53.1201L79.334 86.3531L61.0872 96.4193L83.7031 93.1658C83.5213 91.9168 83.6342 90.6427 84.0329 89.4449C84.4317 88.2472 85.1052 87.1587 85.9999 86.2663C86.8946 85.3739 87.9858 84.702 89.1866 84.3043C90.3874 83.9066 91.6648 83.7939 92.917 83.9753L96.1787 61.4167L86.0786 79.6256L52.7629 53.1201Z" fill="#3C8376"/>
<path d="M96.6181 96.8588C99.3102 94.1734 99.3102 89.8197 96.6181 87.1344C93.9259 84.449 89.5611 84.449 86.869 87.1344C84.1768 89.8197 84.1768 94.1735 86.8689 96.8588C89.5611 99.5441 93.9259 99.5441 96.6181 96.8588Z" fill="#3C8376"/>
<path fill-rule="evenodd" clip-rule="evenodd" d="M53.3777 55.6514L49.5464 89.5845L31.6631 86.7438L48.1476 95.9344C48.756 95.1234 49.5455 94.465 50.4536 94.0116C51.3616 93.5581 52.3631 93.322 53.3785 93.322C54.394 93.322 55.3955 93.5581 56.3035 94.0116C57.2115 94.465 58.0011 95.1234 58.6095 95.9344L74.702 86.3595L57.2107 89.5845L53.3777 55.6514Z" fill="#F7AAAC"/>
<path d="M53.3777 105.356C56.4365 105.356 58.9161 102.882 58.9161 99.8315C58.9161 96.7805 56.4365 94.3071 53.3777 94.3071C50.319 94.3071 47.8394 96.7805 47.8394 99.8315C47.8394 102.882 50.319 105.356 53.3777 105.356Z" fill="#F7AAAC"/>
<path fill-rule="evenodd" clip-rule="evenodd" d="M95.6812 48.5165L86.4673 32.0737L89.3152 49.9117L55.2942 53.7333L89.3152 57.5549L86.0769 75.0019L95.6761 58.9502C94.8631 58.3434 94.2031 57.5558 93.7484 56.6501C93.2938 55.7444 93.0572 54.7454 93.0572 53.7325C93.0572 52.7196 93.2938 51.7206 93.7484 50.8149C94.2031 49.9092 94.8631 49.1217 95.6761 48.5148L95.6812 48.5165Z" fill="#F7981D"/>
<path d="M99.5929 59.2592C102.652 59.2592 105.131 56.7858 105.131 53.7348C105.131 50.6838 102.652 48.2104 99.5929 48.2104C96.5341 48.2104 94.0544 50.6838 94.0544 53.7348C94.0544 56.7858 96.5341 59.2592 99.5929 59.2592Z" fill="#F7981D"/>
<path fill-rule="evenodd" clip-rule="evenodd" d="M19.4457 79.6254L9.354 61.4231L12.6157 83.9817C13.8678 83.8007 15.145 83.9136 16.3456 84.3115C17.5463 84.7093 18.6374 85.3812 19.532 86.2735C20.4266 87.1659 21.1001 88.2541 21.499 89.4517C21.8978 90.6494 22.0111 91.9233 21.8296 93.1722L44.4455 96.4257L26.1903 86.3512L52.7615 53.1182L19.4457 79.6254Z" fill="#42A8C7"/>
<path d="M18.6509 96.8722C21.3437 94.1862 21.3437 89.8314 18.6509 87.1454C15.9581 84.4594 11.5922 84.4594 8.89941 87.1454C6.20661 89.8314 6.20662 94.1862 8.89941 96.8722C11.5922 99.5581 15.9581 99.5582 18.6509 96.8722Z" fill="#42A8C7"/>
<path fill-rule="evenodd" clip-rule="evenodd" d="M85.9965 19.9706C85.1017 19.0795 84.428 17.9923 84.0289 16.7956C83.6299 15.5989 83.5166 14.3258 83.6981 13.0777L61.0822 9.82422L79.329 19.8904L52.7629 53.12L86.0803 26.6162L96.172 44.8168L92.9103 22.2582C91.6589 22.4404 90.3821 22.3284 89.1817 21.9313C87.9814 21.5341 86.8906 20.8627 85.9965 19.9706Z" fill="#94B73D"/>
<path d="M96.6305 19.1039C99.3226 16.4186 99.3226 12.0648 96.6305 9.37948C93.9383 6.69416 89.5735 6.69415 86.8814 9.37947C84.1893 12.0648 84.1892 16.4186 86.8814 19.1039C89.5735 21.7892 93.9383 21.7892 96.6305 19.1039Z" fill="#94B73D"/>
<path d="M15.688 137.377V116.531H18.5007V137.375L15.688 137.377Z" fill="#5B6A77"/>
<path d="M20.97 129.517C20.961 128.448 21.1531 127.387 21.5362 126.388C21.9171 125.416 22.4863 124.528 23.2115 123.775C23.9678 122.953 24.8784 122.286 25.8919 121.813C26.8626 121.361 27.9212 121.126 28.9928 121.126C30.0851 121.109 31.1693 121.317 32.178 121.735C33.1867 122.154 34.0983 122.775 34.8562 123.559C35.6168 124.329 36.2235 125.237 36.6436 126.233C37.0563 127.207 37.2688 128.254 37.2685 129.311C37.2689 130.388 37.0719 131.455 36.6872 132.461C35.9133 134.527 34.357 136.207 32.3533 137.14C31.3507 137.594 30.2614 137.826 29.1603 137.82C28.0618 137.831 26.9724 137.619 25.9589 137.197C24.9661 136.77 24.0719 136.145 23.3321 135.358C22.5896 134.576 22.003 133.66 21.6033 132.66C21.1896 131.663 20.9745 130.595 20.97 129.517ZM23.9117 129.488C23.9117 131.063 24.4143 132.376 25.4195 133.425C25.8956 133.936 26.4751 134.341 27.1197 134.612C27.7643 134.884 28.4592 135.016 29.1586 134.999C29.8507 135.014 30.5378 134.88 31.1735 134.607C31.8093 134.334 32.379 133.928 32.8442 133.417C33.8348 132.362 34.3301 131.042 34.3301 129.458C34.3301 127.874 33.8348 126.557 32.8442 125.506C32.3618 125.011 31.7843 124.617 31.1461 124.349C30.5079 124.081 29.8222 123.944 29.1297 123.946C28.4373 123.948 27.7523 124.089 27.1157 124.361C26.4791 124.633 25.904 125.03 25.4245 125.528C24.4171 126.584 23.9134 127.904 23.9134 129.488H23.9117Z" fill="#5B6A77"/>
<path d="M42.5708 137.377H39.7229V121.629H42.3932V123.447C42.8004 122.809 43.354 122.276 44.0082 121.893C44.6585 121.544 45.3869 121.364 46.1257 121.37V124.333C44.8525 124.429 43.9411 124.804 43.3917 125.458C42.8422 126.112 42.5669 127.164 42.5658 128.614L42.5708 137.377Z" fill="#5B6A77"/>
<path d="M50.3139 130.548C50.5119 131.792 51.1451 132.926 52.1013 133.748C53.0422 134.56 54.2512 134.997 55.4954 134.973C56.3957 134.986 57.2825 134.753 58.0593 134.299C58.8361 133.844 59.4732 133.186 59.9013 132.396H63.1027C62.3756 134.143 61.3587 135.48 60.052 136.407C58.7196 137.341 57.1236 137.827 55.4954 137.795C54.3975 137.809 53.3083 137.6 52.294 137.18C51.3005 136.751 50.4062 136.123 49.6672 135.334C48.9247 134.552 48.3381 133.636 47.9384 132.635C47.5276 131.638 47.3153 130.57 47.3135 129.492C47.305 128.43 47.497 127.376 47.8797 126.386C48.266 125.41 48.8345 124.516 49.555 123.752C50.2893 122.921 51.1959 122.258 52.212 121.811C53.2281 121.364 54.3295 121.142 55.4401 121.16C56.7906 121.151 58.1214 121.483 59.3082 122.126C60.4992 122.77 61.5126 123.697 62.2584 124.825C62.7216 125.55 63.0655 126.345 63.2769 127.179C63.5107 128.137 63.6233 129.121 63.6119 130.107V130.551L50.3139 130.548ZM60.4893 128C60.1353 126.702 59.521 125.699 58.6465 124.992C57.7637 124.277 56.6542 123.899 55.5172 123.926C54.3433 123.902 53.1981 124.29 52.2806 125.02C51.367 125.75 50.7377 126.745 50.3926 128.005L60.4893 128Z" fill="#5B6A77"/>
<path d="M75.7693 129.431C75.7693 127.513 75.4979 126.12 74.9551 125.254C74.4124 124.387 73.5501 123.952 72.3685 123.95C71.1489 123.95 70.2482 124.387 69.6664 125.26C69.0845 126.134 68.7941 127.487 68.7952 129.319V137.378H66.0947V121.631H68.621V123.477C69.0871 122.822 69.6959 122.281 70.4018 121.895C71.1033 121.537 71.8824 121.358 72.6701 121.372C73.8148 121.372 74.7686 121.591 75.5314 122.03C76.2942 122.469 76.9191 123.157 77.406 124.092C77.8391 123.235 78.5148 122.523 79.3493 122.045C80.1557 121.6 81.139 121.377 82.2994 121.377C84.0864 121.377 85.5159 121.957 86.5881 123.116C87.6602 124.276 88.1974 125.825 88.1996 127.762V137.382H85.3517V128.205C85.3517 126.859 85.0564 125.814 84.4655 125.07C83.8747 124.326 83.0511 123.954 81.9946 123.954C80.766 123.954 79.882 124.35 79.3426 125.142C78.8032 125.934 78.534 127.271 78.5351 129.152V137.383H75.7794L75.7693 129.431Z" fill="#5B6A77"/>
<path d="M27.7917 152.004V145.704H26.7212V144.471H27.7917V142.033H29.1436V144.471H30.2108V145.704H29.1403V152.004H27.7917Z" fill="#5B6A77"/>
<path d="M38.0024 152.003V151.079C37.6731 151.427 37.2772 151.705 36.8381 151.898C36.4054 152.084 35.9388 152.178 35.4677 152.175C34.9436 152.19 34.4221 152.097 33.9356 151.903C33.449 151.708 33.008 151.415 32.6399 151.042C32.2688 150.67 31.9775 150.226 31.784 149.738C31.5904 149.249 31.4986 148.727 31.5141 148.202C31.5118 147.687 31.6073 147.177 31.7956 146.698C31.9776 146.231 32.2503 145.805 32.598 145.445C32.9479 145.068 33.3723 144.768 33.8444 144.564C34.3339 144.367 34.858 144.271 35.3856 144.28C35.875 144.275 36.3604 144.368 36.8129 144.554C37.2622 144.748 37.6665 145.033 38.0007 145.389V144.479H39.3744V152.012L38.0024 152.003ZM32.9213 148.188C32.9123 148.542 32.9748 148.894 33.1052 149.224C33.2356 149.553 33.4311 149.853 33.6802 150.105C33.9191 150.356 34.2077 150.554 34.5275 150.687C34.8474 150.82 35.1916 150.885 35.5381 150.879C35.8705 150.878 36.1992 150.808 36.5033 150.675C36.8075 150.541 37.0807 150.346 37.3055 150.102C37.5497 149.866 37.7435 149.583 37.8751 149.271C38.0067 148.958 38.0733 148.623 38.0711 148.284C38.077 147.933 38.0129 147.584 37.8826 147.258C37.7524 146.932 37.5585 146.635 37.3122 146.384C37.0844 146.133 36.8061 145.933 36.4955 145.797C36.1849 145.66 35.8489 145.591 35.5096 145.593C35.1684 145.593 34.8306 145.66 34.5155 145.79C34.2004 145.921 33.9143 146.112 33.6737 146.353C33.4331 146.594 33.2427 146.881 33.1136 147.196C32.9845 147.511 32.9191 147.848 32.9213 148.188Z" fill="#5B6A77"/>
<path d="M41.77 152.607H43.2191C43.4161 152.946 43.7023 153.224 44.0467 153.412C44.4077 153.602 44.8112 153.698 45.2193 153.69C45.9832 153.69 46.5975 153.46 47.0621 153.001C47.5267 152.542 47.7601 151.934 47.7623 151.176V151.081C47.433 151.429 47.0371 151.707 46.5981 151.9C46.1654 152.086 45.6988 152.18 45.2277 152.177C44.7036 152.192 44.1821 152.099 43.6955 151.905C43.209 151.71 42.768 151.417 42.3999 151.044C42.0288 150.672 41.7375 150.228 41.544 149.74C41.3505 149.251 41.2587 148.729 41.2741 148.204C41.2718 147.689 41.3673 147.179 41.5556 146.7C41.7376 146.233 42.0103 145.807 42.358 145.447C42.7079 145.07 43.1323 144.77 43.6044 144.566C44.0939 144.369 44.618 144.273 45.1456 144.282C45.6338 144.277 46.118 144.371 46.5695 144.556C47.0229 144.751 47.4325 145.036 47.7741 145.391V144.481H49.1411V150.767C49.1411 152.077 48.7998 153.103 48.1175 153.845C47.4351 154.587 46.497 154.958 45.3031 154.958C44.5188 154.981 43.7458 154.767 43.0851 154.345C42.4645 153.928 42.0016 153.316 41.77 152.607ZM42.683 148.19C42.6739 148.544 42.7365 148.896 42.8668 149.226C42.9972 149.555 43.1928 149.855 43.4419 150.107C43.6807 150.358 43.9693 150.556 44.2892 150.689C44.609 150.822 44.9532 150.887 45.2997 150.881C45.6322 150.88 45.9608 150.81 46.265 150.677C46.5691 150.543 46.8423 150.348 47.0671 150.104C47.3113 149.868 47.5051 149.585 47.6367 149.273C47.7682 148.96 47.8349 148.624 47.8327 148.286C47.8386 147.935 47.7745 147.586 47.6443 147.26C47.514 146.934 47.3201 146.636 47.0738 146.386C46.846 146.135 46.5677 145.935 46.2571 145.799C45.9465 145.662 45.6105 145.593 45.2712 145.595C44.9301 145.595 44.5922 145.662 44.2771 145.792C43.962 145.923 43.6759 146.114 43.4353 146.355C43.1947 146.596 43.0044 146.883 42.8753 147.198C42.7461 147.513 42.6808 147.85 42.683 148.19Z" fill="#5B6A77"/>
<path d="M51.416 152.004V142.033H52.7561V152.004H51.416Z" fill="#5B6A77"/>
<path d="M56.4319 143.587H55.0918V142.033H56.4319V143.587ZM55.0918 152.004V144.471H56.4319V152.004H55.0918Z" fill="#5B6A77"/>
<path d="M60.114 152.003H58.7554V144.47H60.0604V145.326C60.3134 145.012 60.6333 144.758 60.9969 144.582C61.3657 144.419 61.766 144.339 62.1695 144.347C63.1579 144.347 63.9168 144.636 64.4462 145.216C64.9755 145.795 65.2397 146.626 65.2386 147.709V152.003H63.8715V148.005C63.8715 147.206 63.723 146.614 63.4259 146.228C63.1289 145.843 62.6687 145.65 62.0455 145.65C61.3676 145.65 60.8768 145.877 60.573 146.332C60.2692 146.786 60.1174 147.536 60.1174 148.581L60.114 152.003Z" fill="#5B6A77"/>
<path d="M68.5403 148.737C68.6348 149.332 68.9375 149.874 69.3947 150.267C69.8449 150.656 70.4231 150.864 71.0181 150.852C71.4488 150.859 71.8731 150.747 72.2446 150.53C72.6162 150.312 72.9209 149.997 73.1255 149.619H74.6567C74.3631 150.384 73.8569 151.048 73.1976 151.536C72.5612 151.984 71.7984 152.218 71.0197 152.204C70.4946 152.211 69.9736 152.111 69.4885 151.91C69.0132 151.705 68.5855 151.404 68.2321 151.026C67.8766 150.652 67.5958 150.213 67.4045 149.734C67.2082 149.257 67.1069 148.746 67.1063 148.231C67.1024 147.723 67.1945 147.219 67.3777 146.745C67.5618 146.278 67.8329 145.851 68.1768 145.485C68.528 145.088 68.9616 144.771 69.4475 144.557C69.9334 144.343 70.4601 144.236 70.9912 144.245C71.6348 144.242 72.2686 144.401 72.834 144.708C73.4036 145.016 73.8881 145.46 74.2446 146C74.4663 146.347 74.6308 146.727 74.7321 147.126C74.8429 147.584 74.8958 148.055 74.8895 148.526V148.739L68.5403 148.737ZM73.4086 147.519C73.276 146.957 72.968 146.452 72.5291 146.077C72.107 145.735 71.5766 145.554 71.0331 145.567C70.4717 145.555 69.9239 145.74 69.4852 146.09C69.0376 146.456 68.7209 146.957 68.5822 147.517L73.4086 147.519Z" fill="#5B6A77"/>
</svg>
