<svg width="88" height="165" viewBox="0 0 88 165" fill="none" xmlns="http://www.w3.org/2000/svg">
<path d="M46.2109 121.978C59.0362 121.978 69.4332 121.378 69.4332 120.638C69.4332 119.898 59.0362 119.298 46.2109 119.298C33.3855 119.298 22.9885 119.898 22.9885 120.638C22.9885 121.378 33.3855 121.978 46.2109 121.978Z" fill="#D0D2D3"/>
<path d="M34.9264 53.1462C34.4674 48.3588 34.2999 23.6245 39.9957 23.4909C40.4964 23.4692 40.9951 23.5654 41.4515 23.7716C38.173 21.9485 34.0804 23.6947 32.6866 27.3125C29.5321 35.5255 27.9591 46.905 27.8284 51.6139C27.7413 54.8022 27.8116 58.2528 28.0629 61.9742C30.6579 72.0336 40.4598 74.2243 46.3868 71.8983C39.1799 72.8457 36.1946 66.5795 34.9264 53.1462Z" fill="url(#paint0_linear)"/>
<g style="mix-blend-mode:soft-light" opacity="0.7">
<path fill-rule="evenodd" clip-rule="evenodd" d="M33.4857 38.4364C33.7588 34.4561 34.2329 29.2108 35.8679 25.5195C33.7755 27.6918 32.5074 32.5578 31.8574 35.1947C30.6076 40.2695 29.4919 46.4188 29.3445 51.6558C29.3021 53.1842 29.2965 54.7137 29.3278 56.2444C30.0515 62.016 33.1808 66.9104 36.9954 68.4644C34.6165 64.1866 33.866 58.0808 33.412 53.29C32.9748 48.6279 33.1657 43.1002 33.4857 38.4364Z" fill="white"/>
</g>
<path opacity="0.2" d="M29.274 39.9502C28.8049 42.44 28.4514 44.8195 28.2102 46.8815C30.455 48.2183 32.596 49.749 34.8006 51.1509C34.7118 48.9953 34.68 45.8037 34.8006 42.3464C32.9595 41.5544 31.1168 40.7222 29.274 39.9502Z" fill="#422010"/>
<path d="M69.8587 35.6827C63.6268 39.3439 54.9791 46.1766 47.4338 46.698C41.681 47.0957 34.3769 43.132 27.9339 40.5152C22.0705 38.1374 12.9354 37.1398 13.1096 46.6094C14.0779 39.1484 22.0404 42.5104 26.2888 44.6276C33.5192 48.2336 39.4412 54.7556 47.3048 54.3863C57.7182 53.8967 77.327 35.0627 79.5919 38.6905C79.5919 33.3266 73.6565 33.4519 69.8587 35.6827Z" fill="url(#paint1_linear)"/>
<path opacity="0.2" d="M48.4341 46.5942C48.6971 49.1158 48.8763 51.6523 48.9953 54.1722C51.5835 53.6492 54.5806 52.2773 57.6697 50.5411C57.2331 48.3309 56.7506 46.1302 56.2223 43.939C53.6073 45.2424 50.9687 46.2433 48.4341 46.5942Z" fill="#422010"/>
<path d="M25.1245 73.9852C16.3579 59.551 13.1448 51.2595 13.1096 46.6157C13.0544 39.4087 18.5877 37.3333 28.1199 40.6001C23.3019 38.7052 19.4337 37.7962 16.368 37.6725C18.0897 36.2785 19.2756 34.3339 19.7249 32.1679C20.1743 30.0018 19.8593 27.7475 18.8335 25.7864C17.8077 23.8254 16.1341 22.2782 14.0959 21.4068C12.0578 20.5353 9.78027 20.3932 7.64909 21.0044C5.51791 21.6157 3.66398 22.9427 2.40113 24.7609C1.13829 26.5791 0.544133 28.7767 0.71926 30.9817C0.894387 33.1867 1.82801 35.2636 3.36211 36.8608C4.89622 38.458 6.93655 39.4773 9.13763 39.7462C1.31254 46.7243 10.9938 69.4902 18.5324 81.8138C24.317 91.2734 29.3847 98.3201 33.8023 103.33C40.4748 107.006 46.5476 99.7855 46.7285 91.4656C43.1686 97.6918 38.5985 96.1678 25.1245 73.9852Z" fill="url(#paint2_linear)"/>
<g style="mix-blend-mode:soft-light" opacity="0.5">
<path fill-rule="evenodd" clip-rule="evenodd" d="M35.0874 92.3047C30.5994 87.412 26.5888 80.8516 23.1445 75.1819C18.561 67.6339 6.62989 48.8585 12.4531 40.4399C8.11417 41.9823 8.2867 47.5818 8.79095 51.3516C10.0524 60.7728 15.5506 72.5049 20.5077 80.611C23.3791 85.3065 26.4733 90.1357 29.8271 94.6792C31.4002 96.8131 33.5043 98.8149 35.6369 99.4248C38.2067 100.16 40.5873 98.728 41.636 96.8314C39.0578 96.3017 36.7576 94.1294 35.0874 92.3047Z" fill="white"/>
</g>
<path d="M44.9595 20.1421C47.239 19.378 49.1812 17.8471 50.4536 15.8118C51.7259 13.7764 52.2493 11.3631 51.934 8.98514C51.6188 6.6072 50.4845 4.41254 48.7255 2.77701C46.9665 1.14147 44.6921 0.166802 42.2919 0.0199064C39.8917 -0.126989 37.5149 0.563027 35.5686 1.9718C33.6223 3.38056 32.2276 5.42044 31.6233 7.74211C31.0189 10.0638 31.2426 12.5228 32.2559 14.6981C33.2693 16.8733 35.0093 18.6295 37.178 19.6659C35.1593 21.5725 33.4807 24.9429 32.1305 28.8464C34.1793 23.9353 39.6373 20.6585 43.5992 25.6364C44.7987 27.1403 45.8977 29.3811 46.8694 32.1533C54.093 52.7452 51.6103 126.589 26.0962 93.3791C68.3026 153.428 64.106 62.2398 50.3087 29.1957C48.6418 25.2086 46.8375 22.0688 44.9595 20.1421Z" fill="url(#paint3_linear)"/>
<g style="mix-blend-mode:soft-light" opacity="0.5">
<path fill-rule="evenodd" clip-rule="evenodd" d="M47.0653 26.6606C51.4209 37.8865 52.5601 52.6482 52.3273 64.6594C52.1597 73.6344 50.652 105.098 36.8865 103.761C39.7461 106.792 46.04 112.831 50.5029 111.113C55.2187 109.294 56.8119 99.6453 57.3228 95.3959C58.534 85.3448 57.8824 74.2827 56.6427 64.2516C55.4081 54.1922 52.0274 35.0926 47.0653 26.6606Z" fill="white"/>
</g>
<path opacity="0.2" d="M50.1778 69.6709C49.8595 75.6531 49.1726 81.4498 48.0703 86.4395C51.4912 85.1026 56.718 81.5568 59.8189 79.3527C59.6598 74.6338 59.2711 69.7227 58.6864 64.8149C56.0781 66.76 53.1715 68.5379 50.1778 69.6709Z" fill="#422010"/>
<path d="M87.9866 22.8727C87.8897 21.0377 87.2869 19.2651 86.2446 17.75C85.2022 16.2349 83.7608 15.0363 82.0792 14.2861C80.3975 13.536 78.5409 13.2634 76.7139 13.4985C74.8869 13.7336 73.1604 14.4672 71.7247 15.6185C70.2889 16.7698 69.1997 18.2941 68.577 20.0234C67.9542 21.7527 67.8222 23.62 68.1954 25.4194C68.5685 27.2188 69.4325 28.8805 70.6919 30.2214C71.9514 31.5623 73.5576 32.5304 75.3334 33.019C73.4772 33.7125 71.3715 34.7469 68.9909 36.1789C75.9432 32.7935 79.2702 35.3434 79.5902 38.6971C79.6924 45.8056 61.33 70.2006 45.6816 71.9953C38.4546 72.8308 30.1537 71.3553 27.8101 56.1024C27.8648 59.2104 28.063 62.5402 28.4048 66.0916C29.9008 81.3947 37.8716 91.6146 51.0909 83.6255C53.6457 82.0815 56.4919 80.2651 58.911 78.5607C81.1163 62.9201 92.2333 35.5573 82.6057 32.2521C84.3105 31.3687 85.7244 30.0146 86.6785 28.3514C87.6327 26.6883 88.0868 24.7863 87.9866 22.8727Z" fill="url(#paint4_linear)"/>
<g style="mix-blend-mode:soft-light" opacity="0.5">
<path fill-rule="evenodd" clip-rule="evenodd" d="M79.6372 34.132C84.4552 36.9292 79.8651 45.5817 77.2316 49.654C74.1208 54.4111 70.4666 58.7918 66.3424 62.7079C60.9699 67.8212 53.5117 73.2804 45.9312 74.1493C40.3174 74.7926 35.042 73.9404 31.1035 69.6376C32.1254 75.085 34.454 81.5218 39.2838 83.5955C42.8705 85.1328 46.8325 83.6607 49.9669 81.7674C62.6301 74.1159 72.896 65.0239 79.845 51.6441C81.6392 48.1969 88.3167 33.1996 79.6372 34.132Z" fill="white"/>
</g>
<g style="mix-blend-mode:soft-light" opacity="0.4">
<path d="M10.6969 37.6694C14.8168 37.454 17.9816 33.9481 17.7657 29.8386C17.5498 25.7292 14.0349 22.5724 9.91502 22.7878C5.79515 23.0031 2.63035 26.5091 2.84627 30.6185C3.06218 34.728 6.57704 37.8848 10.6969 37.6694Z" fill="white"/>
</g>
<g style="mix-blend-mode:soft-light" opacity="0.4">
<path d="M42.0748 18.3486C46.5033 18.1171 49.9052 14.3486 49.6731 9.93131C49.441 5.51405 45.6628 2.12082 41.2343 2.35232C36.8058 2.58382 33.404 6.35238 33.6361 10.7696C33.8681 15.1869 37.6463 18.5801 42.0748 18.3486Z" fill="white"/>
</g>
<g style="mix-blend-mode:soft-light" opacity="0.4">
<path d="M78.3837 30.8486C82.5035 30.6332 85.6683 27.1273 85.4524 23.0178C85.2365 18.9084 81.7216 15.7516 77.6018 15.967C73.4819 16.1823 70.3171 19.6883 70.533 23.7977C70.7489 27.9072 74.2638 31.064 78.3837 30.8486Z" fill="white"/>
</g>
<path d="M13.3105 147.279V126.435H16.1232V147.279H13.3105Z" fill="#5B6A77"/>
<path d="M18.5928 139.414C18.5838 138.345 18.7759 137.284 19.1591 136.285C19.5399 135.313 20.1092 134.425 20.8343 133.672C21.5906 132.85 22.5013 132.183 23.5147 131.71C24.4855 131.258 25.544 131.023 26.6156 131.023C27.7079 131.006 28.7921 131.214 29.8008 131.632C30.8095 132.051 31.7211 132.672 32.479 133.456C33.2396 134.226 33.8463 135.134 34.2665 136.13C34.6791 137.104 34.8916 138.151 34.8914 139.208C34.8918 140.285 34.6948 141.352 34.31 142.358C33.5364 144.424 31.98 146.104 29.9762 147.037C28.9735 147.491 27.8842 147.723 26.7831 147.717C25.6839 147.731 24.5934 147.521 23.5784 147.1C22.5856 146.674 21.6914 146.048 20.9516 145.262C20.2091 144.48 19.6224 143.564 19.2227 142.563C18.8094 141.564 18.5954 140.494 18.5928 139.414ZM21.5346 139.385C21.5346 140.96 22.0372 142.273 23.0423 143.322C23.5185 143.833 24.098 144.238 24.7425 144.509C25.3871 144.781 26.0821 144.913 26.7815 144.896C27.4735 144.911 28.1606 144.777 28.7964 144.504C29.4322 144.231 30.0019 143.825 30.467 143.314C31.4577 142.259 31.953 140.939 31.953 139.355C31.953 137.771 31.4577 136.454 30.467 135.403C29.9846 134.908 29.4071 134.514 28.769 134.246C28.1308 133.978 27.445 133.841 26.7526 133.843C26.0601 133.845 25.3751 133.986 24.7385 134.258C24.102 134.53 23.5268 134.927 23.0473 135.425C22.0388 136.484 21.5351 137.807 21.5363 139.392L21.5346 139.385Z" fill="#5B6A77"/>
<path d="M40.1934 147.279H37.3455V131.532H40.0158V133.35C40.423 132.711 40.9765 132.179 41.6307 131.796C42.281 131.446 43.0095 131.266 43.7482 131.273V134.234C42.475 134.329 41.5637 134.704 41.0143 135.358C40.4648 136.012 40.1895 137.064 40.1883 138.515L40.1934 147.279Z" fill="#5B6A77"/>
<path d="M47.9296 140.451C48.1276 141.695 48.7609 142.829 49.7171 143.651C50.6579 144.464 51.8669 144.9 53.1111 144.876C54.0115 144.889 54.8983 144.656 55.6751 144.202C56.4519 143.748 57.0889 143.09 57.517 142.299H60.7184C59.9913 144.046 58.9745 145.383 57.6678 146.31C56.3354 147.244 54.7393 147.73 53.1111 147.698C52.0132 147.712 50.924 147.503 49.9097 147.084C48.9162 146.655 48.022 146.026 47.283 145.237C46.5405 144.455 45.9538 143.539 45.5541 142.538C45.1433 141.541 44.9311 140.473 44.9292 139.395C44.9207 138.333 45.1128 137.28 45.4955 136.289C45.8818 135.313 46.4503 134.42 47.1707 133.655C47.9051 132.824 48.8116 132.162 49.8277 131.714C50.8438 131.267 51.9453 131.045 53.0558 131.064C54.4063 131.054 55.7372 131.387 56.924 132.029C58.115 132.673 59.1283 133.6 59.8741 134.728C60.3373 135.454 60.6812 136.249 60.8926 137.083C61.1265 138.041 61.239 139.024 61.2277 140.01V140.455L47.9296 140.451ZM58.105 137.91C57.751 136.612 57.1367 135.609 56.2623 134.902C55.3794 134.187 54.2699 133.809 53.1329 133.836C51.959 133.812 50.8139 134.2 49.8963 134.93C48.9828 135.66 48.3534 136.655 48.0083 137.915L58.105 137.91Z" fill="#5B6A77"/>
<path d="M73.3918 139.334C73.3918 137.415 73.1204 136.023 72.5776 135.156C72.0349 134.289 71.1727 133.855 69.9911 133.853C68.7715 133.853 67.8707 134.289 67.2889 135.163C66.707 136.036 66.4166 137.389 66.4178 139.222V147.281H63.7173V131.533H66.2435V133.38C66.7096 132.725 67.3185 132.184 68.0243 131.797C68.7258 131.44 69.5049 131.26 70.2926 131.274C71.4374 131.274 72.3911 131.494 73.1539 131.933C73.9167 132.372 74.5416 133.059 75.0285 133.995C75.4617 133.137 76.1373 132.426 76.9718 131.948C77.7781 131.502 78.7615 131.279 79.9219 131.279C81.7088 131.279 83.1384 131.859 84.2106 133.019C85.2827 134.178 85.8198 135.727 85.8221 137.664V147.284H82.9742V138.107C82.9742 136.761 82.6788 135.716 82.088 134.972C81.4972 134.228 80.6735 133.856 79.617 133.856C78.3885 133.856 77.5045 134.252 76.9651 135.044C76.4257 135.836 76.1565 137.173 76.1576 139.054V147.286H73.4018L73.3918 139.334Z" fill="#5B6A77"/>
<path d="M25.421 161.907V155.607H24.3506V154.374H25.421V151.936H26.7612V154.374H27.8317V155.607H26.7612V161.907H25.421Z" fill="#5B6A77"/>
<path d="M35.6249 161.907V160.983C35.2956 161.331 34.8997 161.609 34.4606 161.802C34.0279 161.988 33.5614 162.082 33.0903 162.079C32.5662 162.094 32.0447 162.001 31.5581 161.806C31.0716 161.611 30.6305 161.319 30.2624 160.946C29.8913 160.574 29.6001 160.13 29.4066 159.641C29.213 159.153 29.1212 158.631 29.1367 158.106C29.1343 157.591 29.2299 157.081 29.4182 156.602C29.6002 156.135 29.8729 155.709 30.2206 155.348C30.5705 154.972 30.9949 154.672 31.467 154.468C31.9565 154.271 32.4806 154.174 33.0082 154.184C33.4976 154.179 33.983 154.272 34.4355 154.458C34.8847 154.652 35.289 154.936 35.6232 155.293V154.383H36.9969V161.915L35.6249 161.907ZM30.5439 158.092C30.5348 158.446 30.5973 158.798 30.7277 159.128C30.8581 159.457 31.0537 159.757 31.3028 160.009C31.5417 160.259 31.8303 160.457 32.1501 160.591C32.47 160.724 32.8141 160.789 33.1606 160.783C33.493 160.782 33.8217 160.712 34.1258 160.579C34.43 160.445 34.7032 160.25 34.928 160.006C35.1722 159.77 35.366 159.487 35.4976 159.175C35.6292 158.862 35.6959 158.526 35.6936 158.187C35.6995 157.836 35.6354 157.488 35.5051 157.162C35.3749 156.835 35.181 156.538 34.9347 156.288C34.7069 156.037 34.4287 155.837 34.118 155.7C33.8074 155.564 33.4715 155.495 33.1322 155.497C32.791 155.497 32.4532 155.564 32.1381 155.694C31.823 155.824 31.5368 156.016 31.2962 156.257C31.0556 156.498 30.8653 156.785 30.7361 157.1C30.607 157.415 30.5417 157.752 30.5439 158.092Z" fill="#5B6A77"/>
<path d="M39.3909 162.509H40.8333C41.0338 162.847 41.3235 163.124 41.6709 163.309C42.032 163.499 42.4355 163.595 42.8436 163.587C43.6075 163.587 44.2218 163.357 44.6864 162.898C45.151 162.439 45.3844 161.831 45.3866 161.073V160.978C45.0573 161.326 44.6614 161.604 44.2223 161.797C43.7897 161.983 43.3231 162.077 42.852 162.074C42.3279 162.089 41.8064 161.996 41.3199 161.801C40.8334 161.607 40.3923 161.314 40.0242 160.941C39.653 160.569 39.3618 160.125 39.1683 159.637C38.9748 159.148 38.8829 158.626 38.8984 158.101C38.896 157.586 38.9915 157.076 39.1798 156.597C39.3619 156.13 39.6346 155.704 39.9823 155.344C40.3322 154.967 40.7566 154.667 41.2287 154.463C41.7182 154.266 42.2423 154.17 42.7699 154.179C43.2582 154.174 43.7424 154.267 44.1939 154.453C44.6472 154.648 45.0568 154.933 45.3984 155.288V154.378H46.757V160.664C46.757 161.974 46.4158 163 45.7334 163.742C45.051 164.484 44.1129 164.855 42.919 164.855C42.1346 164.878 41.3616 164.664 40.701 164.242C40.0832 163.825 39.6222 163.216 39.3909 162.509ZM40.304 158.092C40.2949 158.446 40.3574 158.798 40.4878 159.128C40.6182 159.457 40.8138 159.757 41.0629 160.009C41.3017 160.26 41.5902 160.458 41.9101 160.591C42.23 160.724 42.5741 160.789 42.9207 160.783C43.2531 160.782 43.5817 160.712 43.8859 160.579C44.1901 160.445 44.4632 160.25 44.6881 160.006C44.9323 159.77 45.126 159.487 45.2576 159.175C45.3892 158.862 45.4559 158.527 45.4537 158.188C45.458 157.837 45.3924 157.488 45.2607 157.163C45.129 156.837 44.9338 156.541 44.6864 156.291C44.4586 156.04 44.1803 155.84 43.8697 155.704C43.5591 155.568 43.2231 155.498 42.8838 155.501C42.5427 155.5 42.2048 155.567 41.8897 155.697C41.5746 155.828 41.2885 156.019 41.0479 156.26C40.8073 156.502 40.6169 156.788 40.4878 157.103C40.3587 157.418 40.2934 157.755 40.2956 158.096L40.304 158.092Z" fill="#5B6A77"/>
<path d="M49.042 161.907V151.936H50.3822V161.907H49.042Z" fill="#5B6A77"/>
<path d="M54.0543 153.49H52.7141V151.936H54.0543V153.49ZM52.7141 161.907V154.374H54.0543V161.907H52.7141Z" fill="#5B6A77"/>
<path d="M57.7365 161.907H56.3779V154.374H57.683V155.23C57.936 154.916 58.2559 154.662 58.6194 154.486C58.9883 154.323 59.3886 154.242 59.7921 154.251C60.7805 154.251 61.5394 154.54 62.0688 155.119C62.5981 155.699 62.8623 156.53 62.8611 157.613V161.907H61.4942V157.908C61.4942 157.11 61.3456 156.518 61.0485 156.132C60.7514 155.747 60.2913 155.554 59.6681 155.554C58.9902 155.554 58.4993 155.781 58.1956 156.236C57.8918 156.69 57.7399 157.44 57.7399 158.485L57.7365 161.907Z" fill="#5B6A77"/>
<path d="M66.1631 158.64C66.2576 159.235 66.5603 159.778 67.0175 160.171C67.4677 160.559 68.0459 160.768 68.6409 160.756C69.0716 160.762 69.4959 160.651 69.8674 160.433C70.239 160.216 70.5437 159.901 70.7483 159.523H72.2795C71.9862 160.288 71.48 160.953 70.8204 161.441C70.184 161.889 69.4212 162.123 68.6425 162.109C68.1174 162.116 67.5965 162.016 67.1114 161.815C66.6361 161.61 66.2084 161.309 65.8549 160.931C65.4994 160.557 65.2186 160.119 65.0273 159.64C64.831 159.162 64.7297 158.652 64.7291 158.136C64.7252 157.628 64.8173 157.124 65.0005 156.65C65.1846 156.184 65.4558 155.756 65.7996 155.39C66.1509 154.993 66.5844 154.676 67.0703 154.462C67.5562 154.248 68.0829 154.142 68.6141 154.15C69.2576 154.147 69.8915 154.307 70.4568 154.613C71.0262 154.921 71.5107 155.364 71.8674 155.903C72.0891 156.25 72.2536 156.631 72.3549 157.03C72.4657 157.488 72.5187 157.958 72.5124 158.43V158.642L66.1631 158.64ZM71.0314 157.422C70.8988 156.861 70.5908 156.356 70.1519 155.98C69.7298 155.638 69.1995 155.458 68.6559 155.471C68.0945 155.459 67.5468 155.644 67.108 155.994C66.6605 156.36 66.3437 156.86 66.205 157.421L71.0314 157.422Z" fill="#5B6A77"/>
<defs>
<linearGradient id="paint0_linear" x1="26.4597" y1="29.1405" x2="49.9159" y2="69.8694" gradientUnits="userSpaceOnUse">
<stop stop-color="#C0D732"/>
<stop offset="0.34" stop-color="#E7CF1B"/>
<stop offset="0.68" stop-color="#EE3B24"/>
<stop offset="1" stop-color="#541249"/>
</linearGradient>
<linearGradient id="paint1_linear" x1="13.1063" y1="44.3218" x2="79.5919" y2="44.3218" gradientUnits="userSpaceOnUse">
<stop stop-color="#FDEA11"/>
<stop offset="0.5" stop-color="#FFCF3F"/>
<stop offset="1" stop-color="#A6CE38"/>
</linearGradient>
<linearGradient id="paint2_linear" x1="23.7073" y1="20.6232" x2="23.7073" y2="104.312" gradientUnits="userSpaceOnUse">
<stop stop-color="#6DCCE8"/>
<stop offset="0.25" stop-color="#E3E439"/>
<stop offset="0.49" stop-color="#E6C11F"/>
<stop offset="0.76" stop-color="#EE3B24"/>
<stop offset="1" stop-color="#541249"/>
</linearGradient>
<linearGradient id="paint3_linear" x1="131026" y1="36812.2" x2="131026" y2="113737" gradientUnits="userSpaceOnUse">
<stop stop-color="#6DCCE8"/>
<stop offset="0.25" stop-color="#E3E439"/>
<stop offset="0.49" stop-color="#E6C11F"/>
<stop offset="0.76" stop-color="#EE3B24"/>
<stop offset="1" stop-color="#541249"/>
</linearGradient>
<linearGradient id="paint4_linear" x1="246221" y1="29171" x2="226396" y2="57485.3" gradientUnits="userSpaceOnUse">
<stop stop-color="#6DCCE8"/>
<stop offset="0.25" stop-color="#E3E439"/>
<stop offset="0.49" stop-color="#E6C11F"/>
<stop offset="0.76" stop-color="#EE3B24"/>
<stop offset="1" stop-color="#541249"/>
</linearGradient>
</defs>
</svg>
