<svg width="106" height="164" viewBox="0 0 106 164" fill="none" xmlns="http://www.w3.org/2000/svg">
<path d="M51.6028 121.033C65.27 121.033 76.3496 120.394 76.3496 119.604C76.3496 118.815 65.27 118.176 51.6028 118.176C37.9355 118.176 26.856 118.815 26.856 119.604C26.856 120.394 37.9355 121.033 51.6028 121.033Z" fill="#D0D2D3"/>
<path d="M64.2542 103.636C61.4984 94.708 77.0632 57.8506 77.0263 45.0289C76.9895 32.5515 72.1228 24.9467 66.0702 21.8771C68.3201 20.8248 70.1573 19.0587 71.2944 16.8547C72.4316 14.6507 72.8048 12.1331 72.3557 9.69515C71.9066 7.25723 70.6605 5.03638 68.8121 3.37964C66.9637 1.7229 64.6171 0.723593 62.1391 0.537881C59.661 0.35217 57.1911 0.990511 55.1152 2.35316C53.0394 3.71581 51.4746 5.726 50.6653 8.06961C49.856 10.4132 49.8479 12.9582 50.6421 15.307C51.4364 17.6557 52.9883 19.6758 55.0554 21.0516C51.0499 22.3884 47.4297 25.5483 45.1714 30.426C39.6347 42.4221 42.9383 56.6274 31.1211 48.7419C32.153 52.7523 46.1615 61.8376 51.8942 52.251C53.2109 50.0486 54.2798 47.7694 55.7272 45.6255C67.9213 27.5786 54.4205 94.9202 58.2803 108.5C62.3411 122.794 84.0791 105.959 81.7086 81.1077C81.9231 94.6963 67.4506 113.995 64.2542 103.636Z" fill="url(#paint0_linear)"/>
<g style="mix-blend-mode:soft-light" opacity="0.7">
<path fill-rule="evenodd" clip-rule="evenodd" d="M59.9487 22.7096C55.6433 22.7297 50.2206 24.9337 47.2487 31.3754C44.7743 36.7377 43.7005 48.3612 40.5259 51.6398C43.218 54.4337 48.2655 53.8889 49.9391 51.0883C51.7618 48.0387 55.5428 39.1289 59.9353 40.434C62.1634 41.1024 62.7497 43.6958 62.9994 45.696C64.1151 54.6325 62.2019 67.7884 61.3744 76.8686C60.8048 83.1216 60.2251 89.4179 59.9571 95.6926C59.8532 98.1473 59.7896 100.634 59.8884 103.09C59.9856 105.52 60.2402 110.297 62.9725 111.29C65.6429 112.261 69.3083 109.396 71.0774 107.597C59.746 114.757 61.8887 96.2507 63.125 90.875C64.549 84.6806 66.4286 78.5179 68.2446 72.4271C70.4224 65.1432 72.9034 57.4482 74.2219 49.9604C74.5016 48.3679 74.7512 46.6535 74.7479 45.0343C74.7077 31.4456 67.8609 22.6712 59.9487 22.7096Z" fill="white"/>
</g>
<path opacity="0.3" d="M60.8148 46.7985C61.4313 53.8952 59.7577 68.7722 58.5867 82.406C60.8901 78.1265 66.9244 63.2913 72.9704 64.4326C75.2353 56.5455 77.0329 49.3935 77.0195 45.0289C77.0195 44.1221 76.9915 43.2414 76.9357 42.387C71.1075 41.3593 65.4502 43.2994 60.8148 46.7985Z" fill="#2F170E"/>
<path d="M55.5596 57.1506C53.0702 58.7715 51.3079 61.8979 50.1452 64.9091C47.7245 71.1787 45.3708 80.65 43.8831 82.5783C36.1368 92.6261 19.7378 56.7061 35.5689 64.3794C43.9853 68.3898 48.3745 57.8624 51.8959 52.2512C45.4864 61.0958 35.594 51.2218 28.1073 46.7987C25.3867 45.1895 22.8437 44.5278 20.5687 44.5278C22.4423 42.5275 23.564 39.942 23.7435 37.2104C23.923 34.4788 23.1491 31.7694 21.5533 29.5423C19.9575 27.3152 17.6381 25.7076 14.9889 24.9926C12.3398 24.2776 9.52415 24.4991 7.02018 25.6196C4.5162 26.7402 2.4782 28.6906 1.25221 31.1397C0.0262293 33.5889 -0.312166 36.3858 0.294488 39.0556C0.901142 41.7253 2.41545 44.1033 4.58029 45.7859C6.74513 47.4684 9.42705 48.3518 12.1707 48.2859C10.7048 49.9118 9.80021 51.8435 9.59918 53.6097C8.80678 60.5828 13.3199 71.055 15.682 75.794C22.9191 90.3117 41.2463 104.99 52.8524 88.1261C61.4766 75.5935 65.8272 55.7219 77.6361 64.5532C75.3075 56.5841 62.8889 52.3698 55.5596 57.1506Z" fill="url(#paint1_linear)"/>
<g style="mix-blend-mode:soft-light" opacity="0.7">
<path fill-rule="evenodd" clip-rule="evenodd" d="M19.9941 40.5374C23.3329 33.9904 17.7778 26.2102 10.3313 27.5036C8.07175 27.8962 6.04455 29.1264 4.65617 30.9474C3.26778 32.7683 2.62085 35.0455 2.84508 37.3223C3.06931 39.5991 4.14814 41.7072 5.86523 43.2239C7.58233 44.7406 9.81075 45.5538 12.1037 45.5003C15.8964 45.4017 18.2636 43.9413 19.9941 40.5374Z" fill="white"/>
</g>
<g style="mix-blend-mode:soft-light" opacity="0.7">
<path fill-rule="evenodd" clip-rule="evenodd" d="M52.7552 65.905C51.0984 70.1961 49.8838 74.6694 48.4129 79.0291C47.2034 82.6117 45.7912 86.6037 41.4003 87.1101C38.6797 87.4242 36.2071 85.9554 34.2856 84.1724C29.6904 79.8997 22.5923 66.7939 28.0536 61.8695C30.5531 59.6153 34.0845 60.5594 36.7867 61.8611C40.35 63.5772 42.6316 61.3314 44.7039 58.5609C40.5443 58.2384 36.4433 55.6934 33.1447 53.4827C31.0105 52.054 28.903 50.4983 26.695 49.1932C21.4364 46.0835 13.035 48.219 12.3867 53.9172C11.7166 59.8108 15.5898 69.3172 18.1965 74.5457C22.1048 82.3861 31.6537 93.4448 41.005 92.8466C47.8735 92.4071 51.5825 85.3505 54.479 79.9598C56.6669 75.8876 58.6672 71.6048 61.1331 67.698C63.2272 64.3894 66.0617 60.7766 70.0706 59.8108C62.408 55.5698 55.8242 57.9627 52.7552 65.905Z" fill="white"/>
</g>
<path d="M90.1586 28.9972C88.3653 29.3083 86.658 29.9939 85.1488 31.0089C83.6395 32.0239 82.3622 33.3455 81.4006 34.8871C80.439 36.4287 79.8148 38.1556 79.5688 39.9546C79.3227 41.7536 79.4605 43.5841 79.9731 45.3263C70.7877 41.5264 58.6069 46.2754 50.7266 63.5119C56.3102 52.6888 66.5426 53.922 73.4212 59.6368C88.3962 72.0775 80.34 104.535 66.9564 113.176C74.7145 110.502 81.784 100.329 85.87 92.4554C94.2211 76.3736 93.9296 62.8518 89.3629 54.2294C91.2292 54.6763 93.1719 54.7029 95.0499 54.3072C96.9279 53.9116 98.6939 53.1036 100.22 51.942C101.745 50.7805 102.993 49.2945 103.871 47.592C104.749 45.8895 105.236 44.0134 105.296 42.0998C105.356 40.1862 104.988 38.2832 104.219 36.5292C103.45 34.7751 102.298 33.2141 100.849 31.9593C99.3988 30.7046 97.6871 29.7877 95.8377 29.2754C93.9883 28.763 92.0477 28.668 90.1569 28.9972H90.1586Z" fill="url(#paint2_linear)"/>
<g style="mix-blend-mode:soft-light" opacity="0.7">
<path fill-rule="evenodd" clip-rule="evenodd" d="M77.5674 47.2213C71.2684 45.3966 65.2308 48.4461 60.8701 52.8426C61.0622 52.8203 61.2554 52.8019 61.4498 52.7874C67.9045 52.2961 74.4547 56.0192 78.3547 61.0222C85.3439 69.9921 85.0976 83.4738 82.0889 93.9811C86.1915 86.8526 89.3678 78.6379 89.8788 70.3898C90.4785 60.581 87.8417 50.1974 77.5674 47.2213Z" fill="white"/>
</g>
<g style="mix-blend-mode:soft-light" opacity="0.7">
<path d="M92.5056 51.6345C98.0643 51.6345 102.57 47.1397 102.57 41.5951C102.57 36.0505 98.0643 31.5557 92.5056 31.5557C86.9469 31.5557 82.4407 36.0505 82.4407 41.5951C82.4407 47.1397 86.9469 51.6345 92.5056 51.6345Z" fill="white"/>
</g>
<g style="mix-blend-mode:soft-light" opacity="0.7">
<path d="M61.5001 19.7567C66.1169 19.7567 69.8596 16.0235 69.8596 11.4184C69.8596 6.81328 66.1169 3.08008 61.5001 3.08008C56.8833 3.08008 53.1406 6.81328 53.1406 11.4184C53.1406 16.0235 56.8833 19.7567 61.5001 19.7567Z" fill="white"/>
</g>
<path d="M15.0671 146.428V125.583H17.8799V146.428H15.0671Z" fill="#5B6A77"/>
<path d="M20.3475 138.569C20.3385 137.5 20.5305 136.439 20.9137 135.441C21.2945 134.468 21.8638 133.58 22.589 132.827C23.3452 132.005 24.2559 131.338 25.2694 130.865C26.2401 130.413 27.2987 130.178 28.3702 130.179C29.4626 130.162 30.5468 130.369 31.5554 130.787C32.5641 131.206 33.4757 131.827 34.2336 132.612C34.9943 133.382 35.6009 134.289 36.0211 135.285C36.4337 136.259 36.6462 137.306 36.646 138.363C36.6464 139.44 36.4494 140.507 36.0647 141.513C35.291 143.579 33.7346 145.26 31.7308 146.192C30.7281 146.646 29.6388 146.878 28.5378 146.872C27.4392 146.884 26.3499 146.672 25.3364 146.249C24.3436 145.822 23.4494 145.197 22.7096 144.411C21.9671 143.629 21.3804 142.713 20.9807 141.712C20.567 140.715 20.352 139.648 20.3475 138.569ZM23.2892 138.54C23.2892 140.116 23.7918 141.428 24.7969 142.477C25.2731 142.989 25.8526 143.393 26.4972 143.665C27.1417 143.936 27.8367 144.068 28.5361 144.051C29.2281 144.066 29.9152 143.932 30.551 143.659C31.1868 143.386 31.7565 142.98 32.2216 142.469C33.2123 141.414 33.7076 140.094 33.7076 138.51C33.7076 136.926 33.2123 135.609 32.2216 134.558C31.7389 134.062 31.1609 133.668 30.5222 133.4C29.8834 133.132 29.197 132.995 28.5039 132.997C27.8109 133 27.1254 133.141 26.4885 133.414C25.8515 133.686 25.2762 134.084 24.7969 134.583C23.7918 135.637 23.2892 136.956 23.2892 138.54Z" fill="#5B6A77"/>
<path d="M41.9483 146.427H39.1003V130.68H41.7707V132.498C42.1779 131.859 42.7314 131.327 43.3856 130.944C44.0359 130.594 44.7644 130.414 45.5031 130.421V133.383C44.23 133.479 43.3186 133.854 42.7691 134.508C42.2197 135.162 41.9444 136.214 41.9432 137.664L41.9483 146.427Z" fill="#5B6A77"/>
<path d="M49.6845 139.596C49.8825 140.84 50.5158 141.974 51.472 142.796C52.4128 143.609 53.6218 144.045 54.866 144.021C55.7664 144.034 56.6532 143.801 57.43 143.347C58.2068 142.893 58.8439 142.235 59.2719 141.444H62.4733C61.7463 143.191 60.7294 144.528 59.4227 145.455C58.0903 146.389 56.4942 146.875 54.866 146.844C53.7681 146.857 52.6789 146.648 51.6646 146.229C50.6711 145.8 49.7768 145.171 49.0378 144.382C48.2954 143.6 47.7087 142.684 47.309 141.683C46.8982 140.686 46.6859 139.619 46.6841 138.54C46.6756 137.479 46.8677 136.425 47.2503 135.434C47.6367 134.458 48.2051 133.565 48.9256 132.8C49.6599 131.969 50.5665 131.307 51.5826 130.859C52.5987 130.412 53.7002 130.19 54.8107 130.209C56.1612 130.199 57.4921 130.532 58.6789 131.174C59.8699 131.818 60.8832 132.745 61.629 133.873C62.0923 134.599 62.4361 135.394 62.6475 136.228C62.8814 137.186 62.9939 138.169 62.9826 139.155V139.596H49.6845ZM59.8599 137.048C59.5059 135.75 58.8917 134.748 58.0172 134.04C57.1343 133.325 56.0248 132.947 54.8878 132.974C53.7139 132.951 52.5688 133.338 51.6512 134.069C50.7377 134.798 50.1083 135.793 49.7632 137.053L59.8599 137.048Z" fill="#5B6A77"/>
<path d="M75.1465 138.482C75.1465 136.564 74.8751 135.171 74.3323 134.304C73.7896 133.438 72.9274 133.003 71.7458 133.001C70.5262 133.001 69.6255 133.438 69.0436 134.311C68.4617 135.184 68.1713 136.537 68.1725 138.37V146.429H65.4736V130.682H67.9999V132.528C68.466 131.873 69.0748 131.332 69.7807 130.946C70.4822 130.588 71.2613 130.408 72.049 130.423C73.1937 130.423 74.1475 130.642 74.9103 131.081C75.6731 131.52 76.298 132.207 76.7849 133.143C77.218 132.286 77.8937 131.574 78.7282 131.096C79.5346 130.65 80.5179 130.428 81.6783 130.428C83.4653 130.428 84.8948 131.008 85.967 132.167C87.0391 133.327 87.5763 134.875 87.5786 136.813V146.433H84.7306V137.257C84.7306 135.911 84.4352 134.866 83.8444 134.122C83.2536 133.378 82.43 133.006 81.3734 133.006C80.1449 133.006 79.2609 133.402 78.7215 134.194C78.1821 134.986 77.9129 136.323 77.914 138.205V146.436H75.1583L75.1465 138.482Z" fill="#5B6A77"/>
<path d="M27.1691 161.055V154.756H26.0986V153.522H27.1691V151.084H28.521V153.522H29.5915V154.756H28.521V161.055H27.1691Z" fill="#5B6A77"/>
<path d="M37.3815 161.056V160.131C37.0522 160.479 36.6563 160.758 36.2172 160.95C35.7846 161.136 35.318 161.231 34.8469 161.228C34.3228 161.243 33.8012 161.15 33.3147 160.955C32.8282 160.76 32.3871 160.467 32.019 160.095C31.6479 159.722 31.3567 159.278 31.1632 158.79C30.9696 158.301 30.8778 157.779 30.8933 157.254C30.891 156.739 30.9865 156.229 31.1747 155.75C31.3568 155.284 31.6295 154.858 31.9772 154.497C32.3271 154.12 32.7515 153.821 33.2235 153.616C33.713 153.42 34.2371 153.323 34.7648 153.332C35.2542 153.327 35.7396 153.42 36.1921 153.606C36.6413 153.8 37.0456 154.085 37.3798 154.442V153.531H38.7535V161.064L37.3815 161.056ZM32.3005 157.241C32.2914 157.595 32.3539 157.947 32.4843 158.276C32.6147 158.605 32.8103 158.905 33.0594 159.157C33.2982 159.408 33.5868 159.606 33.9066 159.739C34.2265 159.872 34.5707 159.938 34.9172 159.931C35.2513 159.93 35.5815 159.86 35.8869 159.725C36.1924 159.59 36.4663 159.394 36.6913 159.147C36.9355 158.912 37.1293 158.629 37.2609 158.316C37.3925 158.004 37.4592 157.668 37.4569 157.329C37.4628 156.978 37.3987 156.629 37.2685 156.303C37.1382 155.977 36.9443 155.68 36.698 155.429C36.4702 155.178 36.1919 154.978 35.8813 154.842C35.5707 154.706 35.2348 154.637 34.8955 154.639C34.5543 154.638 34.2164 154.705 33.9013 154.836C33.5862 154.966 33.3001 155.158 33.0595 155.399C32.8189 155.64 32.6286 155.926 32.4994 156.241C32.3703 156.556 32.305 156.894 32.3072 157.234L32.3005 157.241Z" fill="#5B6A77"/>
<path d="M41.1458 161.654H42.5948C42.7918 161.992 43.078 162.271 43.4224 162.459C43.7835 162.649 44.187 162.745 44.5951 162.736C45.359 162.736 45.9733 162.507 46.4379 162.048C46.9025 161.589 47.1359 160.981 47.1381 160.223V160.128C46.8088 160.476 46.4129 160.754 45.9738 160.947C45.5412 161.133 45.0746 161.227 44.6035 161.224C44.0794 161.239 43.5578 161.146 43.0713 160.951C42.5848 160.756 42.1437 160.464 41.7756 160.091C41.4045 159.719 41.1133 159.275 40.9197 158.786C40.7262 158.298 40.6344 157.776 40.6499 157.251C40.6475 156.736 40.743 156.226 40.9313 155.747C41.1134 155.28 41.3861 154.854 41.7338 154.493C42.0837 154.117 42.5081 153.817 42.9801 153.613C43.4696 153.416 43.9937 153.32 44.5214 153.329C45.0096 153.324 45.4938 153.417 45.9453 153.603C46.3987 153.798 46.8083 154.082 47.1499 154.438V153.528H48.5085V159.816C48.5085 161.126 48.1673 162.152 47.4849 162.894C46.8025 163.636 45.8644 164.006 44.6705 164.006C43.8861 164.029 43.1131 163.816 42.4524 163.393C41.8347 162.975 41.3748 162.363 41.1458 161.654ZM42.0588 157.237C42.0497 157.591 42.1122 157.943 42.2426 158.273C42.373 158.602 42.5686 158.902 42.8176 159.154C43.0566 159.404 43.3451 159.602 43.665 159.736C43.9848 159.869 44.329 159.934 44.6755 159.928C45.0079 159.927 45.3366 159.857 45.6407 159.724C45.9449 159.59 46.218 159.395 46.4429 159.151C46.6871 158.915 46.8809 158.632 47.0125 158.32C47.144 158.007 47.2107 157.671 47.2085 157.332C47.2144 156.981 47.1503 156.633 47.02 156.307C46.8898 155.98 46.6959 155.683 46.4496 155.433C46.2218 155.182 45.9435 154.982 45.6329 154.845C45.3223 154.709 44.9863 154.64 44.647 154.642C44.3059 154.642 43.968 154.709 43.6529 154.839C43.3378 154.969 43.0517 155.161 42.8111 155.402C42.5705 155.643 42.3801 155.93 42.251 156.245C42.1219 156.56 42.0565 156.897 42.0588 157.237Z" fill="#5B6A77"/>
<path d="M50.7952 161.055V151.084H52.1354V161.055H50.7952Z" fill="#5B6A77"/>
<path d="M55.8092 152.639H54.469V151.084H55.8092V152.639ZM54.469 161.055V153.522H55.8092V161.055H54.469Z" fill="#5B6A77"/>
<path d="M59.4915 161.056H58.1345V153.523H59.4395V154.378C59.6926 154.064 60.0125 153.81 60.376 153.635C60.7449 153.471 61.1452 153.391 61.5487 153.399C62.5371 153.399 63.296 153.689 63.8253 154.268C64.3547 154.847 64.6188 155.678 64.6177 156.761V161.056H63.2507V157.057C63.2507 156.258 63.1022 155.666 62.8051 155.281C62.508 154.895 62.0479 154.702 61.4247 154.702C60.7468 154.702 60.2559 154.93 59.9522 155.384C59.6484 155.839 59.4965 156.588 59.4965 157.633L59.4915 161.056Z" fill="#5B6A77"/>
<path d="M67.918 157.789C68.0125 158.384 68.3152 158.926 68.7724 159.319C69.2226 159.708 69.8008 159.916 70.3957 159.904C70.8265 159.911 71.2507 159.799 71.6223 159.582C71.9939 159.364 72.2986 159.049 72.5032 158.671H74.0344C73.7408 159.436 73.2346 160.1 72.5752 160.588C71.9388 161.036 71.1761 161.27 70.3974 161.256C69.8723 161.263 69.3513 161.163 68.8662 160.962C68.3909 160.757 67.9632 160.456 67.6098 160.078C67.2543 159.704 66.9735 159.265 66.7822 158.786C66.5859 158.309 66.4846 157.798 66.484 157.282C66.4801 156.775 66.5722 156.271 66.7554 155.797C66.9395 155.33 67.2106 154.903 67.5545 154.537C67.9053 154.14 68.3381 153.824 68.8231 153.611C69.3081 153.397 69.8337 153.291 70.3639 153.299C71.0074 153.296 71.6413 153.455 72.2067 153.762C72.7763 154.07 73.2608 154.514 73.6172 155.053C73.8389 155.4 74.0035 155.781 74.1047 156.18C74.2156 156.638 74.2685 157.108 74.2622 157.58V157.792L67.918 157.789ZM72.7863 156.571C72.6536 156.009 72.3457 155.504 71.9068 155.129C71.4847 154.787 70.9543 154.606 70.4108 154.619C69.8477 154.604 69.2974 154.788 68.8562 155.137C68.4086 155.503 68.0919 156.004 67.9532 156.564L72.7863 156.571Z" fill="#5B6A77"/>
<defs>
<linearGradient id="paint0_linear" x1="56.5095" y1="113.746" x2="56.5095" y2="0.504903" gradientUnits="userSpaceOnUse">
<stop stop-color="#046180"/>
<stop offset="0.04" stop-color="#049385"/>
<stop offset="0.25" stop-color="#9ACB5A"/>
<stop offset="0.51" stop-color="#FFC32C"/>
<stop offset="0.61" stop-color="#FFD529"/>
<stop offset="0.73" stop-color="#7EC142"/>
<stop offset="1" stop-color="#6DBD45"/>
</linearGradient>
<linearGradient id="paint1_linear" x1="-5.29212" y1="42.4023" x2="66.4297" y2="83.9172" gradientUnits="userSpaceOnUse">
<stop stop-color="#0498A9"/>
<stop offset="0.15" stop-color="#20C1E5"/>
<stop offset="0.3" stop-color="#9ACB5A"/>
<stop offset="0.58" stop-color="#FCBF10"/>
<stop offset="0.81" stop-color="#A83A94"/>
<stop offset="1" stop-color="#3C0B35"/>
</linearGradient>
<linearGradient id="paint2_linear" x1="78.013" y1="113.176" x2="78.013" y2="28.805" gradientUnits="userSpaceOnUse">
<stop stop-color="#0498A9"/>
<stop offset="0.19" stop-color="#9ACB5A"/>
<stop offset="0.42" stop-color="#FCBF10"/>
<stop offset="0.66" stop-color="#AD4C9B"/>
<stop offset="1" stop-color="#E50F8C"/>
</linearGradient>
</defs>
</svg>
