<svg width="30" height="31" viewBox="0 0 30 31" fill="none" xmlns="http://www.w3.org/2000/svg">
<g clip-path="url(#clip0)">
<path d="M15 0.749512C6.72903 0.749512 0 7.47855 0 15.7495C0 24.0199 6.72903 30.7495 15 30.7495C23.2704 30.7495 30 24.0199 30 15.7495C30 7.47855 23.2716 0.749512 15 0.749512ZM18.7304 16.2776H16.29C16.29 20.1765 16.29 24.9757 16.29 24.9757H12.6738C12.6738 24.9757 12.6738 20.223 12.6738 16.2776H10.9548V13.2034H12.6738V11.215C12.6738 9.79084 13.3505 7.56555 16.3232 7.56555L19.0029 7.57582V10.56C19.0029 10.56 17.3745 10.56 17.0579 10.56C16.7413 10.56 16.2912 10.7183 16.2912 11.3974V13.204H19.0464L18.7304 16.2776Z" fill="#4F4F4F"/>
</g>
<defs>
<clipPath id="clip0">
<rect width="30" height="30" fill="white" transform="translate(0 0.749512)"/>
</clipPath>
</defs>
</svg>
