<svg width="30" height="47" viewBox="0 0 30 47" fill="none" xmlns="http://www.w3.org/2000/svg">
<path d="M28.9771 14.8513C28.9771 6.91132 22.5495 0.473196 14.6515 0.52571C6.87956 0.578223 0.546459 6.98484 0.525454 14.7988C0.514951 18.3907 1.81728 21.678 3.98083 24.1987C5.14662 25.564 6.13387 27.0659 6.96358 28.6623C8.09787 30.8574 9.4212 33.7666 9.8308 36.1087C9.96734 36.8859 10.65 37.453 11.4377 37.453H14.7565H18.0754C18.8631 37.453 19.5458 36.8859 19.6823 36.1087C20.1024 33.7141 21.4677 30.7418 22.623 28.5363C23.4317 26.9819 24.4085 25.522 25.5428 24.1882C27.6853 21.678 28.9771 18.4222 28.9771 14.8513Z" fill="#F9ED32"/>
<path d="M18.0646 37.9886H11.4375C10.3872 37.9886 9.49446 37.2429 9.30541 36.2031C8.89581 33.882 7.55147 30.9518 6.4907 28.9143C5.63999 27.2864 4.66324 25.816 3.58147 24.5452C1.26038 21.8355 -0.0104381 18.3801 6.45815e-05 14.7987C0.0210699 6.69067 6.59573 0.0529926 14.6513 0.000479313C18.5898 -0.0310286 22.3077 1.49186 25.1119 4.27506C27.9476 7.08977 29.502 10.8392 29.502 14.8512C29.502 18.4011 28.2312 21.846 25.9311 24.5347C24.8493 25.795 23.8936 27.2339 23.0744 28.7882C21.9821 30.8678 20.6063 33.8505 20.1862 36.2136C20.0181 37.2324 19.1254 37.9886 18.0646 37.9886ZM14.7563 1.05074C14.7248 1.05074 14.6933 1.05074 14.6618 1.05074C7.18388 1.10326 1.08184 7.27882 1.06083 14.8092C1.05033 18.1386 2.23713 21.3524 4.39017 23.8625C5.52446 25.1858 6.55372 26.7297 7.43594 28.4312C8.52822 30.5422 9.92507 33.567 10.3557 36.0246C10.4502 36.5497 10.9123 36.9383 11.448 36.9383H18.0751C18.6108 36.9383 19.0729 36.5497 19.1674 36.0246C19.6085 33.5354 21.0369 30.4477 22.1607 28.2946C23.0114 26.6667 24.0196 25.1753 25.1434 23.852C27.286 21.3524 28.4622 18.1596 28.4622 14.8512C28.4622 11.1333 27.0129 7.63591 24.3767 5.02075C21.7931 2.4581 18.3797 1.05074 14.7563 1.05074Z" fill="#3A1811"/>
<path d="M10.671 40.0998H18.8316C19.5562 40.0998 20.1549 39.5116 20.1549 38.7765C20.1549 38.0518 19.5667 37.4531 18.8316 37.4531H10.671C9.94631 37.4531 9.34766 38.0413 9.34766 38.7765C9.34766 39.5116 9.94631 40.0998 10.671 40.0998Z" fill="#939598"/>
<path d="M18.843 40.6252H10.6825C9.66369 40.6252 8.83398 39.7954 8.83398 38.7767C8.83398 37.7579 9.66369 36.9282 10.6825 36.9282H18.843C19.8618 36.9282 20.6915 37.7579 20.6915 38.7767C20.681 39.7954 19.8513 40.6252 18.843 40.6252ZM10.6719 37.989C10.2308 37.989 9.87375 38.3461 9.87375 38.7872C9.87375 39.2283 10.2308 39.5854 10.6719 39.5854H18.8325C19.2736 39.5854 19.6307 39.2283 19.6307 38.7872C19.6307 38.3461 19.2736 37.989 18.8325 37.989H10.6719Z" fill="#3A1811"/>
<path d="M11.2804 42.7468H18.2331C18.9578 42.7468 19.5565 42.1586 19.5565 41.4234C19.5565 40.6987 18.9683 40.1001 18.2331 40.1001H11.2804C10.5557 40.1001 9.95703 40.6882 9.95703 41.4234C9.95703 42.1481 10.5452 42.7468 11.2804 42.7468Z" fill="#939598"/>
<path d="M18.2348 43.2716H11.2821C10.2633 43.2716 9.43359 42.4419 9.43359 41.4232C9.43359 40.4044 10.2633 39.5747 11.2821 39.5747H18.2348C19.2536 39.5747 20.0833 40.4044 20.0833 41.4232C20.0833 42.4419 19.2536 43.2716 18.2348 43.2716ZM11.2821 40.625C10.8409 40.625 10.4839 40.9821 10.4839 41.4232C10.4839 41.8643 10.8409 42.2214 11.2821 42.2214H18.2348C18.6759 42.2214 19.033 41.8643 19.033 41.4232C19.033 40.9821 18.6759 40.625 18.2348 40.625H11.2821Z" fill="#3A1811"/>
<path d="M14.7564 42.7461H11.2695L12.6244 46.0019C12.7399 46.2855 13.0235 46.4745 13.3281 46.4745H14.7564H16.1848C16.4893 46.4745 16.7729 46.2855 16.8884 46.0019L18.2433 42.7461H14.7564Z" fill="#9B8579"/>
<path d="M16.1854 47.0001H13.3286C12.8035 47.0001 12.3414 46.6851 12.1418 46.2019L10.4824 42.2109H19.0316L17.3722 46.2019C17.1726 46.6851 16.7 47.0001 16.1854 47.0001ZM12.0578 43.2717L13.1081 45.8028C13.1501 45.8974 13.2341 45.9499 13.3286 45.9499H16.1854C16.2799 45.9499 16.3639 45.8869 16.4059 45.8028L17.4562 43.2717H12.0578Z" fill="#3A1811"/>
<path d="M17.4042 37.9889H12.1004V30.8366C12.1004 27.7803 11.1866 24.7975 9.45369 22.2139L9.44319 22.1929L8.687 20.9326C8.56097 20.712 8.56097 20.4494 8.6975 20.2394C8.83404 20.0188 9.0861 19.9033 9.33816 19.9348C10.0103 20.0083 10.4199 20.3129 10.7455 20.5545C11.0816 20.8065 11.3232 20.9851 11.8693 20.9851C12.4154 20.9851 12.657 20.8065 12.9931 20.5545C13.3712 20.2709 13.8543 19.9243 14.747 19.9243C15.6398 19.9243 16.1124 20.2709 16.501 20.5545C16.8371 20.8065 17.0786 20.9851 17.6248 20.9851C18.1709 20.9851 18.4125 20.8065 18.7485 20.5545C19.0741 20.3129 19.4837 20.0188 20.1559 19.9348C20.4185 19.9033 20.66 20.0188 20.7966 20.2394C20.9331 20.4494 20.9331 20.7225 20.8071 20.9326L20.0404 22.2139C18.3074 24.808 17.3937 27.7908 17.3937 30.8366V37.9889H17.4042ZM13.1506 36.9386H16.3539V30.8366C16.3539 27.5807 17.3307 24.3984 19.1686 21.6362L19.2737 21.4577C18.9061 21.7203 18.444 22.0143 17.6248 22.0143C16.732 22.0143 16.2594 21.6678 15.8708 21.3842C15.5347 21.1321 15.2932 20.9536 14.747 20.9536C14.2009 20.9536 13.9593 21.1321 13.6232 21.3842C13.2452 21.6678 12.762 22.0143 11.8693 22.0143C11.0501 22.0143 10.588 21.7203 10.2204 21.4577L10.3254 21.6362C12.1634 24.3984 13.1401 27.5807 13.1401 30.8366V36.9386H13.1506Z" fill="#3A1811"/>
<path d="M21.0999 18.1066C21.0368 18.1066 20.9633 18.0856 20.9108 18.0331C20.8058 17.9281 20.8058 17.76 20.9108 17.6655L23.8515 14.7038C23.9566 14.5987 24.1246 14.5987 24.2191 14.7038C24.3242 14.8088 24.3242 14.9768 24.2191 15.0714L21.2784 18.0331C21.2259 18.0751 21.1629 18.1066 21.0999 18.1066Z" fill="#3A1811"/>
<path d="M8.41364 18.1066C8.35062 18.1066 8.2771 18.0856 8.22459 18.0331L5.28385 15.0714C5.17882 14.9663 5.17882 14.7983 5.28385 14.7038C5.38887 14.5987 5.55692 14.5987 5.65144 14.7038L8.59218 17.6655C8.69721 17.7705 8.69721 17.9386 8.59218 18.0331C8.55017 18.0751 8.47665 18.1066 8.41364 18.1066Z" fill="#3A1811"/>
<path d="M14.7567 17.4454C14.6097 17.4454 14.4941 17.3299 14.4941 17.1829V12.4042C14.4941 12.2571 14.6097 12.1416 14.7567 12.1416C14.9037 12.1416 15.0193 12.2571 15.0193 12.4042V17.1829C15.0193 17.3299 14.9037 17.4454 14.7567 17.4454Z" fill="#3A1811"/>
<path d="M26.6042 19.0313C26.5832 19.0313 26.5517 19.0313 26.5307 19.0208C26.3941 18.9788 26.3101 18.8317 26.3626 18.6952C27.1398 16.2061 27.2238 13.5279 26.6042 11.1543C26.0476 9.46335 25.2178 7.97198 24.1361 6.73267C24.0415 6.62764 24.052 6.4596 24.1676 6.36507C24.2726 6.27055 24.4406 6.28105 24.5352 6.39658C25.659 7.69891 26.5307 9.2533 27.1083 11.0072V11.0177C27.7595 13.4964 27.6755 16.2796 26.8668 18.8632C26.8247 18.9578 26.7197 19.0313 26.6042 19.0313Z" fill="#3A1811"/>
<path d="M21.3187 4.30679C21.2767 4.30679 21.2242 4.29628 21.1822 4.26478C17.9579 2.33229 14.6495 2.26927 14.618 2.26927C14.471 2.26927 14.3555 2.15374 14.3555 2.00671C14.3555 1.85967 14.471 1.74414 14.618 1.74414C14.7546 1.74414 18.1049 1.80716 21.4448 3.82367C21.5708 3.89718 21.6128 4.05472 21.5393 4.18076C21.4973 4.25427 21.4027 4.30679 21.3187 4.30679Z" fill="#3A1811"/>
<path d="M21.3185 28.3049C21.287 28.3049 21.266 28.3049 21.2345 28.2944C21.098 28.2524 21.0245 28.1054 21.0665 27.9689C21.4761 26.677 23.6291 23.7048 23.7237 23.5787C23.8077 23.4632 23.9757 23.4317 24.0912 23.5157C24.2068 23.5998 24.2383 23.7678 24.1543 23.8833C24.1333 23.9148 21.9592 26.9186 21.5811 28.1264C21.5286 28.2314 21.4236 28.3049 21.3185 28.3049Z" fill="#3A1811"/>
<path d="M18.6012 35.394C18.5907 35.394 18.5802 35.394 18.5697 35.394C18.4226 35.373 18.3176 35.247 18.3386 35.0999C18.5172 33.577 19.746 30.7623 19.7985 30.6468C19.8615 30.5103 20.0085 30.4578 20.1451 30.5103C20.2816 30.5733 20.3341 30.7203 20.2816 30.8569C20.2711 30.8884 19.0318 33.7136 18.8637 35.1629C18.8532 35.289 18.7377 35.394 18.6012 35.394Z" fill="#3A1811"/>
<path d="M18.6007 39.1755H14.7567C14.6097 39.1755 14.4941 39.06 14.4941 38.913C14.4941 38.7659 14.6097 38.6504 14.7567 38.6504H18.6007C18.7477 38.6504 18.8632 38.7659 18.8632 38.913C18.8632 39.06 18.7477 39.1755 18.6007 39.1755Z" fill="#3A1811"/>
<path d="M18.0755 41.6853H14.7567C14.6097 41.6853 14.4941 41.5698 14.4941 41.4227C14.4941 41.2757 14.6097 41.1602 14.7567 41.1602H18.0755C18.2226 41.1602 18.3381 41.2757 18.3381 41.4227C18.3381 41.5698 18.2226 41.6853 18.0755 41.6853Z" fill="#3A1811"/>
<path d="M16.0485 45.656H14.7567C14.6097 45.656 14.4941 45.5404 14.4941 45.3934C14.4941 45.2464 14.6097 45.1308 14.7567 45.1308H15.6914L16.1746 43.9545C16.2271 43.818 16.3846 43.755 16.5212 43.8075C16.6577 43.86 16.7207 44.0175 16.6682 44.1541L16.0485 45.656Z" fill="#3A1811"/>
</svg>
