<svg width="80" height="80" viewBox="0 0 80 80" fill="none" xmlns="http://www.w3.org/2000/svg">
<circle cx="40" cy="40" r="40" fill="white"/>
<g clip-path="url(#clip0)">
<path d="M53.6764 20.4636C54.4318 20.4636 55.0442 19.8513 55.0442 19.0958C55.0442 18.3404 54.4318 17.728 53.6764 17.728C52.921 17.728 52.3086 18.3404 52.3086 19.0958C52.3086 19.8513 52.921 20.4636 53.6764 20.4636Z" fill="#FCBF29"/>
<path d="M34.5382 31.2793C34.0199 31.2793 33.5457 30.9868 33.3146 30.5233L31.6957 27.2828L28.4552 25.6639C27.9917 25.4328 27.6992 24.9586 27.6992 24.4403C27.6992 23.922 27.9917 23.4478 28.4552 23.2168L31.6957 21.5979L33.3146 18.3574C33.7768 17.4304 35.2968 17.4304 35.7617 18.3574L37.382 21.5979L40.6211 23.2168C41.0846 23.4492 41.3771 23.922 41.3771 24.4403C41.3771 24.9586 41.0846 25.4315 40.6211 25.6639L37.382 27.2828L35.7617 30.5233C35.5293 30.9868 35.0565 31.2793 34.5382 31.2793Z" fill="#FEDB41"/>
<path d="M61.9758 28.6707H60.6079V27.3029C60.6079 26.5469 59.9961 25.9351 59.2401 25.9351C58.4841 25.9351 57.8723 26.5469 57.8723 27.3029V28.6707H56.5045C55.7485 28.6707 55.1367 29.2825 55.1367 30.0385C55.1367 30.7945 55.7485 31.4063 56.5045 31.4063H57.8723V32.7741C57.8723 33.5301 58.4841 34.1419 59.2401 34.1419C59.9961 34.1419 60.6079 33.5301 60.6079 32.7741V31.4063H61.9758C62.7318 31.4063 63.3436 30.7945 63.3436 30.0385C63.3436 29.2825 62.7318 28.6707 61.9758 28.6707Z" fill="#FCBF29"/>
<path d="M56.5036 64.4152H43.3912C40.847 64.4152 38.4398 63.4304 36.6344 61.5975L33.5706 58.5336C33.2969 58.2875 33.1602 57.9319 33.1602 57.5763V40.9805C33.1602 40.2145 33.7619 39.6127 34.528 39.6127H37.2636L41.5859 35.263C44.1025 32.7738 45.4703 29.4636 45.4703 25.9348C45.4703 24.4302 46.7013 23.1992 48.2059 23.1992C49.7105 23.1992 50.9415 24.4302 50.9415 25.9348V28.0139C50.9415 31.3239 50.3398 34.6066 49.1908 37.7798L48.5069 39.6127H55.9294L56.1484 48.9501L56.5036 64.4152Z" fill="#FEC478"/>
<path d="M56.5036 64.4153H43.3912C40.847 64.4153 38.4398 63.4305 36.6344 61.5976L33.5706 58.5337C33.2969 58.2876 33.1602 57.9319 33.1602 57.5764V48.9502H56.148L56.5036 64.4153Z" fill="#FEB756"/>
<path d="M60.2794 52.014C61.9755 52.014 63.3432 53.4729 63.3432 55.169C63.3432 56.8924 61.9754 58.2602 60.2794 58.2602H57.5438C59.2399 58.2602 60.6076 59.628 60.6076 61.3514C60.6076 63.0475 59.2398 64.4152 57.5438 64.4152H52.638C50.9419 64.4152 49.5742 63.0474 49.5742 61.3514C49.5742 59.628 50.942 58.2602 52.638 58.2602C50.9419 58.2602 49.5742 56.8924 49.5742 55.169C49.5742 53.4729 50.942 52.014 52.638 52.014C50.9419 52.014 49.5742 50.6462 49.5742 48.9502C49.5742 47.2268 50.942 45.7678 52.638 45.7678C50.9419 45.7678 49.5742 44.4 49.5742 42.6766C49.5742 40.9805 50.942 39.6128 52.638 39.6128H60.2794C61.9755 39.6128 63.3432 40.9806 63.3432 42.6766C63.3432 44.4 61.9754 45.7678 60.2794 45.7678C61.9755 45.7678 63.3432 47.2267 63.3432 48.9502C63.3432 50.6462 61.9754 52.014 60.2794 52.014Z" fill="#FEDBAB"/>
<path d="M63.3432 55.169C63.3432 56.8924 61.9754 58.2602 60.2794 58.2602H57.5438C59.2399 58.2602 60.6076 59.628 60.6076 61.3514C60.6076 63.0475 59.2398 64.4152 57.5438 64.4152H52.638C50.9419 64.4152 49.5742 63.0474 49.5742 61.3514C49.5742 59.628 50.942 58.2602 52.638 58.2602C50.9419 58.2602 49.5742 56.8924 49.5742 55.169C49.5742 53.4729 50.942 52.014 52.638 52.014C50.9419 52.014 49.5742 50.6462 49.5742 48.9502H63.3432C63.3432 50.6463 61.9754 52.014 60.2794 52.014C61.9754 52.014 63.3432 53.4729 63.3432 55.169Z" fill="#FEC478"/>
<path d="M34.5284 36.8774H29.0573C28.2912 36.8774 27.6895 37.4792 27.6895 38.2452V60.3122C27.6895 61.0781 28.2912 61.68 29.0573 61.68H34.5284C35.2944 61.68 35.8962 61.0781 35.8962 60.3122V38.2452C35.8962 37.4791 35.2943 36.8774 34.5284 36.8774Z" fill="#4F3F82"/>
<path d="M27.6895 48.9502H35.8962V60.312C35.8962 61.0778 35.2944 61.6798 34.5284 61.6798H29.0573C28.2912 61.6798 27.6895 61.0778 27.6895 60.312C27.6895 60.312 27.6895 48.9502 27.6895 48.9502Z" fill="#3B2C68"/>
<path d="M29.0575 34.1416H18.0241C17.258 34.1416 16.6562 34.7434 16.6562 35.5094V63.0475C16.6562 63.8134 17.258 64.4153 18.0241 64.4153H29.0575C29.8236 64.4153 30.4254 63.8134 30.4254 63.0475V35.5094C30.4254 34.7434 29.8235 34.1416 29.0575 34.1416Z" fill="#17CEB4"/>
<path d="M16.6562 48.9502H30.4253V63.0475C30.4253 63.8134 29.8235 64.4153 29.0575 64.4153H18.0241C17.258 64.4153 16.6562 63.8134 16.6562 63.0475C16.6562 63.0476 16.6562 48.9502 16.6562 48.9502Z" fill="#11AD94"/>
<path d="M23.5866 58.9446C24.342 58.9446 24.9544 58.3322 24.9544 57.5768C24.9544 56.8214 24.342 56.209 23.5866 56.209C22.8311 56.209 22.2188 56.8214 22.2188 57.5768C22.2188 58.3322 22.8311 58.9446 23.5866 58.9446Z" fill="#CAE8F9"/>
</g>
<circle cx="40" cy="40" r="40" fill="white"/>
<path d="M40 20C29.1007 20 18.8665 26.9212 12.3502 38.6111C11.8833 39.4488 11.8833 40.607 12.3502 41.4446C18.8665 53.1346 29.1007 60.0558 40 60.0558C50.8993 60.0558 61.1335 53.1346 67.6498 41.4446C68.1167 40.607 68.1167 39.4488 67.6498 38.6111C61.1335 26.9212 50.8993 20 40 20Z" fill="#F09A79"/>
<path d="M40 25.1484C29.1007 25.1484 18.8665 30.2841 12.3502 38.9582C11.8833 39.5798 11.8833 40.4392 12.3502 41.0608C18.8665 49.7349 29.1007 54.8706 40 54.8706C50.8993 54.8706 61.1335 49.7349 67.6498 41.0608C68.1167 40.4392 68.1167 39.5798 67.6498 38.9582C61.1335 30.2841 50.8993 25.1484 40 25.1484Z" fill="white"/>
<path d="M39.9994 53.134C47.2478 53.134 53.1238 47.2581 53.1238 40.0097C53.1238 32.7612 47.2478 26.8853 39.9994 26.8853C32.751 26.8853 26.875 32.7612 26.875 40.0097C26.875 47.2581 32.751 53.134 39.9994 53.134Z" fill="#0F627F"/>
<path d="M39.9996 48.759C44.8319 48.759 48.7492 44.8416 48.7492 40.0094C48.7492 35.1771 44.8319 31.2598 39.9996 31.2598C35.1673 31.2598 31.25 35.1771 31.25 40.0094C31.25 44.8416 35.1673 48.759 39.9996 48.759Z" fill="#005670"/>
<path d="M43.2005 40.0099C44.5204 40.0099 45.5904 38.9398 45.5904 37.6199C45.5904 36.3 44.5204 35.23 43.2005 35.23C41.8806 35.23 40.8105 36.3 40.8105 37.6199C40.8105 38.9398 41.8806 40.0099 43.2005 40.0099Z" fill="white"/>
<defs>
<clipPath id="clip0">
<rect x="16.623" y="17.6621" width="46.7532" height="46.7532" fill="white"/>
</clipPath>
</defs>
</svg>
