<svg width="42" height="29" viewBox="0 0 42 29" fill="none" xmlns="http://www.w3.org/2000/svg">
<path d="M16.4099 28.0264H9.08642V13.8908C9.08642 12.1741 9.12295 10.6035 9.196 9.17899C8.74551 9.72688 8.18545 10.2991 7.5158 10.8957L4.48415 13.3977L0.740234 8.79547L9.90825 1.32591H16.4099V28.0264Z" fill="#6D6D6D"/>
<path d="M41.7224 14.7127C41.7224 19.4367 40.931 22.9006 39.3482 25.1043C37.7654 27.2959 35.3425 28.3917 32.0795 28.3917C28.8896 28.3917 26.485 27.2472 24.8656 24.9582C23.2463 22.6571 22.4367 19.2419 22.4367 14.7127C22.4367 9.9643 23.2281 6.48216 24.8109 4.26625C26.3936 2.05034 28.8165 0.942383 32.0795 0.942383C35.2573 0.942383 37.6558 2.09904 39.2751 4.41235C40.9066 6.71349 41.7224 10.1469 41.7224 14.7127ZM29.614 14.7127C29.614 17.7322 29.8027 19.808 30.1802 20.9404C30.5576 22.0727 31.1907 22.6388 32.0795 22.6388C32.9805 22.6388 33.6136 22.0544 33.9789 20.8856C34.3563 19.7167 34.545 17.6591 34.545 14.7127C34.545 11.7541 34.3563 9.68427 33.9789 8.50326C33.6014 7.31008 32.9683 6.71349 32.0795 6.71349C31.1907 6.71349 30.5576 7.28573 30.1802 8.43021C29.8027 9.57469 29.614 11.6688 29.614 14.7127Z" fill="#6D6D6D"/>
</svg>
