<svg width="40" height="28" viewBox="0 0 40 28" fill="none" xmlns="http://www.w3.org/2000/svg">
<path d="M15.082 27H8.0332V13.3945C8.0332 11.7422 8.06836 10.2305 8.13867 8.85938C7.70508 9.38672 7.16602 9.9375 6.52148 10.5117L3.60352 12.9199L0 8.49023L8.82422 1.30078H15.082V27Z" fill="#6D6D6D"/>
<path d="M39.4453 14.1855C39.4453 18.7324 38.6836 22.0664 37.1602 24.1875C35.6367 26.2969 33.3047 27.3516 30.1641 27.3516C27.0938 27.3516 24.7793 26.25 23.2207 24.0469C21.6621 21.832 20.8828 18.5449 20.8828 14.1855C20.8828 9.61523 21.6445 6.26367 23.168 4.13086C24.6914 1.99805 27.0234 0.931641 30.1641 0.931641C33.2227 0.931641 35.5312 2.04492 37.0898 4.27148C38.6602 6.48633 39.4453 9.79102 39.4453 14.1855ZM27.791 14.1855C27.791 17.0918 27.9727 19.0898 28.3359 20.1797C28.6992 21.2695 29.3086 21.8145 30.1641 21.8145C31.0312 21.8145 31.6406 21.252 31.9922 20.127C32.3555 19.002 32.5371 17.0215 32.5371 14.1855C32.5371 11.3379 32.3555 9.3457 31.9922 8.20898C31.6289 7.06055 31.0195 6.48633 30.1641 6.48633C29.3086 6.48633 28.6992 7.03711 28.3359 8.13867C27.9727 9.24023 27.791 11.2559 27.791 14.1855Z" fill="#6D6D6D"/>
</svg>
