<svg width="52" height="54" viewBox="0 0 52 54" fill="none" xmlns="http://www.w3.org/2000/svg">
<g filter="url(#filter0_d)">
<path d="M34.0859 31.1758V40.6094L23.3047 46L9.82812 44.6523L4.4375 35.2188V31.1758C4.4375 27.4564 7.45639 24.4375 11.1758 24.4375H27.3477C31.067 24.4375 34.0859 27.4564 34.0859 31.1758Z" fill="#FF641A"/>
<path d="M34.0859 31.1758V40.6094L23.3047 46L19.2617 45.5957V24.4375H27.3477C31.067 24.4375 34.0859 27.4564 34.0859 31.1758Z" fill="#F03800"/>
<path d="M46.2148 29.8281H24.6523C23.8974 29.8281 23.3047 30.4209 23.3047 31.1758V46H46.2148C46.9697 46 47.5625 45.4072 47.5625 44.6523V31.1758C47.5625 30.4209 46.9697 29.8281 46.2148 29.8281Z" fill="#DEECF1"/>
<path d="M23.3047 44.6523V46H5.78516C5.04079 46 4.4375 45.3967 4.4375 44.6523V35.2188H8.48047C9.22484 35.2188 9.82812 35.822 9.82812 36.5664V40.6094H19.2617C21.4945 40.6094 23.3047 42.4196 23.3047 44.6523Z" fill="#FFE1BA"/>
<path d="M26 14.9141V17.6094C26 19.8197 24.9219 21.8233 23.3047 23.0628V25.7852C23.3047 26.1354 23.1699 26.486 22.9004 26.7285L20.2051 29.4238C19.9626 29.6934 19.612 29.8281 19.2617 29.8281C18.9115 29.8281 18.5609 29.6934 18.3184 29.4238L15.623 26.7285C15.3535 26.486 15.2188 26.1354 15.2188 25.7852V23.0628C13.6016 21.8233 12.5234 19.8197 12.5234 17.6094V14.9141C12.5234 11.1947 15.5423 8.17578 19.2617 8.17578C22.9811 8.17578 26 11.1947 26 14.9141Z" fill="#FFE1BA"/>
<path d="M36.7812 36.5664C36.7812 37.3213 36.1885 37.9141 35.4336 37.9141C34.6787 37.9141 34.0859 37.3213 34.0859 36.5664C34.0859 35.8115 34.6787 35.2188 35.4336 35.2188C36.1885 35.2188 36.7812 35.8115 36.7812 36.5664Z" fill="#C6E2E7"/>
<path d="M43.5195 21.6523C42.7748 21.6523 42.1719 21.0494 42.1719 20.3047V14.9141C42.1719 14.1693 42.7748 13.5664 43.5195 13.5664C44.2643 13.5664 44.8672 14.1693 44.8672 14.9141V20.3047C44.8672 21.0494 44.2643 21.6523 43.5195 21.6523Z" fill="#FF9100"/>
<path d="M47.5625 1.34766V14.9141C47.5625 15.669 46.9697 16.2617 46.2148 16.2617H44.6247C42.5762 16.2617 40.5547 17.0973 39.0723 18.5527C38.8298 18.8223 38.4792 18.957 38.1289 18.957C37.7787 18.957 37.4281 18.8223 37.1855 18.5527C35.7031 17.0973 33.6816 16.2617 31.6331 16.2617H30.043C29.2881 16.2617 28.6953 15.669 28.6953 14.9141V1.34766C28.6953 0.592758 29.2881 0 30.043 0H31.3906L34.0859 2.69531H42.1719L44.8672 0H46.2148C46.9697 0 47.5625 0.592758 47.5625 1.34766Z" fill="#474F54"/>
<path d="M47.5625 1.34766V14.9141C47.5625 15.669 46.9697 16.2617 46.2148 16.2617H44.6247C42.5762 16.2617 40.5547 17.0973 39.0723 18.5527C38.8298 18.8223 38.4792 18.957 38.1289 18.957V2.69531H42.1719L44.8672 0H46.2148C46.9697 0 47.5625 0.592758 47.5625 1.34766Z" fill="#32393F"/>
<path d="M44.8672 0V13.5664H44.6247C42.2796 13.5664 39.9616 14.375 38.1289 15.8037C36.2962 14.375 33.9782 13.5664 31.6331 13.5664H31.3906V0H31.6331C33.9782 0 36.2962 0.808594 38.1289 2.23732C39.9616 0.808594 42.2796 0 44.6247 0H44.8672Z" fill="#FFF4CA"/>
<path d="M44.8672 0V13.5664H44.6247C42.2796 13.5664 39.9616 14.375 38.1289 15.8037V2.23732C39.9616 0.808594 42.2796 0 44.6247 0H44.8672Z" fill="#FFE1BA"/>
<path d="M47.5625 31.1758V44.6523C47.5625 45.4072 46.9697 46 46.2148 46H35.4336V29.8281H46.2148C46.9697 29.8281 47.5625 30.4209 47.5625 31.1758Z" fill="#C6E2E7"/>
<path d="M36.7812 36.5664C36.7812 37.3213 36.1885 37.9141 35.4336 37.9141V35.2188C36.1885 35.2188 36.7812 35.8115 36.7812 36.5664Z" fill="#A8D3D8"/>
<path d="M26 14.9141V17.6094C26 19.8197 24.9219 21.8233 23.3047 23.0628V25.7852C23.3047 26.1354 23.1699 26.486 22.9004 26.7285L20.2051 29.4238C19.9626 29.6934 19.612 29.8281 19.2617 29.8281V8.17578C22.9811 8.17578 26 11.1947 26 14.9141Z" fill="#FFC473"/>
<path d="M23.3047 44.6523V46H19.2617V40.6094C21.499 40.6094 23.3047 42.415 23.3047 44.6523Z" fill="#FFC473"/>
</g>
<defs>
<filter id="filter0_d" x="-1" y="0" width="54" height="54" filterUnits="userSpaceOnUse" color-interpolation-filters="sRGB">
<feFlood flood-opacity="0" result="BackgroundImageFix"/>
<feColorMatrix in="SourceAlpha" type="matrix" values="0 0 0 0 0 0 0 0 0 0 0 0 0 0 0 0 0 0 127 0"/>
<feOffset dy="4"/>
<feGaussianBlur stdDeviation="2"/>
<feColorMatrix type="matrix" values="0 0 0 0 0 0 0 0 0 0 0 0 0 0 0 0 0 0 0.25 0"/>
<feBlend mode="normal" in2="BackgroundImageFix" result="effect1_dropShadow"/>
<feBlend mode="normal" in="SourceGraphic" in2="effect1_dropShadow" result="shape"/>
</filter>
</defs>
</svg>
