<svg width="49" height="49" viewBox="0 0 49 49" fill="none" xmlns="http://www.w3.org/2000/svg">
<g clip-path="url(#clip0)">
<path d="M32.8817 33.0135V42.8146L21.6804 48.4153L7.67877 47.0151L2.07812 37.214V33.0135C2.07812 29.1492 5.21463 26.0127 9.07894 26.0127H25.8809C29.7452 26.0127 32.8817 29.1492 32.8817 33.0135Z" fill="#FF641A"/>
<path d="M32.8803 33.0135V42.8146L21.679 48.4153L17.4785 47.9952V26.0127H25.8795C29.7438 26.0127 32.8803 29.1492 32.8803 33.0135Z" fill="#F03800"/>
<path d="M45.4824 31.6133H23.0798C22.2955 31.6133 21.6797 32.2291 21.6797 33.0134V48.4152H45.4824C46.2668 48.4152 46.8826 47.7994 46.8826 47.0151V33.0134C46.8826 32.2291 46.2668 31.6133 45.4824 31.6133Z" fill="#DEECF1"/>
<path d="M21.6804 47.015V48.4152H3.47829C2.70492 48.4152 2.07812 47.7884 2.07812 47.015V37.2139H6.27861C7.05198 37.2139 7.67877 37.8407 7.67877 38.614V42.8145H17.4799C19.7997 42.8145 21.6804 44.6953 21.6804 47.015Z" fill="#FFE1BA"/>
<path d="M24.4801 16.118V18.9183C24.4801 21.2147 23.36 23.2964 21.6798 24.5842V27.4126C21.6798 27.7765 21.5398 28.1408 21.2598 28.3928L18.4594 31.1931C18.2075 31.4731 17.8432 31.6131 17.4793 31.6131C17.1154 31.6131 16.7512 31.4731 16.4992 31.1931L13.6989 28.3928C13.4189 28.1408 13.2788 27.7765 13.2788 27.4126V24.5842C11.5986 23.2964 10.4785 21.2147 10.4785 18.9183V16.118C10.4785 12.2537 13.615 9.11719 17.4793 9.11719C21.3436 9.11719 24.4801 12.2537 24.4801 16.118Z" fill="#FFE1BA"/>
<path d="M35.6812 38.614C35.6812 39.3983 35.0653 40.0142 34.281 40.0142C33.4967 40.0142 32.8809 39.3983 32.8809 38.614C32.8809 37.8297 33.4967 37.2139 34.281 37.2139C35.0653 37.2139 35.6812 37.8297 35.6812 38.614Z" fill="#C6E2E7"/>
<path d="M42.6814 23.1187C41.9077 23.1187 41.2812 22.4923 41.2812 21.7186V16.1179C41.2812 15.3442 41.9077 14.7178 42.6814 14.7178C43.4551 14.7178 44.0816 15.3442 44.0816 16.1179V21.7186C44.0816 22.4923 43.4551 23.1187 42.6814 23.1187Z" fill="#FF9100"/>
<path d="M46.8835 2.02321V16.1182C46.8835 16.9025 46.2677 17.5183 45.4834 17.5183H43.8312C41.7029 17.5183 39.6027 18.3865 38.0625 19.8986C37.8105 20.1786 37.4463 20.3187 37.0824 20.3187C36.7185 20.3187 36.3542 20.1786 36.1023 19.8986C34.5621 18.3865 32.4619 17.5183 30.3335 17.5183H28.6814C27.8971 17.5183 27.2812 16.9025 27.2812 16.1182V2.02321C27.2812 1.2389 27.8971 0.623047 28.6814 0.623047H30.0816L32.8819 3.42337H41.2829L44.0832 0.623047H45.4834C46.2677 0.623047 46.8835 1.2389 46.8835 2.02321Z" fill="#474F54"/>
<path d="M46.8832 2.02321V16.1182C46.8832 16.9025 46.2673 17.5183 45.483 17.5183H43.8309C41.7026 17.5183 39.6023 18.3865 38.0621 19.8986C37.8102 20.1786 37.4459 20.3187 37.082 20.3187V3.42337H41.2825L44.0828 0.623047H45.483C46.2673 0.623047 46.8832 1.2389 46.8832 2.02321Z" fill="#32393F"/>
<path d="M44.0817 0.623047V14.718H43.8297C41.3933 14.718 38.985 15.5581 37.0809 17.0425C35.1768 15.5581 32.7685 14.718 30.332 14.718H30.0801V0.623047H30.332C32.7685 0.623047 35.1768 1.46314 37.0809 2.94754C38.985 1.46314 41.3933 0.623047 43.8297 0.623047H44.0817Z" fill="#FFF4CA"/>
<path d="M44.0828 0.623047V14.718H43.8309C41.3945 14.718 38.9861 15.5581 37.082 17.0425V2.94754C38.9861 1.46314 41.3945 0.623047 43.8309 0.623047H44.0828Z" fill="#FFE1BA"/>
<path d="M46.8827 33.0134V47.0151C46.8827 47.7994 46.2669 48.4152 45.4825 48.4152H34.2812V31.6133H45.4825C46.2669 31.6133 46.8827 32.2291 46.8827 33.0134Z" fill="#C6E2E7"/>
<path d="M35.6814 38.614C35.6814 39.3983 35.0656 40.0142 34.2812 40.0142V37.2139C35.0656 37.2139 35.6814 37.8297 35.6814 38.614Z" fill="#A8D3D8"/>
<path d="M24.4793 16.118V18.9183C24.4793 21.2147 23.3592 23.2964 21.679 24.5842V27.4126C21.679 27.7765 21.539 28.1408 21.259 28.3928L18.4586 31.1931C18.2067 31.4731 17.8424 31.6131 17.4785 31.6131V9.11719C21.3428 9.11719 24.4793 12.2537 24.4793 16.118Z" fill="#FFC473"/>
<path d="M21.679 47.0149V48.4151H17.4785V42.8145C19.803 42.8145 21.679 44.6905 21.679 47.0149Z" fill="#FFC473"/>
</g>
<defs>
<clipPath id="clip0">
<rect x="0.583984" y="0.623047" width="47.7922" height="47.7922" fill="white"/>
</clipPath>
</defs>
</svg>
