<svg width="48" height="48" viewBox="0 0 48 48" fill="none" xmlns="http://www.w3.org/2000/svg">
<g clip-path="url(#clip0)">
<path d="M37.6764 3.46413C38.4318 3.46413 39.0442 2.85174 39.0442 2.09632C39.0442 1.3409 38.4318 0.728516 37.6764 0.728516C36.921 0.728516 36.3086 1.3409 36.3086 2.09632C36.3086 2.85174 36.921 3.46413 37.6764 3.46413Z" fill="#FCBF29"/>
<path d="M18.5382 14.2793C18.0199 14.2793 17.5457 13.9868 17.3146 13.5233L15.6957 10.2828L12.4552 8.66385C11.9917 8.43283 11.6992 7.95863 11.6992 7.44032C11.6992 6.92202 11.9917 6.44782 12.4552 6.2168L15.6957 4.59787L17.3146 1.35738C17.7768 0.430352 19.2968 0.430352 19.7617 1.35738L21.382 4.59787L24.6211 6.2168C25.0846 6.44919 25.3771 6.92202 25.3771 7.44032C25.3771 7.95863 25.0846 8.43146 24.6211 8.66385L21.382 10.2828L19.7617 13.5233C19.5293 13.9868 19.0565 14.2793 18.5382 14.2793Z" fill="#FEDB41"/>
<path d="M45.9758 11.6702H44.6079V10.3024C44.6079 9.54638 43.9961 8.93457 43.2401 8.93457C42.4841 8.93457 41.8723 9.54638 41.8723 10.3024V11.6702H40.5045C39.7485 11.6702 39.1367 12.282 39.1367 13.038C39.1367 13.794 39.7485 14.4058 40.5045 14.4058H41.8723V15.7736C41.8723 16.5296 42.4841 17.1414 43.2401 17.1414C43.9961 17.1414 44.6079 16.5296 44.6079 15.7736V14.4058H45.9758C46.7318 14.4058 47.3436 13.794 47.3436 13.038C47.3436 12.282 46.7318 11.6702 45.9758 11.6702Z" fill="#FCBF29"/>
<path d="M40.5036 47.4152H27.3912C24.847 47.4152 22.4398 46.4304 20.6344 44.5975L17.5706 41.5336C17.2969 41.2875 17.1602 40.9319 17.1602 40.5763V23.9805C17.1602 23.2145 17.7619 22.6127 18.528 22.6127H21.2636L25.5859 18.263C28.1025 15.7738 29.4703 12.4636 29.4703 8.93483C29.4703 7.43024 30.7013 6.19922 32.2059 6.19922C33.7105 6.19922 34.9415 7.43024 34.9415 8.93483V11.0139C34.9415 14.3239 34.3398 17.6066 33.1908 20.7798L32.5069 22.6127H39.9294L40.1484 31.9501L40.5036 47.4152Z" fill="#FEC478"/>
<path d="M40.5036 47.4153H27.3912C24.847 47.4153 22.4398 46.4305 20.6344 44.5976L17.5706 41.5337C17.2969 41.2876 17.1602 40.9319 17.1602 40.5764V31.9502H40.148L40.5036 47.4153Z" fill="#FEB756"/>
<path d="M44.2794 35.0145C45.9755 35.0145 47.3432 36.4734 47.3432 38.1695C47.3432 39.8929 45.9754 41.2607 44.2794 41.2607H41.5438C43.2399 41.2607 44.6076 42.6285 44.6076 44.3519C44.6076 46.048 43.2398 47.4157 41.5438 47.4157H36.638C34.9419 47.4157 33.5742 46.0479 33.5742 44.3519C33.5742 42.6285 34.942 41.2607 36.638 41.2607C34.9419 41.2607 33.5742 39.8929 33.5742 38.1695C33.5742 36.4734 34.942 35.0145 36.638 35.0145C34.9419 35.0145 33.5742 33.6467 33.5742 31.9507C33.5742 30.2273 34.942 28.7683 36.638 28.7683C34.9419 28.7683 33.5742 27.4005 33.5742 25.6771C33.5742 23.981 34.942 22.6133 36.638 22.6133H44.2794C45.9755 22.6133 47.3432 23.9811 47.3432 25.6771C47.3432 27.4005 45.9754 28.7683 44.2794 28.7683C45.9755 28.7683 47.3432 30.2272 47.3432 31.9507C47.3432 33.6467 45.9754 35.0145 44.2794 35.0145Z" fill="#FEDBAB"/>
<path d="M47.3432 38.169C47.3432 39.8924 45.9754 41.2602 44.2794 41.2602H41.5438C43.2399 41.2602 44.6076 42.628 44.6076 44.3514C44.6076 46.0475 43.2398 47.4152 41.5438 47.4152H36.638C34.9419 47.4152 33.5742 46.0474 33.5742 44.3514C33.5742 42.628 34.942 41.2602 36.638 41.2602C34.9419 41.2602 33.5742 39.8924 33.5742 38.169C33.5742 36.4729 34.942 35.014 36.638 35.014C34.9419 35.014 33.5742 33.6462 33.5742 31.9502H47.3432C47.3432 33.6463 45.9754 35.014 44.2794 35.014C45.9754 35.014 47.3432 36.4729 47.3432 38.169Z" fill="#FEC478"/>
<path d="M18.5284 19.877H13.0573C12.2912 19.877 11.6895 20.4787 11.6895 21.2448V43.3117C11.6895 44.0776 12.2912 44.6796 13.0573 44.6796H18.5284C19.2944 44.6796 19.8962 44.0776 19.8962 43.3117V21.2447C19.8962 20.4786 19.2943 19.877 18.5284 19.877Z" fill="#4F3F82"/>
<path d="M11.6895 31.9502H19.8962V43.312C19.8962 44.0778 19.2944 44.6798 18.5284 44.6798H13.0573C12.2912 44.6798 11.6895 44.0778 11.6895 43.312C11.6895 43.312 11.6895 31.9502 11.6895 31.9502Z" fill="#3B2C68"/>
<path d="M13.0575 17.1416H2.02406C1.25802 17.1416 0.65625 17.7434 0.65625 18.5094V46.0475C0.65625 46.8134 1.25802 47.4153 2.02406 47.4153H13.0575C13.8236 47.4153 14.4254 46.8134 14.4254 46.0475V18.5094C14.4254 17.7434 13.8235 17.1416 13.0575 17.1416Z" fill="#17CEB4"/>
<path d="M0.65625 31.9502H14.4253V46.0475C14.4253 46.8134 13.8235 47.4153 13.0575 47.4153H2.02406C1.25802 47.4153 0.65625 46.8134 0.65625 46.0475C0.65625 46.0476 0.65625 31.9502 0.65625 31.9502Z" fill="#11AD94"/>
<path d="M7.58655 41.9446C8.34197 41.9446 8.95436 41.3322 8.95436 40.5768C8.95436 39.8214 8.34197 39.209 7.58655 39.209C6.83114 39.209 6.21875 39.8214 6.21875 40.5768C6.21875 41.3322 6.83114 41.9446 7.58655 41.9446Z" fill="#CAE8F9"/>
</g>
<defs>
<clipPath id="clip0">
<rect x="0.623047" y="0.662109" width="46.7532" height="46.7532" fill="white"/>
</clipPath>
</defs>
</svg>
