<svg width="45" height="45" viewBox="0 0 45 45" fill="none" xmlns="http://www.w3.org/2000/svg">
<g clip-path="url(#clip0)">
<path d="M35.6647 2.6965C36.3918 2.6965 36.9812 2.10708 36.9812 1.37999C36.9812 0.6529 36.3918 0.0634766 35.6647 0.0634766C34.9376 0.0634766 34.3481 0.6529 34.3481 1.37999C34.3481 2.10708 34.9376 2.6965 35.6647 2.6965Z" fill="#FCBF29"/>
<path d="M17.2431 13.1065C16.7443 13.1065 16.2878 12.825 16.0655 12.3789L14.5073 9.25989L11.3883 7.70168C10.9422 7.47931 10.6606 7.0229 10.6606 6.52403C10.6606 6.02516 10.9422 5.56875 11.3883 5.34639L14.5073 3.78817L16.0655 0.669199C16.5103 -0.223066 17.9733 -0.223066 18.4208 0.669199L19.9803 3.78817L23.098 5.34639C23.5441 5.57007 23.8256 6.02516 23.8256 6.52403C23.8256 7.0229 23.5441 7.478 23.098 7.70168L19.9803 9.25989L18.4208 12.3789C18.1971 12.825 17.742 13.1065 17.2431 13.1065Z" fill="#FEDB41"/>
<path d="M43.6517 10.5954H42.3351V9.27892C42.3351 8.55127 41.7463 7.9624 41.0186 7.9624C40.291 7.9624 39.7021 8.55127 39.7021 9.27892V10.5954H38.3856C37.658 10.5954 37.0691 11.1843 37.0691 11.9119C37.0691 12.6396 37.658 13.2285 38.3856 13.2285H39.7021V14.545C39.7021 15.2726 40.291 15.8615 41.0186 15.8615C41.7463 15.8615 42.3351 15.2726 42.3351 14.545V13.2285H43.6517C44.3793 13.2285 44.9682 12.6396 44.9682 11.9119C44.9682 11.1843 44.3794 10.5954 43.6517 10.5954Z" fill="#FCBF29"/>
<path d="M38.3858 45H25.7651C23.3164 45 20.9994 44.0521 19.2617 42.288L16.3128 39.339C16.0494 39.1021 15.9177 38.7598 15.9177 38.4175V22.4441C15.9177 21.7068 16.4969 21.1276 17.2342 21.1276H19.8673L24.0275 16.941C26.4497 14.5451 27.7663 11.3591 27.7663 7.96262C27.7663 6.51444 28.9511 5.32959 30.3993 5.32959C31.8475 5.32959 33.0323 6.51444 33.0323 7.96262V9.96371C33.0323 13.1496 32.4531 16.3092 31.3472 19.3634L30.689 21.1276H37.8332L38.0439 30.1148L38.3858 45Z" fill="#FEC478"/>
<path d="M38.3858 44.9999H25.7651C23.3164 44.9999 20.9994 44.052 19.2617 42.2879L16.3128 39.3389C16.0494 39.102 15.9177 38.7597 15.9177 38.4174V30.1147H38.0436L38.3858 44.9999Z" fill="#FEB756"/>
<path d="M42.0193 33.0641C43.6518 33.0641 44.9683 34.4683 44.9683 36.1008C44.9683 37.7596 43.6517 39.0761 42.0193 39.0761H39.3863C41.0188 39.0761 42.3352 40.3926 42.3352 42.0513C42.3352 43.6838 41.0187 45.0003 39.3863 45.0003H34.6645C33.032 45.0003 31.7156 43.6837 31.7156 42.0513C31.7156 40.3926 33.0321 39.0761 34.6645 39.0761C33.032 39.0761 31.7156 37.7596 31.7156 36.1008C31.7156 34.4683 33.0321 33.0641 34.6645 33.0641C33.032 33.0641 31.7156 31.7476 31.7156 30.1152C31.7156 28.4564 33.0321 27.0521 34.6645 27.0521C33.032 27.0521 31.7156 25.7356 31.7156 24.0768C31.7156 22.4444 33.0321 21.1279 34.6645 21.1279H42.0193C43.6518 21.1279 44.9683 22.4444 44.9683 24.0768C44.9683 25.7356 43.6517 27.0521 42.0193 27.0521C43.6518 27.0521 44.9683 28.4563 44.9683 30.1152C44.9683 31.7476 43.6517 33.0641 42.0193 33.0641Z" fill="#FEDBAB"/>
<path d="M44.9683 36.1004C44.9683 37.7591 43.6517 39.0756 42.0193 39.0756H39.3863C41.0188 39.0756 42.3352 40.3921 42.3352 42.0509C42.3352 43.6834 41.0187 44.9998 39.3863 44.9998H34.6645C33.032 44.9998 31.7156 43.6833 31.7156 42.0509C31.7156 40.3921 33.0321 39.0756 34.6645 39.0756C33.032 39.0756 31.7156 37.7591 31.7156 36.1004C31.7156 34.4679 33.0321 33.0637 34.6645 33.0637C33.032 33.0637 31.7156 31.7471 31.7156 30.1147H44.9683C44.9683 31.7472 43.6517 33.0637 42.0193 33.0637C43.6517 33.0637 44.9683 34.4679 44.9683 36.1004Z" fill="#FEC478"/>
<path d="M17.2341 18.4946H11.9681C11.2308 18.4946 10.6516 19.0738 10.6516 19.8111V41.0506C10.6516 41.7878 11.2308 42.3671 11.9681 42.3671H17.2341C17.9714 42.3671 18.5506 41.7878 18.5506 41.0506V19.8111C18.5506 19.0737 17.9713 18.4946 17.2341 18.4946Z" fill="#4F3F82"/>
<path d="M10.6516 30.1147H18.5506V41.0505C18.5506 41.7876 17.9714 42.367 17.2341 42.367H11.9681C11.2308 42.367 10.6516 41.7876 10.6516 41.0505C10.6516 41.0505 10.6516 30.1147 10.6516 30.1147Z" fill="#3B2C68"/>
<path d="M11.968 15.8618H1.34825C0.610937 15.8618 0.0317383 16.441 0.0317383 17.1783V43.6837C0.0317383 44.4209 0.610937 45.0003 1.34825 45.0003H11.968C12.7053 45.0003 13.2845 44.4209 13.2845 43.6837V17.1783C13.2845 16.441 12.7052 15.8618 11.968 15.8618Z" fill="#17CEB4"/>
<path d="M0.0317383 30.1147H13.2844V43.6834C13.2844 44.4205 12.7052 44.9999 11.9679 44.9999H1.34825C0.610938 44.9999 0.0317383 44.4205 0.0317383 43.6834C0.0317383 43.6835 0.0317383 30.1147 0.0317383 30.1147Z" fill="#11AD94"/>
<path d="M6.70177 39.7346C7.42886 39.7346 8.01828 39.1452 8.01828 38.4181C8.01828 37.691 7.42886 37.1016 6.70177 37.1016C5.97468 37.1016 5.38525 37.691 5.38525 38.4181C5.38525 39.1452 5.97468 39.7346 6.70177 39.7346Z" fill="#CAE8F9"/>
</g>
<defs>
<clipPath id="clip0">
<rect width="45" height="45" fill="white"/>
</clipPath>
</defs>
</svg>
