<svg width="49" height="35" viewBox="0 0 49 35" fill="none" xmlns="http://www.w3.org/2000/svg">
<path d="M24.5 0C14.9631 0 6.0082 6.0476 0.306426 16.2621C-0.102142 16.994 -0.102142 18.006 0.306426 18.7379C6.0082 28.9524 14.9631 35 24.5 35C34.0369 35 42.9918 28.9524 48.6936 18.7379C49.1021 18.006 49.1021 16.994 48.6936 16.2621C42.9918 6.0476 34.0369 0 24.5 0Z" fill="#F09A79"/>
<path d="M24.5 4.49854C14.9631 4.49854 6.0082 8.98597 0.306426 16.5653C-0.102142 17.1084 -0.102142 17.8593 0.306426 18.4025C6.0082 25.9818 14.9631 30.4692 24.5 30.4692C34.0369 30.4692 42.9918 25.9818 48.6936 18.4025C49.1021 17.8593 49.1021 17.1084 48.6936 16.5653C42.9918 8.98597 34.0369 4.49854 24.5 4.49854Z" fill="white"/>
<path d="M24.4995 28.9518C30.8418 28.9518 35.9833 23.8175 35.9833 17.484C35.9833 11.1504 30.8418 6.01611 24.4995 6.01611C18.1571 6.01611 13.0156 11.1504 13.0156 17.484C13.0156 23.8175 18.1571 28.9518 24.4995 28.9518Z" fill="#0F627F"/>
<path d="M24.4996 25.1289C28.7279 25.1289 32.1555 21.706 32.1555 17.4836C32.1555 13.2613 28.7279 9.83838 24.4996 9.83838C20.2714 9.83838 16.8438 13.2613 16.8438 17.4836C16.8438 21.706 20.2714 25.1289 24.4996 25.1289Z" fill="#005670"/>
<path d="M27.3002 17.4842C28.4551 17.4842 29.3914 16.5492 29.3914 15.3959C29.3914 14.2426 28.4551 13.3076 27.3002 13.3076C26.1452 13.3076 25.209 14.2426 25.209 15.3959C25.209 16.5492 26.1452 17.4842 27.3002 17.4842Z" fill="white"/>
</svg>
