<svg width="47" height="47" viewBox="0 0 47 47" fill="none" xmlns="http://www.w3.org/2000/svg">
<path d="M36.7188 30.1388C40.7909 30.1388 44.092 26.8378 44.092 22.7657C44.092 18.6936 40.7909 15.3926 36.7188 15.3926C32.6468 15.3926 29.3457 18.6936 29.3457 22.7657C29.3457 26.8378 32.6468 30.1388 36.7188 30.1388Z" fill="url(#paint0_linear)"/>
<path d="M7.31445 28.6406L10.0561 40.9683C10.1138 41.2213 10.2556 41.4472 10.4584 41.6091C10.6612 41.771 10.9129 41.8592 11.1724 41.8594H12.4355C12.6381 41.8594 12.8323 41.7789 12.9755 41.6357C13.1188 41.4924 13.1992 41.2982 13.1992 41.0956V35.8571C13.1984 35.4345 13.2849 35.0162 13.4534 34.6287C13.6219 34.2411 13.8687 33.8926 14.1784 33.605L17.2334 30.785" fill="url(#paint1_linear)"/>
<path d="M13.6497 34.2708C13.7916 34.0293 13.9663 33.8086 14.1686 33.6148L17.2236 30.7948L7.31445 28.6406L8.21529 32.6944C8.91784 32.7663 9.61055 32.914 10.2813 33.135L13.6497 34.2708Z" fill="url(#paint2_linear)"/>
<path d="M7.19688 15.4219H4.96438C4.42413 15.4296 3.90863 15.6496 3.52934 16.0344C3.15005 16.4192 2.93744 16.9378 2.9375 17.4781V28.0531C2.9375 28.5985 3.15414 29.1215 3.53976 29.5071C3.92538 29.8927 4.4484 30.1094 4.99375 30.1094H7.19688C8.2451 30.1097 9.28648 30.2783 10.2812 30.6088L35.25 38.9219V6.60938L10.2812 14.9225C9.28648 15.253 8.2451 15.4216 7.19688 15.4219Z" fill="url(#paint3_linear)"/>
<path d="M36.807 5.14062H36.572C35.8257 5.14062 35.2207 5.7456 35.2207 6.49188V39.0394C35.2207 39.7856 35.8257 40.3906 36.572 40.3906H36.807C37.5532 40.3906 38.1582 39.7856 38.1582 39.0394V6.49188C38.1582 5.7456 37.5532 5.14062 36.807 5.14062Z" fill="url(#paint4_linear)"/>
<path d="M38.1875 30.0018C39.251 29.7905 40.2543 29.3457 41.125 28.6995V16.8418C40.2543 16.1957 39.251 15.7509 38.1875 15.5396V30.0018Z" fill="url(#paint5_linear)"/>
<path d="M35.25 6.60938H35.1521L26.3396 20.5625C25.9115 21.2402 25.3189 21.7985 24.617 22.1854C23.915 22.5724 23.1265 22.7753 22.325 22.7754H2.9375V28.0629C2.9375 28.6083 3.15414 29.1313 3.53976 29.5169C3.92538 29.9025 4.4484 30.1192 4.99375 30.1192H7.19688C8.2451 30.1195 9.28648 30.2881 10.2812 30.6185L35.25 38.9219V6.60938Z" fill="url(#paint6_linear)"/>
<defs>
<linearGradient id="paint0_linear" x1="35.8767" y1="22.7657" x2="53.9326" y2="22.7657" gradientUnits="userSpaceOnUse">
<stop stop-color="white"/>
<stop offset="0.52" stop-color="#CCE2E6"/>
<stop offset="1" stop-color="#8FA1BB"/>
</linearGradient>
<linearGradient id="paint1_linear" x1="12.269" y1="49.6927" x2="12.269" y2="6.59958" gradientUnits="userSpaceOnUse">
<stop stop-color="#273A9B"/>
<stop offset="0.56" stop-color="#202F65"/>
<stop offset="1" stop-color="#021E2F"/>
</linearGradient>
<linearGradient id="paint2_linear" x1="105.712" y1="291.177" x2="114.367" y2="195.717" gradientUnits="userSpaceOnUse">
<stop stop-color="#273A9B"/>
<stop offset="0.56" stop-color="#202F65"/>
<stop offset="1" stop-color="#021E2F"/>
</linearGradient>
<linearGradient id="paint3_linear" x1="19.0644" y1="44.6696" x2="19.0644" y2="-2.69271" gradientUnits="userSpaceOnUse">
<stop stop-color="#F3C57A"/>
<stop offset="0.49" stop-color="#F39369"/>
<stop offset="1" stop-color="#E94867"/>
</linearGradient>
<linearGradient id="paint4_linear" x1="145.289" y1="1410.91" x2="145.289" y2="-321.274" gradientUnits="userSpaceOnUse">
<stop stop-color="#273A9B"/>
<stop offset="0.56" stop-color="#202F65"/>
<stop offset="1" stop-color="#021E2F"/>
</linearGradient>
<linearGradient id="paint5_linear" x1="205.302" y1="351.788" x2="123.022" y2="351.788" gradientUnits="userSpaceOnUse">
<stop stop-color="white"/>
<stop offset="0.52" stop-color="#CCE2E6"/>
<stop offset="1" stop-color="#8FA1BB"/>
</linearGradient>
<linearGradient id="paint6_linear" x1="632.062" y1="2817.8" x2="632.062" y2="-425.086" gradientUnits="userSpaceOnUse">
<stop stop-color="#F3C57A"/>
<stop offset="0.49" stop-color="#F39369"/>
<stop offset="1" stop-color="#E94867"/>
</linearGradient>
</defs>
</svg>
