<svg width="77" height="77" viewBox="0 0 77 77" fill="none" xmlns="http://www.w3.org/2000/svg">
<circle cx="38.5" cy="38.5" r="38.5" fill="#F1F1F1"/>
<path d="M20.6947 36.9507C21.7069 36.9507 22.528 36.1296 22.528 35.1175C22.528 29.975 24.53 25.1423 28.1656 21.5048C28.8823 20.788 28.8823 19.6296 28.1656 18.9125C27.4489 18.1958 26.2901 18.1958 25.5734 18.9125C21.2446 23.241 18.8615 28.9961 18.8615 35.1175C18.8615 36.1296 19.6826 36.9507 20.6947 36.9507Z" fill="#4CAF50"/>
<path d="M57.3621 36.9507C58.3739 36.9507 59.1953 36.1296 59.1953 35.1175C59.1953 28.9961 56.8119 23.241 52.4835 18.9125C51.7668 18.1958 50.6079 18.1958 49.8912 18.9125C49.1742 19.6296 49.1742 20.788 49.8912 21.5048C53.5268 25.1403 55.5285 29.975 55.5285 35.1175C55.5285 36.1296 56.35 36.9507 57.3621 36.9507Z" fill="#4CAF50"/>
<path d="M31.6945 53.6666C31.6945 57.7167 34.9776 60.9998 39.0278 60.9998C43.0779 60.9998 46.3613 57.7167 46.3613 53.6666C46.3613 49.6164 43.0779 46.333 39.0278 46.333C34.9776 46.333 31.6945 49.6164 31.6945 53.6666Z" fill="#FFA000"/>
<path d="M39.0278 24.3332C40.0399 24.3332 40.8613 23.5121 40.8613 22.5V18.8332C40.8613 17.8214 40.0399 17 39.0278 17C38.016 17 37.1945 17.8214 37.1945 18.8332V22.5C37.1945 23.5121 38.016 24.3332 39.0278 24.3332Z" fill="#FFA000"/>
<path d="M21.8329 48.0055C24.605 45.6624 26.1945 42.2397 26.1945 38.6115V33.5002C26.1945 26.4235 31.953 20.667 39.0278 20.667C46.1028 20.667 51.8613 26.4235 51.8613 33.5002V38.6115C51.8613 42.2397 53.4508 45.6644 56.2391 48.022C56.9525 48.6306 57.3613 49.5198 57.3613 50.4584C57.3613 52.2279 55.9222 53.667 54.1528 53.667H23.9028C22.1337 53.667 20.6945 52.2279 20.6945 50.4584C20.6945 49.5198 21.1034 48.6306 21.8329 48.0055Z" fill="#FFC107"/>
</svg>
