<svg width="77" height="77" viewBox="0 0 77 77" fill="none" xmlns="http://www.w3.org/2000/svg">
<circle cx="38.5" cy="38.5" r="38.5" fill="#F1F1F1"/>
<path d="M34.2806 53.1053V50.5088V47.9123V45.3158V42.7193C34.2806 40.5681 37.0413 38.8246 40.4473 38.8246C41.2502 38.8246 42.0155 38.9245 42.7192 39.1011V20H21.9473V56.3509H37.0413C35.3783 55.6531 34.2806 54.4606 34.2806 53.1053Z" fill="#6E8C61"/>
<path d="M25.1934 33.6931C26.687 31.3199 29.3224 29.7373 32.3337 29.7373C35.345 29.7373 37.9804 31.3192 39.4741 33.6931V27.1246C39.367 27.1343 39.2592 27.1408 39.1495 27.1408C37.1775 27.1408 35.5793 25.542 35.5793 23.5707C35.5793 23.461 35.5858 23.3532 35.5956 23.2461H29.0719C29.0816 23.3532 29.0881 23.461 29.0881 23.5707C29.0881 25.542 27.49 27.1408 25.5179 27.1408C25.4082 27.1408 25.3005 27.1343 25.1934 27.1246V33.6931Z" fill="#E9E8D3"/>
<path d="M34.2811 47.9122V46.3829C33.656 46.5315 33.0049 46.614 32.3337 46.614C29.3224 46.614 26.687 45.032 25.1934 42.6582V49.2267C25.3005 49.2169 25.4082 49.2105 25.5179 49.2105C27.49 49.2105 29.0881 50.8086 29.0881 52.7806C29.0881 52.8903 29.0816 52.9981 29.0719 53.1052H34.2811V50.5087V47.9122Z" fill="#E9E8D3"/>
<path d="M37.5254 23.5701C37.5254 22.6749 38.2531 21.9473 39.1482 21.9473C40.0433 21.9473 40.771 22.6749 40.771 23.5701C40.771 24.4652 40.0433 25.1929 39.1482 25.1929C38.2531 25.1929 37.5254 24.4652 37.5254 23.5701Z" fill="#E9E8D3"/>
<path d="M23.8945 23.5701C23.8945 22.6749 24.6222 21.9473 25.5173 21.9473C26.4125 21.9473 27.1401 22.6749 27.1401 23.5701C27.1401 24.4652 26.4125 25.1929 25.5173 25.1929C24.6222 25.1929 23.8945 24.4652 23.8945 23.5701Z" fill="#E9E8D3"/>
<path d="M23.8945 52.781C23.8945 51.8859 24.6222 51.1582 25.5173 51.1582C26.4125 51.1582 27.1401 51.8859 27.1401 52.781C27.1401 53.6762 26.4125 54.4038 25.5173 54.4038C24.6222 54.4038 23.8945 53.6762 23.8945 52.781Z" fill="#E9E8D3"/>
<path d="M46.6146 42.719C46.6146 44.8701 43.8539 46.6137 40.4479 46.6137C37.042 46.6137 34.2812 44.8701 34.2812 42.719C34.2812 40.5678 37.042 38.8242 40.4479 38.8242C43.8539 38.8242 46.6146 40.5678 46.6146 42.719Z" fill="#FCC62D"/>
<path d="M40.4479 54.4035C37.042 54.4035 34.2812 52.66 34.2812 50.5088V53.1053C34.2812 55.2565 37.042 57 40.4479 57C43.8539 57 46.6146 55.2565 46.6146 53.1053V50.5088C46.6146 52.66 43.8539 54.4035 40.4479 54.4035Z" fill="#D19D18"/>
<path d="M40.4479 51.8068C37.042 51.8068 34.2812 50.0633 34.2812 47.9121V50.5086C34.2812 52.6598 37.042 54.4033 40.4479 54.4033C43.8539 54.4033 46.6146 52.6598 46.6146 50.5086V47.9121C46.6146 50.0633 43.8539 51.8068 40.4479 51.8068Z" fill="#E4AF18"/>
<path d="M40.4479 49.2102C37.042 49.2102 34.2812 47.4666 34.2812 45.3154V47.9119C34.2812 50.0631 37.042 51.8067 40.4479 51.8067C43.8539 51.8067 46.6146 50.0631 46.6146 47.9119V45.3154C46.6146 47.4666 43.8539 49.2102 40.4479 49.2102Z" fill="#D19D18"/>
<path d="M40.4479 46.6145C37.042 46.6145 34.2812 44.8709 34.2812 42.7197V45.3162C34.2812 47.4674 37.042 49.211 40.4479 49.211C43.8539 49.211 46.6146 47.4674 46.6146 45.3162V42.7197C46.6146 44.8709 43.8539 46.6145 40.4479 46.6145Z" fill="#E4AF18"/>
<path d="M55.0521 34.9299C55.0521 37.0811 52.2914 38.8246 48.8854 38.8246C45.4795 38.8246 42.7188 37.0811 42.7188 34.9299C42.7188 32.7787 45.4795 31.0352 48.8854 31.0352C52.2914 31.0352 55.0521 32.7787 55.0521 34.9299Z" fill="#FCC62D"/>
<path d="M36.1753 39.9141C37.5378 37.4798 36.2279 34.9294 36.2279 34.9294C35.6742 34.7678 34.052 35.2514 33.8657 35.7772C33.2899 35.2521 32.5253 34.9294 31.684 34.9294C30.6292 34.9294 30.1826 36.0329 29.8619 36.1439C29.7048 36.1978 29.5419 36.2251 29.379 36.2277C28.8947 36.2355 28.4416 35.9856 28.1158 35.6279L25.6971 32.9736C24.5716 34.4075 23.8945 36.2108 23.8945 38.1751C23.8945 40.1393 24.5716 41.9426 25.6965 43.3765L28.0937 40.7417C28.4877 40.3094 29.068 40.0471 29.6438 40.1477C29.7256 40.1627 29.8067 40.1828 29.8872 40.2101C30.0956 40.2802 31.116 41.3674 31.34 41.3928C32.0202 42.9967 33.5041 42.3548 34.5226 41.6466C34.8264 40.9773 35.4022 40.3834 36.1753 39.9141Z" fill="#E9E8D3"/>
<path d="M48.8853 54.4035C48.0051 54.4035 47.1703 54.2854 46.4128 54.0757C46.1175 54.8008 45.5034 55.4428 44.666 55.94C45.7695 56.5956 47.2508 57 48.8853 57C52.2913 57 55.052 55.2565 55.052 53.1053V50.5088C55.052 52.66 52.2913 54.4035 48.8853 54.4035Z" fill="#E4AF18"/>
<path d="M48.8866 51.8068C48.0836 51.8068 47.3183 51.7069 46.6146 51.5303V53.1051C46.6146 53.4407 46.54 53.7646 46.4141 54.0755C47.1716 54.2852 48.0064 54.4033 48.8866 54.4033C52.2925 54.4033 55.0532 52.6598 55.0532 50.5086V47.9121C55.0532 50.0633 52.2925 51.8068 48.8866 51.8068Z" fill="#D19D18"/>
<path d="M48.8852 49.2102C48.0822 49.2102 47.3169 49.1102 46.6133 48.9336V50.5084V51.5301C47.3169 51.7067 48.0822 51.8067 48.8852 51.8067C52.2912 51.8067 55.0519 50.0631 55.0519 47.9119V45.3154C55.0519 47.4666 52.2912 49.2102 48.8852 49.2102Z" fill="#E4AF18"/>
<path d="M48.8852 46.6145C48.0822 46.6145 47.3169 46.5145 46.6133 46.3379V47.9127V48.9344C47.3169 49.111 48.0822 49.211 48.8852 49.211C52.2912 49.211 55.0519 47.4674 55.0519 45.3162V42.7197C55.0519 44.8709 52.2912 46.6145 48.8852 46.6145Z" fill="#D19D18"/>
<path d="M48.8852 44.0178C48.0822 44.0178 47.3169 43.9178 46.6133 43.7413V45.316V46.3377C47.3169 46.5143 48.0822 46.6143 48.8852 46.6143C52.2912 46.6143 55.0519 44.8707 55.0519 42.7195V40.123C55.0519 42.2742 52.2912 44.0178 48.8852 44.0178Z" fill="#E4AF18"/>
<path d="M48.8865 41.4211C47.8167 41.4211 46.8106 41.2484 45.9336 40.9459C46.3659 41.4782 46.6145 42.08 46.6145 42.7194V43.7411C47.3182 43.9176 48.0835 44.0176 48.8865 44.0176C52.2924 44.0176 55.0531 42.2741 55.0531 40.1229V37.5264C55.0531 39.6776 52.2924 41.4211 48.8865 41.4211Z" fill="#D19D18"/>
<path d="M48.8854 38.8244C45.4795 38.8244 42.7188 37.0809 42.7188 34.9297V37.5262C42.7188 38.1656 42.9674 38.7673 43.3997 39.2996C44.4844 39.6741 45.3672 40.2499 45.9326 40.9458C46.8095 41.2483 47.8157 41.4209 48.8854 41.4209C52.2914 41.4209 55.0521 39.6774 55.0521 37.5262V34.9297C55.0521 37.0809 52.2914 38.8244 48.8854 38.8244Z" fill="#E4AF18"/>
<path d="M48.5606 31.0455V20H46.6133V31.3116C47.2209 31.1591 47.8758 31.0682 48.5606 31.0455Z" fill="#607B53"/>
<path d="M46.6134 31.3116V20H44.666V32.0951C45.2269 31.7615 45.8851 31.494 46.6134 31.3116Z" fill="#546949"/>
<path d="M44.6661 32.0948V20.001H42.7188V34.9308C42.7188 33.8111 43.4698 32.8056 44.6661 32.0948Z" fill="#607B53"/>
</svg>
