<svg width="77" height="77" viewBox="0 0 77 77" fill="none" xmlns="http://www.w3.org/2000/svg">
<circle cx="38.5" cy="38.5" r="38.5" fill="#F1F1F1"/>
<g clip-path="url(#clip0)">
<path d="M48.103 50.3789V53.4134C48.1004 54.2502 47.4225 54.928 46.5857 54.9306H20.7926C19.9559 54.928 19.278 54.2502 19.2754 53.4134V50.3789H48.103Z" fill="#F2B233"/>
<path d="M19.2754 19.2754V50.3788H48.103V19.2754H19.2754Z" fill="#E7A024"/>
<path d="M46.5857 17H20.7926C19.9559 17.0026 19.278 17.6805 19.2754 18.5172V19.2759L21.908 25.2007C22.1524 25.749 22.6959 26.1023 23.2959 26.1034H44.0824C44.6825 26.1023 45.2259 25.749 45.4704 25.2007L46.4187 23.069L48.103 19.2759V18.5172C48.1004 17.6805 47.4225 17.0026 46.5857 17Z" fill="#F2B233"/>
<path d="M58.7241 24.5866V59.4831C58.7215 60.3199 58.0436 60.9978 57.2069 61.0004H31.4137C31.0107 61.0022 30.6236 60.843 30.3388 60.5581C30.0539 60.2732 29.8946 59.8862 29.8965 59.4831V24.5866C29.8991 23.7498 30.577 23.0719 31.4137 23.0693H57.2069C57.7884 23.0708 58.3185 23.4035 58.5722 23.9265C58.6733 24.1321 58.7252 24.3577 58.7241 24.5866Z" fill="#96C8EF"/>
<path d="M28.3789 26.1035H29.8961V50.3794H28.3789V26.1035Z" fill="#EE8700"/>
<path d="M28.3789 50.3789H29.8961V54.9306H28.3789V50.3789Z" fill="#FF9811"/>
<path d="M29.8961 24.5866C29.8987 23.7498 30.5766 23.0719 31.4134 23.0693H29.8961C29.0594 23.0719 28.3815 23.7498 28.3789 24.5866V26.1038H29.8961V24.5866Z" fill="#FF9811"/>
<path d="M54.1728 23.0693V30.6555L51.897 27.6211L49.6211 30.6555V23.0693H54.1728Z" fill="#FF5023"/>
<path d="M48.1035 23.0693H49.6208V28.6301L48.1035 30.6555V23.0693Z" fill="#78B9EB"/>
<path d="M52.654 28.6301V30.6556L51.1367 28.6301L51.8953 27.6211L52.654 28.6301Z" fill="#78B9EB"/>
<path d="M33.6895 31.4131H45.8274V32.9303H33.6895V31.4131Z" fill="#5AAAE7"/>
<path d="M33.6895 28.3789H36.7239V29.8961H33.6895V28.3789Z" fill="#5AAAE7"/>
<path d="M38.2402 28.3789H44.3092V29.8961H38.2402V28.3789Z" fill="#5AAAE7"/>
<path d="M33.6895 37.4824H41.2757V38.9997H33.6895V37.4824Z" fill="#5AAAE7"/>
<path d="M42.793 37.4824H54.9309V38.9997H42.793V37.4824Z" fill="#5AAAE7"/>
<path d="M33.6895 40.5166H45.8274V42.0338H33.6895V40.5166Z" fill="#5AAAE7"/>
<path d="M47.3438 40.5166H54.93V42.0338H47.3438V40.5166Z" fill="#5AAAE7"/>
<path d="M33.6895 43.5508H54.9308V45.068H33.6895V43.5508Z" fill="#5AAAE7"/>
<path d="M33.6895 46.5859H41.2757V48.1032H33.6895V46.5859Z" fill="#5AAAE7"/>
<path d="M42.793 46.5859H47.3447V48.1032H42.793V46.5859Z" fill="#5AAAE7"/>
<path d="M48.8613 46.5859H54.9303V48.1032H48.8613V46.5859Z" fill="#5AAAE7"/>
<path d="M33.6895 49.6201H54.9308V51.1374H33.6895V49.6201Z" fill="#5AAAE7"/>
<path d="M48.8613 54.1719H54.9303V55.6891H48.8613V54.1719Z" fill="#5AAAE7"/>
</g>
<defs>
<clipPath id="clip0">
<rect x="17" y="17" width="44" height="44" fill="white"/>
</clipPath>
</defs>
</svg>
