<svg width="77" height="77" viewBox="0 0 77 77" fill="none" xmlns="http://www.w3.org/2000/svg">
    <circle cx="38.5" cy="38.5" r="38.5" fill="#F1F1F1"/>
    <g clip-path="url(#clip0)">
        <path d="M57.2556 43.7219C55.9385 47.2913 53.9467 50.3949 51.3347 52.9456C48.3615 55.8489 44.4684 58.1558 39.7632 59.8015C39.6088 59.8553 39.4477 59.8994 39.2858 59.9319C39.072 59.9742 38.8544 59.997 38.6387 60H38.5965C38.3665 60 38.1355 59.9768 37.9063 59.9319C37.7445 59.8994 37.5856 59.8553 37.4319 59.8026C32.7212 58.1596 28.8231 55.8537 25.847 52.9505C23.2338 50.3998 21.2424 47.298 19.9272 43.7286C17.5358 37.2387 17.6718 30.0894 17.7814 24.3442L17.7833 24.256C17.8053 23.7816 17.8195 23.2832 17.8274 22.733C17.8674 20.0312 20.0155 17.796 22.7176 17.6454C28.3514 17.331 32.7096 15.4935 36.4334 11.8639L36.4659 11.834C37.0843 11.2669 37.8634 10.9888 38.6387 11.0003C39.3864 11.0101 40.1311 11.2878 40.7273 11.834L40.7591 11.8639C44.4837 15.4935 48.8419 17.331 54.4757 17.6454C57.1778 17.796 59.3259 20.0312 59.3659 22.733C59.3738 23.287 59.388 23.7846 59.41 24.256L59.4112 24.2934C59.5203 30.0494 59.6556 37.2129 57.2556 43.7219Z" fill="#00DD80"/>
        <path d="M57.2556 43.7215C55.9385 47.291 53.9467 50.3946 51.3347 52.9453C48.3615 55.8485 44.4683 58.1555 39.7632 59.8012C39.6088 59.855 39.4477 59.8991 39.2858 59.9316C39.072 59.9739 38.8544 59.9967 38.6387 59.9997V11C39.3864 11.0097 40.131 11.2875 40.7273 11.8337L40.7591 11.8636C44.4837 15.4932 48.8419 17.3306 54.4757 17.645C57.1778 17.7957 59.3259 20.0309 59.3659 22.7326C59.3737 23.2866 59.3879 23.7842 59.41 24.2556L59.4111 24.293C59.5203 30.049 59.6556 37.2126 57.2556 43.7215Z" fill="#00AA63"/>
        <path d="M50.8069 35.5C50.8069 42.219 45.3515 47.6883 38.6381 47.7122H38.5951C31.8618 47.7122 26.3828 42.2336 26.3828 35.5C26.3828 28.7667 31.8618 23.2881 38.5951 23.2881H38.6381C45.3515 23.312 50.8069 28.7813 50.8069 35.5Z" fill="white"/>
        <path d="M50.8076 35.5C50.8076 42.219 45.3521 47.6883 38.6387 47.7122V23.2881C45.3521 23.312 50.8076 28.7813 50.8076 35.5Z" fill="#E1EBF0"/>
        <path d="M44.1382 33.7415L38.6383 39.2422L37.4498 40.4306C37.1691 40.7113 36.8009 40.8515 36.433 40.8515C36.0648 40.8515 35.6969 40.7113 35.4158 40.4306L32.8606 37.8743C32.2991 37.3128 32.2991 36.4032 32.8606 35.8413C33.4213 35.2798 34.332 35.2798 34.8935 35.8413L36.433 37.3808L42.1053 31.7085C42.6668 31.1466 43.5775 31.1466 44.1382 31.7085C44.6997 32.27 44.6997 33.1807 44.1382 33.7415Z" fill="#B4D2D7"/>
        <path d="M44.1386 33.7415L38.6387 39.2422V35.1752L42.1057 31.7085C42.6672 31.1466 43.5779 31.1466 44.1386 31.7085C44.7001 32.27 44.7001 33.1807 44.1386 33.7415Z" fill="#6FA5AA"/>
    </g>
    <defs>
        <clipPath id="clip0">
            <rect x="14" y="11" width="49" height="49" fill="white"/>
        </clipPath>
    </defs>
</svg>
