<svg width="77" height="77" viewBox="0 0 77 77" fill="none" xmlns="http://www.w3.org/2000/svg">
<circle cx="38.5" cy="38.5" r="38.5" fill="#F1F1F1"/>
<path d="M48.0904 31.9399C49.5953 30.9356 50.5 29.2459 50.5 27.4365V18.833H27.5V27.4365C27.5 29.2459 28.4047 30.9356 29.9096 31.9399L37.0542 37.1862C37.3133 37.3764 37.4667 37.6784 37.4667 37.9997C37.4667 38.3209 37.3133 38.623 37.055 38.8131L29.9104 44.0594C28.4047 45.0637 27.5 46.7535 27.5 48.5628V57.1663H50.5V48.5628C50.5 46.7535 49.5953 45.0637 48.0904 44.0594L40.9458 38.8131C40.6867 38.623 40.5333 38.3209 40.5333 37.9997C40.5333 37.6784 40.6867 37.3764 40.945 37.1862L48.0904 31.9399Z" fill="#E6E6E6"/>
<path d="M54.3327 57.167H23.666V60.2337H54.3327V57.167Z" fill="#9E6C53"/>
<path d="M54.3327 15.7666H23.666V18.8333H54.3327V15.7666Z" fill="#9E6C53"/>
<path d="M57.4007 59.4668H54.334H20.6007C20.1775 59.4668 19.834 59.8095 19.834 60.2335C19.834 60.6574 20.1775 61.0001 20.6007 61.0001H54.334H57.4007C57.8238 61.0001 58.1673 60.6574 58.1673 60.2335C58.1673 59.8095 57.8238 59.4668 57.4007 59.4668Z" fill="#8A5336"/>
<path d="M20.6007 16.5333H54.334H57.4007C57.8238 16.5333 58.1673 16.1906 58.1673 15.7667C58.1673 15.3427 57.8238 15 57.4007 15H54.334H20.6007C20.1775 15 19.834 15.3427 19.834 15.7667C19.834 16.1906 20.1775 16.5333 20.6007 16.5333Z" fill="#8A5336"/>
<path d="M46.8147 30.0265C47.6825 29.4477 48.2008 28.4794 48.2008 27.4375C48.2008 26.4362 47.5192 25.563 46.5479 25.3199L35.0072 22.435C32.363 21.7733 29.8008 23.7736 29.8008 26.4998V27.4375C29.8008 28.4794 30.319 29.4477 31.1869 30.0265L38.2341 35.1984V47.3708C38.2341 50.1538 35.3484 51.9984 32.823 50.8292C31.4629 50.1998 29.8161 51.1313 29.8015 52.6301C29.8015 52.6409 29.8015 52.6508 29.8015 52.6616V57.1665H48.2016V48.5622C48.2016 48.5515 48.2016 48.5415 48.2016 48.5308C48.187 47.0503 46.7533 45.9839 45.2951 46.2377L43.7242 46.5114C41.6581 46.8709 39.7675 45.2809 39.7675 43.1848V35.1984L46.8147 30.0265Z" fill="#EBBA16"/>
</svg>
