<svg width="77" height="77" viewBox="0 0 77 77" fill="none" xmlns="http://www.w3.org/2000/svg">
<circle cx="38.5" cy="38.5" r="38.5" fill="#F1F1F1"/>
<g clip-path="url(#clip0)">
<path d="M64 36C64 41.5674 62.1796 46.7102 59.1021 50.8653C57.9704 52.3929 56.6684 53.7878 55.2245 55.0204C50.8582 58.749 45.1929 61 39 61C35.4133 61 32.0041 60.2449 28.9214 58.8847C27.5897 58.2979 26.3193 57.5979 25.1224 56.7969C24.304 56.251 23.5214 55.657 22.7754 55.0203C21.3315 53.7877 20.0295 52.3928 18.8979 50.8652C15.8204 46.7102 14 41.5674 14 36C14 30.4326 15.8204 25.2898 18.8979 21.1347C20.8367 18.5173 23.2745 16.2918 26.0704 14.5989C29.8429 12.3143 34.2674 11 39 11C39.0326 11 39.0653 11 39.0979 11.001C43.7938 11.0184 48.1837 12.3296 51.9296 14.5989C54.7255 16.2918 57.1633 18.5173 59.1021 21.1347C62.1796 25.2897 64 30.4326 64 36Z" fill="#EF487D"/>
<path d="M60.5437 32.5444C60.5437 37.3422 58.975 41.7742 56.3228 45.355C55.3477 46.6714 54.2256 47.8734 52.9813 48.9358C49.2186 52.149 44.3363 54.0889 38.9995 54.0889C35.9086 54.0889 32.9706 53.4382 30.314 52.2659C29.1664 51.7603 28.0716 51.157 27.04 50.4667C26.3349 49.9963 25.6604 49.4845 25.0175 48.9357C23.7732 47.8735 22.6512 46.6714 21.676 45.3549C19.0238 41.7741 17.4551 37.3421 17.4551 32.5443C17.4551 27.7466 19.0237 23.3146 21.6759 19.7338C23.3467 17.4782 25.4476 15.5604 27.8569 14.1015C31.1079 12.1326 34.9208 11 38.9993 11C39.0274 11 39.0557 11 39.0837 11.0009C43.1306 11.0158 46.9136 12.1458 50.1417 14.1015C52.5512 15.5604 54.6521 17.4782 56.3228 19.7338C58.9749 23.3146 60.5437 27.7467 60.5437 32.5444Z" fill="#FF668C"/>
<path d="M59.1026 18.3145V50.8654C57.971 52.393 56.6689 53.7879 55.2251 55.0205C50.8588 58.7492 45.1935 61.0002 39.0006 61.0002C35.4139 61.0002 32.0047 60.2451 28.922 58.8849C27.5903 58.2981 26.3199 57.5981 25.1229 56.7971C24.3046 56.2512 23.522 55.6572 22.776 55.0205C21.3321 53.7879 20.0301 52.393 18.8984 50.8654V18.3145C18.8984 16.2624 20.5617 14.5991 22.6138 14.5991H55.3872C57.4394 14.5992 59.1026 16.2624 59.1026 18.3145Z" fill="#343A6E"/>
<path d="M55.2245 25.3081V55.0203C50.8582 58.7489 45.1929 60.9999 39 60.9999C35.4133 60.9999 32.0041 60.2448 28.9214 58.8846C27.5897 58.2978 26.3193 57.5979 25.1224 56.7968C24.304 56.2509 23.5214 55.6569 22.7754 55.0202V25.3081C22.7754 24.0143 23.8233 22.9663 25.1162 22.9663H52.8825C54.1755 22.9662 55.2245 24.0142 55.2245 25.3081Z" fill="#F0F0F0"/>
<path d="M48.9486 15.5979V22.1714C48.9486 23.4 47.9537 24.3948 46.7252 24.3948H31.2742C30.0456 24.3948 29.0508 23.3999 29.0508 22.1714V15.5979C29.0508 14.3693 30.0457 13.3745 31.2742 13.3745H35.1641C35.8661 11.9674 37.3202 11 38.9998 11C39.261 11 39.5172 11.0234 39.7651 11.0684C40.9406 11.2796 41.9488 11.9714 42.5805 12.9316C42.5887 12.9438 42.5958 12.9551 42.6029 12.9674C42.6631 13.0603 42.7203 13.1562 42.7724 13.2541C42.7958 13.297 42.8173 13.3378 42.8356 13.3745H46.7255C47.9538 13.3745 48.9486 14.3694 48.9486 15.5979Z" fill="#F2AE5A"/>
<path d="M48.9493 15.5979V22.1714C48.9493 23.4 47.9544 24.3948 46.7259 24.3948H32.8055C31.5769 24.3948 30.582 23.3999 30.582 22.1714V15.5979C30.582 14.3693 31.577 13.3745 32.8055 13.3745H35.1646C35.8667 11.9674 37.3208 11 39.0004 11C39.2616 11 39.5178 11.0234 39.7657 11.0684C40.9412 11.2796 41.9494 11.9714 42.5811 12.9316C42.5893 12.9438 42.5964 12.9551 42.6035 12.9674C42.6688 13.0725 42.726 13.1694 42.7729 13.2541C42.7964 13.297 42.8179 13.3378 42.8362 13.3745H46.7261C47.9545 13.3745 48.9493 14.3694 48.9493 15.5979Z" fill="#F9DF73"/>
<path d="M38.9991 15.9768C39.8163 15.9768 40.4787 15.3143 40.4787 14.4972C40.4787 13.68 39.8163 13.0176 38.9991 13.0176C38.182 13.0176 37.5195 13.68 37.5195 14.4972C37.5195 15.3143 38.182 15.9768 38.9991 15.9768Z" fill="#343A6E"/>
<path d="M44.5098 21.1296H33.4894C32.8977 21.1296 32.418 20.6499 32.418 20.0582C32.418 19.4665 32.8977 18.9868 33.4894 18.9868H44.5098C45.1015 18.9868 45.5811 19.4665 45.5811 20.0582C45.5812 20.6499 45.1015 21.1296 44.5098 21.1296Z" fill="#F2AE5A"/>
<path d="M32.5721 36.8439H26.1435C25.58 36.8439 25.123 36.3871 25.123 35.8235V29.3949C25.123 28.8313 25.58 28.3745 26.1435 28.3745H32.5721C33.1356 28.3745 33.5925 28.8313 33.5925 29.3949V35.8235C33.5925 36.3871 33.1356 36.8439 32.5721 36.8439ZM27.164 34.8031H31.5518V30.4153H27.164V34.8031Z" fill="#5897D1"/>
<path d="M42.8768 31.6399H36.4481C35.8847 31.6399 35.4277 31.1831 35.4277 30.6195C35.4277 30.056 35.8847 29.5991 36.4481 29.5991H42.8768C43.4402 29.5991 43.8972 30.056 43.8972 30.6195C43.8972 31.1831 43.4402 31.6399 42.8768 31.6399Z" fill="#484B7F"/>
<path d="M50.8358 35.6194H36.4481C35.8847 35.6194 35.4277 35.1626 35.4277 34.599C35.4277 34.0355 35.8847 33.5786 36.4481 33.5786H50.8359C51.3994 33.5786 51.8563 34.0355 51.8563 34.599C51.8563 35.1626 51.3993 35.6194 50.8358 35.6194Z" fill="#484B7F"/>
<path d="M32.5721 47.8645H26.1435C25.58 47.8645 25.123 47.4076 25.123 46.844V40.4154C25.123 39.8519 25.58 39.395 26.1435 39.395H32.5721C33.1356 39.395 33.5925 39.8519 33.5925 40.4154V46.844C33.5925 47.4076 33.1356 47.8645 32.5721 47.8645ZM27.164 45.8236H31.5518V41.4358H27.164V45.8236Z" fill="#5897D1"/>
<path d="M42.8768 42.66H36.4481C35.8847 42.66 35.4277 42.2031 35.4277 41.6396C35.4277 41.076 35.8847 40.6191 36.4481 40.6191H42.8768C43.4402 40.6191 43.8972 41.076 43.8972 41.6396C43.8972 42.2031 43.4402 42.66 42.8768 42.66Z" fill="#484B7F"/>
<path d="M50.8358 46.6395H36.4481C35.8847 46.6395 35.4277 46.1826 35.4277 45.619C35.4277 45.0555 35.8847 44.5986 36.4481 44.5986H50.8359C51.3994 44.5986 51.8563 45.0555 51.8563 45.619C51.8562 46.1826 51.3993 46.6395 50.8358 46.6395Z" fill="#484B7F"/>
<path d="M32.5721 50.4155H26.1435C25.5802 50.4155 25.123 50.8727 25.123 51.4359V56.7972C26.32 57.5981 27.5904 58.2981 28.9221 58.885H32.5721C33.1354 58.885 33.5925 58.4278 33.5925 57.8645V51.4359C33.5925 50.8727 33.1354 50.4155 32.5721 50.4155ZM31.5517 56.844H27.1639V52.4563H31.5517V56.844Z" fill="#5897D1"/>
<path d="M42.8768 53.6805H36.4481C35.8847 53.6805 35.4277 53.2236 35.4277 52.6601C35.4277 52.0965 35.8847 51.6396 36.4481 51.6396H42.8768C43.4402 51.6396 43.8972 52.0965 43.8972 52.6601C43.8972 53.2236 43.4402 53.6805 42.8768 53.6805Z" fill="#484B7F"/>
<path d="M50.8358 57.66H36.4481C35.8847 57.66 35.4277 57.2031 35.4277 56.6396C35.4277 56.076 35.8847 55.6191 36.4481 55.6191H50.8359C51.3994 55.6191 51.8563 56.076 51.8563 56.6396C51.8562 57.2031 51.3993 57.66 50.8358 57.66Z" fill="#484B7F"/>
<path d="M29.3051 46.946C28.9657 46.946 28.6463 46.7768 28.4564 46.4917L25.191 41.5937C24.8784 41.1249 25.0051 40.4913 25.474 40.1787C25.943 39.8661 26.5765 39.9927 26.8891 40.4618L29.1547 43.8601L32.0567 37.7337C32.2978 37.2245 32.9063 37.0071 33.4156 37.2484C33.9249 37.4896 34.1422 38.0981 33.901 38.6074L30.2276 46.3624C30.0702 46.6946 29.7462 46.9165 29.3796 46.9433C29.3545 46.9452 29.3297 46.946 29.3051 46.946Z" fill="#EF487D"/>
</g>
<defs>
<clipPath id="clip0">
<rect x="14" y="11" width="50" height="50" fill="white"/>
</clipPath>
</defs>
</svg>
